<svg width="39" height="45" viewBox="0 0 39 45" fill="none" xmlns="http://www.w3.org/2000/svg">
<path d="M16.7143 0C13.65 0 11.1429 2.53125 11.1429 5.625H5.57143C2.50714 5.625 0 8.15625 0 11.25H39C39 8.15625 36.4929 5.625 33.4286 5.625H27.8571C27.8571 2.53125 25.35 0 22.2857 0H16.7143ZM5.57143 16.875V43.9313C5.57143 44.55 6.01714 45 6.63 45H32.4257C33.0386 45 33.4843 44.55 33.4843 43.9313V16.875H27.9129V36.5625C27.9129 38.1375 26.6871 39.375 25.1271 39.375C23.5671 39.375 22.3414 38.1375 22.3414 36.5625V16.875H16.77V36.5625C16.77 38.1375 15.5443 39.375 13.9843 39.375C12.4243 39.375 11.1986 38.1375 11.1986 36.5625V16.875H5.62714H5.57143Z" fill="#88A5B4"/>
</svg>
