<svg width="20" height="20" viewBox="0 0 20 20" fill="none" xmlns="http://www.w3.org/2000/svg">
<path d="M17.1365 0V17.1365C17.2222 17.1651 17.3364 17.1365 17.3936 17.1365H19.707C19.8498 17.1365 19.964 17.0223 19.964 16.8795V0.285608C19.964 0.114243 19.8498 0.0285608 19.707 0.0285608H17.1079L17.1365 0ZM14.2804 1.42804L5.96922 5.62649C5.82641 5.68361 5.59793 5.71217 5.42656 5.71217H0.257048C0.0856825 5.71217 0 5.82641 0 5.96922V11.1387C0 11.3101 0.114243 11.3958 0.257048 11.3958H2.85608L5.79785 19.1643C6.11202 19.8783 7.05453 20.1925 7.76855 19.8783C8.48257 19.5642 8.79674 18.6217 8.48257 17.9076L6.34051 12.8238C6.42619 12.424 6.7118 12.1955 7.14021 12.1955V12.1098L14.2804 15.6799V1.39948V1.42804Z" fill="#667B8B"/>
</svg>
