<svg width="23" height="23" viewBox="0 0 23 23" fill="none" xmlns="http://www.w3.org/2000/svg">
<circle cx="11.5" cy="11.5005" r="11.5" fill="#EE8304"/>
<path d="M11.5852 3C6.9102 3 3.08521 6.825 3.08521 11.5C3.08521 16.175 6.9102 20 11.5852 20C16.2602 20 20.0852 16.175 20.0852 11.5C20.0852 6.825 16.2602 3 11.5852 3ZM11.5852 5.125C15.1127 5.125 17.9602 7.9725 17.9602 11.5C17.9602 15.0275 15.1127 17.875 11.5852 17.875C8.0577 17.875 5.21021 15.0275 5.21021 11.5C5.21021 7.9725 8.0577 5.125 11.5852 5.125ZM10.5227 7.25V11.9675L10.8627 12.2437L11.9252 13.3062L12.6477 14.1138L14.1777 12.5838L13.3702 11.8612L12.6477 11.1388V7.2925H10.5227V7.25Z" fill="white"/>
</svg>
