<svg width="21" height="20" viewBox="0 0 21 20" fill="none" xmlns="http://www.w3.org/2000/svg">
<path d="M8.80959 0L7.55466 2.91018C7.30368 2.98355 7.07779 3.10582 6.8519 3.2281L3.86518 2.00533L2.05808 3.76612L3.31301 6.6763C3.18751 6.92085 3.08712 7.11649 2.98673 7.36105L0 8.58381V11.0293L2.98673 12.2521C3.08712 12.4967 3.18751 12.6923 3.31301 12.9369L2.05808 15.847L3.86518 17.6078L6.8519 16.3851C7.07779 16.4829 7.30368 16.6052 7.55466 16.703L8.80959 19.6132H11.3194L12.5744 16.703C12.8003 16.6052 13.0512 16.5073 13.2771 16.3851L16.2639 17.6078L18.071 15.847L16.816 12.9369C16.9164 12.7168 17.0419 12.4722 17.1423 12.2521L20.129 11.0293V8.58381L17.1423 7.36105C17.067 7.14095 16.9415 6.8964 16.816 6.6763L18.071 3.76612L16.2639 2.00533L13.2771 3.2281C13.0512 3.13028 12.8003 3.008 12.5744 2.91018L11.3194 0L8.80959 0ZM10.0645 6.11383C12.1477 6.11383 13.8293 7.75233 13.8293 9.78212C13.8293 11.8119 12.1477 13.4504 10.0645 13.4504C7.98134 13.4504 6.29973 11.8119 6.29973 9.78212C6.29973 7.75233 7.98134 6.11383 10.0645 6.11383Z" fill="#667B8B"/>
</svg>
