<svg width="488" height="101" viewBox="0 0 488 101" fill="none" xmlns="http://www.w3.org/2000/svg">
	<path
		d="M39.1605 69V32.6364H53.5071C56.2652 32.6364 58.6148 33.1631 60.5561 34.2166C62.4974 35.2583 63.977 36.7083 64.995 38.5668C66.0249 40.4134 66.5398 42.544 66.5398 44.9588C66.5398 47.3736 66.0189 49.5043 64.9773 51.3509C63.9356 53.1974 62.4264 54.6357 60.4496 55.6655C58.4846 56.6953 56.1054 57.2102 53.3118 57.2102H44.1676V51.049H52.0689C53.5485 51.049 54.7678 50.7945 55.7266 50.2855C56.6972 49.7647 57.4193 49.0485 57.8928 48.1371C58.3781 47.2138 58.6207 46.1544 58.6207 44.9588C58.6207 43.7514 58.3781 42.6979 57.8928 41.7983C57.4193 40.8868 56.6972 40.1825 55.7266 39.6854C54.7559 39.1764 53.5249 38.9219 52.0334 38.9219H46.8487V69H39.1605ZM71.3915 69V41.7273H78.7246V46.4858H79.0087C79.5059 44.7931 80.3404 43.5147 81.5123 42.6506C82.6841 41.7746 84.0336 41.3366 85.5605 41.3366C85.9393 41.3366 86.3477 41.3603 86.7857 41.4077C87.2237 41.455 87.6084 41.5201 87.9398 41.603V48.3146C87.5847 48.2081 87.0935 48.1134 86.4661 48.0305C85.8387 47.9477 85.2646 47.9062 84.7438 47.9062C83.6311 47.9062 82.6368 48.1489 81.7608 48.6342C80.8967 49.1077 80.2102 49.7706 79.7012 50.6229C79.204 51.4751 78.9554 52.4576 78.9554 53.5703V69H71.3915ZM103.01 69.5327C100.205 69.5327 97.7898 68.9645 95.7656 67.8281C93.7533 66.6799 92.2027 65.0582 91.1136 62.9631C90.0246 60.8561 89.4801 58.3643 89.4801 55.4879C89.4801 52.6825 90.0246 50.2204 91.1136 48.1016C92.2027 45.9827 93.7356 44.3314 95.7124 43.1477C97.701 41.964 100.033 41.3722 102.708 41.3722C104.507 41.3722 106.182 41.6622 107.733 42.2422C109.295 42.8104 110.657 43.6686 111.817 44.8168C112.989 45.965 113.9 47.4091 114.551 49.1491C115.202 50.8774 115.528 52.9015 115.528 55.2216V57.299H92.4986V52.6115H108.408C108.408 51.5225 108.171 50.5578 107.697 49.7173C107.224 48.8769 106.567 48.2199 105.727 47.7464C104.898 47.2611 103.933 47.0185 102.832 47.0185C101.684 47.0185 100.666 47.2848 99.7784 47.8175C98.9025 48.3383 98.2159 49.0426 97.7188 49.9304C97.2216 50.8063 96.9671 51.7829 96.9553 52.8601V57.3168C96.9553 58.6662 97.2038 59.8321 97.701 60.8146C98.21 61.7971 98.9261 62.5547 99.8494 63.0874C100.773 63.62 101.868 63.8864 103.134 63.8864C103.975 63.8864 104.744 63.768 105.442 63.5312C106.141 63.2945 106.739 62.9394 107.236 62.4659C107.733 61.9924 108.112 61.4124 108.372 60.7259L115.368 61.1875C115.013 62.8684 114.285 64.3362 113.184 65.5909C112.095 66.8338 110.686 67.8045 108.958 68.5028C107.242 69.1894 105.259 69.5327 103.01 69.5327ZM120.464 69V41.7273H127.673V46.5391H127.992C128.56 44.9411 129.507 43.6804 130.833 42.7571C132.159 41.8338 133.745 41.3722 135.592 41.3722C137.462 41.3722 139.054 41.8397 140.368 42.7749C141.682 43.6982 142.558 44.9529 142.996 46.5391H143.28C143.836 44.9766 144.842 43.7277 146.298 42.7926C147.766 41.8456 149.5 41.3722 151.501 41.3722C154.046 41.3722 156.111 42.183 157.697 43.8047C159.295 45.4145 160.094 47.6991 160.094 50.6584V69H152.548V52.1499C152.548 50.6347 152.146 49.4983 151.341 48.7408C150.536 47.9832 149.53 47.6044 148.322 47.6044C146.949 47.6044 145.878 48.0424 145.109 48.9183C144.339 49.7824 143.955 50.9247 143.955 52.3452V69H136.621V51.9901C136.621 50.6525 136.237 49.5871 135.467 48.794C134.71 48.0009 133.71 47.6044 132.467 47.6044C131.626 47.6044 130.869 47.8175 130.194 48.2436C129.531 48.6579 129.004 49.2438 128.614 50.0014C128.223 50.7472 128.028 51.6231 128.028 52.6293V69H120.464ZM166.069 69V41.7273H173.633V69H166.069ZM169.869 38.2116C168.744 38.2116 167.78 37.8388 166.975 37.093C166.182 36.3355 165.785 35.4299 165.785 34.3764C165.785 33.3348 166.182 32.4411 166.975 31.6953C167.78 30.9377 168.744 30.5589 169.869 30.5589C170.993 30.5589 171.952 30.9377 172.745 31.6953C173.55 32.4411 173.953 33.3348 173.953 34.3764C173.953 35.4299 173.55 36.3355 172.745 37.093C171.952 37.8388 170.993 38.2116 169.869 38.2116ZM192.121 69.5327C189.316 69.5327 186.901 68.9645 184.877 67.8281C182.865 66.6799 181.314 65.0582 180.225 62.9631C179.136 60.8561 178.591 58.3643 178.591 55.4879C178.591 52.6825 179.136 50.2204 180.225 48.1016C181.314 45.9827 182.847 44.3314 184.824 43.1477C186.812 41.964 189.144 41.3722 191.819 41.3722C193.619 41.3722 195.294 41.6622 196.844 42.2422C198.407 42.8104 199.768 43.6686 200.928 44.8168C202.1 45.965 203.011 47.4091 203.662 49.1491C204.314 50.8774 204.639 52.9015 204.639 55.2216V57.299H181.61V52.6115H197.519C197.519 51.5225 197.282 50.5578 196.809 49.7173C196.335 48.8769 195.678 48.2199 194.838 47.7464C194.009 47.2611 193.045 47.0185 191.944 47.0185C190.796 47.0185 189.778 47.2848 188.89 47.8175C188.014 48.3383 187.327 49.0426 186.83 49.9304C186.333 50.8063 186.078 51.7829 186.067 52.8601V57.3168C186.067 58.6662 186.315 59.8321 186.812 60.8146C187.321 61.7971 188.037 62.5547 188.961 63.0874C189.884 63.62 190.979 63.8864 192.246 63.8864C193.086 63.8864 193.855 63.768 194.554 63.5312C195.252 63.2945 195.85 62.9394 196.347 62.4659C196.844 61.9924 197.223 61.4124 197.483 60.7259L204.479 61.1875C204.124 62.8684 203.396 64.3362 202.295 65.5909C201.206 66.8338 199.798 67.8045 198.069 68.5028C196.353 69.1894 194.37 69.5327 192.121 69.5327ZM209.575 69V41.7273H216.908V46.4858H217.192C217.689 44.7931 218.524 43.5147 219.696 42.6506C220.868 41.7746 222.217 41.3366 223.744 41.3366C224.123 41.3366 224.531 41.3603 224.969 41.4077C225.407 41.455 225.792 41.5201 226.123 41.603V48.3146C225.768 48.2081 225.277 48.1134 224.65 48.0305C224.022 47.9477 223.448 47.9062 222.927 47.9062C221.815 47.9062 220.82 48.1489 219.944 48.6342C219.08 49.1077 218.394 49.7706 217.885 50.6229C217.388 51.4751 217.139 52.4576 217.139 53.5703V69H209.575ZM237.185 41.7273L242.192 51.2621L247.324 41.7273H255.083L247.182 55.3636L255.296 69H247.572L242.192 59.5717L236.901 69H229.089L237.185 55.3636L229.373 41.7273H237.185Z"
		fill="white" />
	<rect x="265" y="10" width="213" height="81" rx="40.5" fill="url(#paint0_linear_11_351)" />
	<path
		d="M296.06 63.3182V55.6477L310.69 32.6364H317.651V42.8636H313.673L305.79 55.3636V55.6477H327.381V63.3182H296.06ZM313.744 69V60.9744L313.957 57.6364V32.6364H323.19V69H313.744Z"
		fill="#F3F3F3" />
	<path
		d="M342.752 69V32.6364H367.575V39.7741H351.541V47.2315H365.994V54.3871H351.541V69H342.752ZM371.463 69V41.7273H379.897V46.6989H380.181C380.678 44.8996 381.489 43.562 382.614 42.6861C383.738 41.7983 385.046 41.3544 386.538 41.3544C386.94 41.3544 387.354 41.384 387.781 41.4432C388.207 41.4905 388.603 41.5675 388.97 41.674V49.2202C388.556 49.0781 388.011 48.9657 387.337 48.8828C386.674 48.8 386.082 48.7585 385.561 48.7585C384.531 48.7585 383.602 48.9893 382.773 49.451C381.957 49.9008 381.312 50.5341 380.838 51.3509C380.376 52.1558 380.146 53.1027 380.146 54.1918V69H371.463ZM403.841 69.5149C400.988 69.5149 398.526 68.9527 396.454 67.8281C394.395 66.6918 392.808 65.076 391.696 62.9808C390.595 60.8738 390.044 58.3703 390.044 55.4702C390.044 52.6529 390.601 50.1908 391.713 48.0838C392.826 45.965 394.395 44.3196 396.419 43.1477C398.443 41.964 400.828 41.3722 403.574 41.3722C405.516 41.3722 407.291 41.674 408.901 42.2777C410.511 42.8814 411.902 43.7751 413.074 44.9588C414.245 46.1425 415.157 47.6044 415.808 49.3445C416.459 51.0727 416.784 53.0554 416.784 55.2926V57.4588H393.081V52.4162H408.706C408.694 51.4929 408.475 50.6702 408.049 49.9482C407.623 49.2261 407.037 48.6638 406.291 48.2614C405.557 47.8471 404.711 47.6399 403.752 47.6399C402.781 47.6399 401.911 47.8589 401.142 48.2969C400.372 48.723 399.763 49.3089 399.313 50.0547C398.863 50.7886 398.626 51.6231 398.603 52.5582V57.6896C398.603 58.8023 398.822 59.7789 399.26 60.6193C399.698 61.4479 400.319 62.093 401.124 62.5547C401.929 63.0163 402.888 63.2472 404 63.2472C404.77 63.2472 405.468 63.1406 406.096 62.9276C406.723 62.7145 407.261 62.4008 407.711 61.9865C408.161 61.5722 408.498 61.0632 408.723 60.4595L416.696 60.6903C416.364 62.4777 415.636 64.0343 414.512 65.3601C413.399 66.674 411.937 67.6979 410.126 68.4318C408.315 69.1539 406.22 69.5149 403.841 69.5149ZM433.968 69.5149C431.115 69.5149 428.653 68.9527 426.581 67.8281C424.521 66.6918 422.935 65.076 421.823 62.9808C420.722 60.8738 420.171 58.3703 420.171 55.4702C420.171 52.6529 420.728 50.1908 421.84 48.0838C422.953 45.965 424.521 44.3196 426.546 43.1477C428.57 41.964 430.955 41.3722 433.701 41.3722C435.642 41.3722 437.418 41.674 439.028 42.2777C440.638 42.8814 442.029 43.7751 443.2 44.9588C444.372 46.1425 445.284 47.6044 445.935 49.3445C446.586 51.0727 446.911 53.0554 446.911 55.2926V57.4588H423.208V52.4162H438.833C438.821 51.4929 438.602 50.6702 438.176 49.9482C437.749 49.2261 437.164 48.6638 436.418 48.2614C435.684 47.8471 434.838 47.6399 433.879 47.6399C432.908 47.6399 432.038 47.8589 431.269 48.2969C430.499 48.723 429.89 49.3089 429.44 50.0547C428.99 50.7886 428.753 51.6231 428.73 52.5582V57.6896C428.73 58.8023 428.949 59.7789 429.387 60.6193C429.825 61.4479 430.446 62.093 431.251 62.5547C432.056 63.0163 433.015 63.2472 434.127 63.2472C434.897 63.2472 435.595 63.1406 436.222 62.9276C436.85 62.7145 437.388 62.4008 437.838 61.9865C438.288 61.5722 438.625 61.0632 438.85 60.4595L446.823 60.6903C446.491 62.4777 445.763 64.0343 444.639 65.3601C443.526 66.674 442.064 67.6979 440.253 68.4318C438.442 69.1539 436.347 69.5149 433.968 69.5149Z"
		fill="#F3F3F3" />
	<rect x="3.5" y="3.5" width="481" height="94" rx="47" stroke="url(#paint1_linear_11_351)"
		stroke-width="7" />
	<defs>
		<linearGradient id="paint0_linear_11_351" x1="290.864" y1="20.045" x2="365.853" y2="152.206"
			gradientUnits="userSpaceOnUse">
			<stop stop-color="#2A88F7" />
			<stop offset="0.442708" stop-color="#5DB0CD" />
			<stop offset="1" stop-color="#6E98EB" />
		</linearGradient>
		<linearGradient id="paint1_linear_11_351" x1="59.2571" y1="12.5253" x2="120.674"
			y2="211.408" gradientUnits="userSpaceOnUse">
			<stop stop-color="#2A88F7" />
			<stop offset="0.442708" stop-color="#5DB0CD" />
			<stop offset="1" stop-color="#6E98EB" />
		</linearGradient>
	</defs>
</svg>