<svg width="459" height="101" viewBox="0 0 459 101" fill="none" xmlns="http://www.w3.org/2000/svg">
<path d="M39.1605 69V32.6364H53.5071C56.2652 32.6364 58.6148 33.1631 60.5561 34.2166C62.4974 35.2583 63.977 36.7083 64.995 38.5668C66.0249 40.4134 66.5398 42.544 66.5398 44.9588C66.5398 47.3736 66.0189 49.5043 64.9773 51.3509C63.9356 53.1974 62.4264 54.6357 60.4496 55.6655C58.4846 56.6953 56.1054 57.2102 53.3118 57.2102H44.1676V51.049H52.0689C53.5485 51.049 54.7678 50.7945 55.7266 50.2855C56.6972 49.7647 57.4193 49.0485 57.8928 48.1371C58.3781 47.2138 58.6207 46.1544 58.6207 44.9588C58.6207 43.7514 58.3781 42.6979 57.8928 41.7983C57.4193 40.8868 56.6972 40.1825 55.7266 39.6854C54.7559 39.1764 53.5249 38.9219 52.0334 38.9219H46.8487V69H39.1605ZM71.3915 69V41.7273H78.7246V46.4858H79.0087C79.5059 44.7931 80.3404 43.5147 81.5123 42.6506C82.6841 41.7746 84.0336 41.3366 85.5605 41.3366C85.9393 41.3366 86.3477 41.3603 86.7857 41.4077C87.2237 41.455 87.6084 41.5201 87.9398 41.603V48.3146C87.5847 48.2081 87.0935 48.1134 86.4661 48.0305C85.8387 47.9477 85.2646 47.9062 84.7438 47.9062C83.6311 47.9062 82.6368 48.1489 81.7608 48.6342C80.8967 49.1077 80.2102 49.7706 79.7012 50.6229C79.204 51.4751 78.9554 52.4576 78.9554 53.5703V69H71.3915ZM103.01 69.5327C100.205 69.5327 97.7898 68.9645 95.7656 67.8281C93.7533 66.6799 92.2027 65.0582 91.1136 62.9631C90.0246 60.8561 89.4801 58.3643 89.4801 55.4879C89.4801 52.6825 90.0246 50.2204 91.1136 48.1016C92.2027 45.9827 93.7356 44.3314 95.7124 43.1477C97.701 41.964 100.033 41.3722 102.708 41.3722C104.507 41.3722 106.182 41.6622 107.733 42.2422C109.295 42.8104 110.657 43.6686 111.817 44.8168C112.989 45.965 113.9 47.4091 114.551 49.1491C115.202 50.8774 115.528 52.9015 115.528 55.2216V57.299H92.4986V52.6115H108.408C108.408 51.5225 108.171 50.5578 107.697 49.7173C107.224 48.8769 106.567 48.2199 105.727 47.7464C104.898 47.2611 103.933 47.0185 102.832 47.0185C101.684 47.0185 100.666 47.2848 99.7784 47.8175C98.9025 48.3383 98.2159 49.0426 97.7188 49.9304C97.2216 50.8063 96.9671 51.7829 96.9553 52.8601V57.3168C96.9553 58.6662 97.2038 59.8321 97.701 60.8146C98.21 61.7971 98.9261 62.5547 99.8494 63.0874C100.773 63.62 101.868 63.8864 103.134 63.8864C103.975 63.8864 104.744 63.768 105.442 63.5312C106.141 63.2945 106.739 62.9394 107.236 62.4659C107.733 61.9924 108.112 61.4124 108.372 60.7259L115.368 61.1875C115.013 62.8684 114.285 64.3362 113.184 65.5909C112.095 66.8338 110.686 67.8045 108.958 68.5028C107.242 69.1894 105.259 69.5327 103.01 69.5327ZM120.464 69V41.7273H127.673V46.5391H127.992C128.56 44.9411 129.507 43.6804 130.833 42.7571C132.159 41.8338 133.745 41.3722 135.592 41.3722C137.462 41.3722 139.054 41.8397 140.368 42.7749C141.682 43.6982 142.558 44.9529 142.996 46.5391H143.28C143.836 44.9766 144.842 43.7277 146.298 42.7926C147.766 41.8456 149.5 41.3722 151.501 41.3722C154.046 41.3722 156.111 42.183 157.697 43.8047C159.295 45.4145 160.094 47.6991 160.094 50.6584V69H152.548V52.1499C152.548 50.6347 152.146 49.4983 151.341 48.7408C150.536 47.9832 149.53 47.6044 148.322 47.6044C146.949 47.6044 145.878 48.0424 145.109 48.9183C144.339 49.7824 143.955 50.9247 143.955 52.3452V69H136.621V51.9901C136.621 50.6525 136.237 49.5871 135.467 48.794C134.71 48.0009 133.71 47.6044 132.467 47.6044C131.626 47.6044 130.869 47.8175 130.194 48.2436C129.531 48.6579 129.004 49.2438 128.614 50.0014C128.223 50.7472 128.028 51.6231 128.028 52.6293V69H120.464ZM166.069 69V41.7273H173.633V69H166.069ZM169.869 38.2116C168.744 38.2116 167.78 37.8388 166.975 37.093C166.182 36.3355 165.785 35.4299 165.785 34.3764C165.785 33.3348 166.182 32.4411 166.975 31.6953C167.78 30.9377 168.744 30.5589 169.869 30.5589C170.993 30.5589 171.952 30.9377 172.745 31.6953C173.55 32.4411 173.953 33.3348 173.953 34.3764C173.953 35.4299 173.55 36.3355 172.745 37.093C171.952 37.8388 170.993 38.2116 169.869 38.2116ZM192.121 69.5327C189.316 69.5327 186.901 68.9645 184.877 67.8281C182.865 66.6799 181.314 65.0582 180.225 62.9631C179.136 60.8561 178.591 58.3643 178.591 55.4879C178.591 52.6825 179.136 50.2204 180.225 48.1016C181.314 45.9827 182.847 44.3314 184.824 43.1477C186.812 41.964 189.144 41.3722 191.819 41.3722C193.619 41.3722 195.294 41.6622 196.844 42.2422C198.407 42.8104 199.768 43.6686 200.928 44.8168C202.1 45.965 203.011 47.4091 203.662 49.1491C204.314 50.8774 204.639 52.9015 204.639 55.2216V57.299H181.61V52.6115H197.519C197.519 51.5225 197.282 50.5578 196.809 49.7173C196.335 48.8769 195.678 48.2199 194.838 47.7464C194.009 47.2611 193.045 47.0185 191.944 47.0185C190.796 47.0185 189.778 47.2848 188.89 47.8175C188.014 48.3383 187.327 49.0426 186.83 49.9304C186.333 50.8063 186.078 51.7829 186.067 52.8601V57.3168C186.067 58.6662 186.315 59.8321 186.812 60.8146C187.321 61.7971 188.037 62.5547 188.961 63.0874C189.884 63.62 190.979 63.8864 192.246 63.8864C193.086 63.8864 193.855 63.768 194.554 63.5312C195.252 63.2945 195.85 62.9394 196.347 62.4659C196.844 61.9924 197.223 61.4124 197.483 60.7259L204.479 61.1875C204.124 62.8684 203.396 64.3362 202.295 65.5909C201.206 66.8338 199.798 67.8045 198.069 68.5028C196.353 69.1894 194.37 69.5327 192.121 69.5327ZM209.575 69V41.7273H216.908V46.4858H217.192C217.689 44.7931 218.524 43.5147 219.696 42.6506C220.868 41.7746 222.217 41.3366 223.744 41.3366C224.123 41.3366 224.531 41.3603 224.969 41.4077C225.407 41.455 225.792 41.5201 226.123 41.603V48.3146C225.768 48.2081 225.277 48.1134 224.65 48.0305C224.022 47.9477 223.448 47.9062 222.927 47.9062C221.815 47.9062 220.82 48.1489 219.944 48.6342C219.08 49.1077 218.394 49.7706 217.885 50.6229C217.388 51.4751 217.139 52.4576 217.139 53.5703V69H209.575Z" fill="white"/>
<rect x="236" y="10" width="213" height="81" rx="40.5" fill="url(#paint0_linear_11_351)"/>
<path d="M267.06 63.3182V55.6477L281.69 32.6364H288.651V42.8636H284.673L276.79 55.3636V55.6477H298.381V63.3182H267.06ZM284.744 69V60.9744L284.957 57.6364V32.6364H294.19V69H284.744Z" fill="#F3F3F3"/>
<path d="M313.752 69V32.6364H338.575V39.7741H322.541V47.2315H336.994V54.3871H322.541V69H313.752ZM342.463 69V41.7273H350.897V46.6989H351.181C351.678 44.8996 352.489 43.562 353.614 42.6861C354.738 41.7983 356.046 41.3544 357.538 41.3544C357.94 41.3544 358.354 41.384 358.781 41.4432C359.207 41.4905 359.603 41.5675 359.97 41.674V49.2202C359.556 49.0781 359.011 48.9657 358.337 48.8828C357.674 48.8 357.082 48.7585 356.561 48.7585C355.531 48.7585 354.602 48.9893 353.773 49.451C352.957 49.9008 352.312 50.5341 351.838 51.3509C351.376 52.1558 351.146 53.1027 351.146 54.1918V69H342.463ZM374.841 69.5149C371.988 69.5149 369.526 68.9527 367.454 67.8281C365.395 66.6918 363.808 65.076 362.696 62.9808C361.595 60.8738 361.044 58.3703 361.044 55.4702C361.044 52.6529 361.601 50.1908 362.713 48.0838C363.826 45.965 365.395 44.3196 367.419 43.1477C369.443 41.964 371.828 41.3722 374.574 41.3722C376.516 41.3722 378.291 41.674 379.901 42.2777C381.511 42.8814 382.902 43.7751 384.074 44.9588C385.245 46.1425 386.157 47.6044 386.808 49.3445C387.459 51.0727 387.784 53.0554 387.784 55.2926V57.4588H364.081V52.4162H379.706C379.694 51.4929 379.475 50.6702 379.049 49.9482C378.623 49.2261 378.037 48.6638 377.291 48.2614C376.557 47.8471 375.711 47.6399 374.752 47.6399C373.781 47.6399 372.911 47.8589 372.142 48.2969C371.372 48.723 370.763 49.3089 370.313 50.0547C369.863 50.7886 369.626 51.6231 369.603 52.5582V57.6896C369.603 58.8023 369.822 59.7789 370.26 60.6193C370.698 61.4479 371.319 62.093 372.124 62.5547C372.929 63.0163 373.888 63.2472 375 63.2472C375.77 63.2472 376.468 63.1406 377.096 62.9276C377.723 62.7145 378.261 62.4008 378.711 61.9865C379.161 61.5722 379.498 61.0632 379.723 60.4595L387.696 60.6903C387.364 62.4777 386.636 64.0343 385.512 65.3601C384.399 66.674 382.937 67.6979 381.126 68.4318C379.315 69.1539 377.22 69.5149 374.841 69.5149ZM404.968 69.5149C402.115 69.5149 399.653 68.9527 397.581 67.8281C395.521 66.6918 393.935 65.076 392.823 62.9808C391.722 60.8738 391.171 58.3703 391.171 55.4702C391.171 52.6529 391.728 50.1908 392.84 48.0838C393.953 45.965 395.521 44.3196 397.546 43.1477C399.57 41.964 401.955 41.3722 404.701 41.3722C406.642 41.3722 408.418 41.674 410.028 42.2777C411.638 42.8814 413.029 43.7751 414.2 44.9588C415.372 46.1425 416.284 47.6044 416.935 49.3445C417.586 51.0727 417.911 53.0554 417.911 55.2926V57.4588H394.208V52.4162H409.833C409.821 51.4929 409.602 50.6702 409.176 49.9482C408.749 49.2261 408.164 48.6638 407.418 48.2614C406.684 47.8471 405.838 47.6399 404.879 47.6399C403.908 47.6399 403.038 47.8589 402.269 48.2969C401.499 48.723 400.89 49.3089 400.44 50.0547C399.99 50.7886 399.753 51.6231 399.73 52.5582V57.6896C399.73 58.8023 399.949 59.7789 400.387 60.6193C400.825 61.4479 401.446 62.093 402.251 62.5547C403.056 63.0163 404.015 63.2472 405.127 63.2472C405.897 63.2472 406.595 63.1406 407.222 62.9276C407.85 62.7145 408.388 62.4008 408.838 61.9865C409.288 61.5722 409.625 61.0632 409.85 60.4595L417.823 60.6903C417.491 62.4777 416.763 64.0343 415.639 65.3601C414.526 66.674 413.064 67.6979 411.253 68.4318C409.442 69.1539 407.347 69.5149 404.968 69.5149Z" fill="#F3F3F3"/>
<rect x="3.5" y="3.5" width="452" height="94" rx="47" stroke="url(#paint1_linear_11_351)" stroke-width="7"/>
<defs>
<linearGradient id="paint0_linear_11_351" x1="261.864" y1="20.045" x2="336.853" y2="152.206" gradientUnits="userSpaceOnUse">
<stop stop-color="#2A88F7"/>
<stop offset="0.442708" stop-color="#5DB0CD"/>
<stop offset="1" stop-color="#6E98EB"/>
</linearGradient>
<linearGradient id="paint1_linear_11_351" x1="55.7357" y1="12.5253" x2="120.3" y2="209.176" gradientUnits="userSpaceOnUse">
<stop stop-color="#2A88F7"/>
<stop offset="0.442708" stop-color="#5DB0CD"/>
<stop offset="1" stop-color="#6E98EB"/>
</linearGradient>
</defs>
</svg>
