<svg width="21" height="17" viewBox="0 0 21 17" fill="none" xmlns="http://www.w3.org/2000/svg">
<path d="M20.883 2.18034C20.1196 2.51803 19.31 2.73981 18.481 2.83834C19.3548 2.31577 20.0087 1.49335 20.321 0.524341C19.501 1.01234 18.602 1.35434 17.665 1.53934C17.0356 0.86592 16.2014 0.419304 15.292 0.268925C14.3826 0.118547 13.4489 0.272832 12.6363 0.707794C11.8236 1.14276 11.1774 1.83402 10.7981 2.67413C10.4188 3.51424 10.3277 4.45612 10.539 5.35334C8.87611 5.26999 7.24933 4.83786 5.76429 4.085C4.27924 3.33215 2.96913 2.27539 1.919 0.983341C1.54729 1.62179 1.35196 2.34757 1.353 3.08634C1.353 4.53634 2.091 5.81734 3.213 6.56734C2.54901 6.54644 1.89963 6.36712 1.319 6.04434V6.09634C1.3192 7.06204 1.65337 7.99796 2.26485 8.7454C2.87633 9.49284 3.72748 10.0058 4.674 10.1973C4.05761 10.3644 3.41131 10.389 2.784 10.2693C3.05087 11.1006 3.57101 11.8275 4.27159 12.3485C4.97218 12.8694 5.81813 13.1581 6.691 13.1743C5.82348 13.8557 4.83018 14.3593 3.76788 14.6565C2.70558 14.9537 1.59513 15.0386 0.5 14.9063C2.4117 16.1358 4.6371 16.7885 6.91 16.7863C14.603 16.7863 18.81 10.4133 18.81 4.88634C18.81 4.70634 18.805 4.52434 18.797 4.34634C19.6159 3.75451 20.3226 3.02136 20.884 2.18134L20.883 2.18034Z" fill="white"/>
</svg>
