<svg width="24" height="39" viewBox="0 0 24 39" fill="none" xmlns="http://www.w3.org/2000/svg">
<path d="M0.91018 0C0.383234 0 0 0.383234 0 0.91018V37.4611C0 37.988 0.383234 38.3713 0.91018 38.3713H23.0898C23.6168 38.3713 24 37.988 24 37.4611V0.91018C24 0.383234 23.6168 0 23.0898 0L0.91018 0ZM4.79042 5.79042C4.79042 5.23813 5.23813 4.79042 5.79042 4.79042H18.1617C18.714 4.79042 19.1617 5.23813 19.1617 5.79042V27.7425C19.1617 28.2948 18.714 28.7425 18.1617 28.7425H5.79042C5.23814 28.7425 4.79042 28.2948 4.79042 27.7425V5.79042ZM11.976 31.1377C13.3174 31.1377 14.3713 32.1916 14.3713 33.5329C14.3713 34.8743 13.3174 35.9281 11.976 35.9281C10.6347 35.9281 9.58084 34.8743 9.58084 33.5329C9.58084 32.1916 10.6347 31.1377 11.976 31.1377Z" fill="#667B8B"/>
</svg>
