<svg width="45" height="34" viewBox="0 0 45 34" fill="none" xmlns="http://www.w3.org/2000/svg">
<path d="M2.66668 0C1.56212 0 0.666687 0.895431 0.666687 2V4.27685C0.666687 5.03439 1.09469 5.72692 1.77226 6.0657L21.8239 16.0915C22.387 16.3731 23.0497 16.3731 23.6128 16.0915L43.6645 6.0657C44.342 5.72692 44.77 5.03439 44.77 4.27685V2C44.77 0.895433 43.8746 0 42.77 0H2.66668ZM3.56111 12.473C2.23131 11.8081 0.666687 12.7751 0.666687 14.2619V31.0775C0.666687 32.1821 1.56212 33.0775 2.66669 33.0775H42.77C43.8746 33.0775 44.77 32.1821 44.77 31.0775V14.2619C44.77 12.7751 43.2054 11.8081 41.8756 12.473L23.6128 21.6045C23.0497 21.886 22.387 21.886 21.8239 21.6045L3.56111 12.473Z" fill="#667B8B"/>
</svg>
