<svg width="377" height="377" viewBox="0 0 377 377" fill="none" xmlns="http://www.w3.org/2000/svg">
<g filter="url(#filter0_i_213_532)">
<path d="M0 376.5C4.32242e-06 327.057 9.73848 278.099 28.6594 232.42C47.5803 186.74 75.3131 145.235 110.274 110.274C145.236 75.3129 186.741 47.5801 232.42 28.6592C278.099 9.73838 327.058 -4.77417e-05 376.5 1.75479e-10L376.5 150.6C346.835 150.6 317.459 156.443 290.052 167.796C262.644 179.148 237.741 195.788 216.765 216.764C195.788 237.741 179.148 262.644 167.796 290.052C156.443 317.459 150.6 346.834 150.6 376.5L0 376.5Z" fill="#5DB0CD"/>
</g>
<defs>
<filter id="filter0_i_213_532" x="0" y="0" width="376.5" height="380.5" filterUnits="userSpaceOnUse" color-interpolation-filters="sRGB">
<feFlood flood-opacity="0" result="BackgroundImageFix"/>
<feBlend mode="normal" in="SourceGraphic" in2="BackgroundImageFix" result="shape"/>
<feColorMatrix in="SourceAlpha" type="matrix" values="0 0 0 0 0 0 0 0 0 0 0 0 0 0 0 0 0 0 127 0" result="hardAlpha"/>
<feOffset dy="4"/>
<feGaussianBlur stdDeviation="28.5"/>
<feComposite in2="hardAlpha" operator="arithmetic" k2="-1" k3="1"/>
<feColorMatrix type="matrix" values="0 0 0 0 0 0 0 0 0 0 0 0 0 0 0 0 0 0 0.25 0"/>
<feBlend mode="normal" in2="shape" result="effect1_innerShadow_213_532"/>
</filter>
</defs>
</svg>
