<svg width="236" height="253" viewBox="0 0 236 253" fill="none" xmlns="http://www.w3.org/2000/svg">
<path d="M156.5 131.313C156.5 130.675 156.247 130.061 155.795 129.611L155.09 128.906L155.795 128.201C156.247 127.751 156.5 127.138 156.5 126.5V117.871L184.67 89.7013L181.268 86.2988L166.125 101.441L143.059 78.375L158.201 63.2325L154.799 59.8301L126.629 88H118C117.362 88 116.749 88.2527 116.299 88.7051L115.594 89.4101L114.889 88.7051L113.977 87.7931L105.264 79.0801C104.814 78.6277 104.2 78.375 103.563 78.375H99.7462L81.2013 59.8301L77.7988 63.2325L83.3164 68.75L60.25 91.8164L54.7325 86.2988L51.3301 89.7013L69.875 108.246V121.688C69.875 122.325 70.1277 122.939 70.5801 123.389L77.0938 129.902V137.535L51.3301 163.299L54.7325 166.701L67.4688 153.965L90.5351 177.031L77.7988 189.768L81.2013 193.17L106.965 167.406H115.594C116.231 167.406 116.845 167.154 117.295 166.701L118.996 165H126.629L154.799 193.17L158.201 189.768L143.059 174.625L166.125 151.559L181.268 166.701L184.67 163.299L156.5 135.129V131.313ZM139.656 81.7775L162.723 104.844L154.094 113.473L131.027 90.4063L139.656 81.7775ZM126.629 92.8125L151.688 117.871V125.504L118.996 92.8125H126.629ZM151.688 132.309V135.129L126.629 160.188H118.996L105.969 147.16V144.34L109.08 147.451L112.483 144.049L85.1018 116.668C84.5941 116.158 84.3125 115.482 84.3125 114.76C84.3125 113.273 85.5229 112.063 87.01 112.063C87.7318 112.063 88.408 112.344 88.9181 112.852L106.674 130.608L110.076 127.205L92.3205 109.449C91.8128 108.939 91.5313 108.263 91.5313 107.541C91.5313 106.054 92.7416 104.844 94.2287 104.844C94.9506 104.844 95.6267 105.125 96.1369 105.633L113.893 123.389L117.295 119.986L99.5393 102.231C99.0316 101.72 98.75 101.044 98.75 100.322C98.75 98.8354 99.9604 97.625 101.447 97.625C102.169 97.625 102.845 97.9066 103.356 98.4143L121.111 116.17L124.514 112.768L106.758 95.0119C106.25 94.5017 105.969 93.8256 105.969 93.1037C105.969 91.6166 107.179 90.4063 108.666 90.4063C109.388 90.4063 110.064 90.6878 110.574 91.1955L111.486 92.1075L151.688 132.309ZM86.7188 72.1525L95.3476 80.7813L72.2813 103.848L63.6525 95.2188L86.7188 72.1525ZM74.6875 108.246L99.7462 83.1875H102.566L105.627 86.2483C103.076 87.384 101.286 89.8962 101.183 92.839C97.2558 92.9786 94.1036 96.1308 93.964 100.058C90.037 100.197 86.8848 103.35 86.7453 107.277C82.7292 107.418 79.5 110.71 79.5 114.76C79.5 116.767 80.2821 118.653 81.6994 120.071L83.3164 121.688L79.5 125.504L74.6875 120.691V108.246ZM93.9375 173.629L70.8712 150.563L79.5 141.934L102.566 165L93.9375 173.629ZM106.965 162.594L81.9063 137.535V129.902L86.7188 125.09L101.156 139.527V148.156C101.156 148.794 101.409 149.408 101.861 149.858L114.598 162.594H106.965ZM139.656 171.223L131.027 162.594L154.094 139.527L162.723 148.156L139.656 171.223Z" fill="white"/>
<path d="M152.391 146.455L147.579 151.267L150.982 154.67L155.794 149.858L152.391 146.455Z" fill="white"/>
<path d="M90.8258 158.486L87.4229 161.889L92.2346 166.7L95.6375 163.297L90.8258 158.486Z" fill="white"/>
<path d="M85.0166 79.0799L80.2048 83.8916L83.6078 87.2945L88.4195 82.4828L85.0166 79.0799Z" fill="white"/>
<path d="M141.357 88.7055L137.954 92.1084L142.766 96.9201L146.169 93.5172L141.357 88.7055Z" fill="white"/>
</svg>
