<svg width="21" height="21" viewBox="0 0 21 21" fill="none" xmlns="http://www.w3.org/2000/svg">
<path d="M10.5 7.5C9.70435 7.5 8.94129 7.81607 8.37868 8.37868C7.81607 8.94129 7.5 9.70435 7.5 10.5C7.5 11.2956 7.81607 12.0587 8.37868 12.6213C8.94129 13.1839 9.70435 13.5 10.5 13.5C11.2956 13.5 12.0587 13.1839 12.6213 12.6213C13.1839 12.0587 13.5 11.2956 13.5 10.5C13.5 9.70435 13.1839 8.94129 12.6213 8.37868C12.0587 7.81607 11.2956 7.5 10.5 7.5ZM10.5 5.5C11.8261 5.5 13.0979 6.02678 14.0355 6.96447C14.9732 7.90215 15.5 9.17392 15.5 10.5C15.5 11.8261 14.9732 13.0979 14.0355 14.0355C13.0979 14.9732 11.8261 15.5 10.5 15.5C9.17392 15.5 7.90215 14.9732 6.96447 14.0355C6.02678 13.0979 5.5 11.8261 5.5 10.5C5.5 9.17392 6.02678 7.90215 6.96447 6.96447C7.90215 6.02678 9.17392 5.5 10.5 5.5ZM17 5.25C17 5.58152 16.8683 5.89946 16.6339 6.13388C16.3995 6.3683 16.0815 6.5 15.75 6.5C15.4185 6.5 15.1005 6.3683 14.8661 6.13388C14.6317 5.89946 14.5 5.58152 14.5 5.25C14.5 4.91848 14.6317 4.60054 14.8661 4.36612C15.1005 4.1317 15.4185 4 15.75 4C16.0815 4 16.3995 4.1317 16.6339 4.36612C16.8683 4.60054 17 4.91848 17 5.25ZM10.5 2.5C8.026 2.5 7.622 2.507 6.471 2.558C5.687 2.595 5.161 2.7 4.673 2.89C4.239 3.058 3.926 3.259 3.593 3.593C3.28001 3.8954 3.03935 4.26458 2.889 4.673C2.699 5.163 2.594 5.688 2.558 6.471C2.506 7.575 2.5 7.961 2.5 10.5C2.5 12.974 2.507 13.378 2.558 14.529C2.595 15.312 2.7 15.839 2.889 16.326C3.059 16.761 3.259 17.074 3.591 17.406C3.928 17.742 4.241 17.943 4.671 18.109C5.165 18.3 5.691 18.406 6.471 18.442C7.575 18.494 7.961 18.5 10.5 18.5C12.974 18.5 13.378 18.493 14.529 18.442C15.311 18.405 15.838 18.3 16.326 18.111C16.759 17.942 17.074 17.741 17.406 17.409C17.743 17.072 17.944 16.759 18.11 16.329C18.3 15.836 18.406 15.309 18.442 14.529C18.494 13.425 18.5 13.039 18.5 10.5C18.5 8.026 18.493 7.622 18.442 6.471C18.405 5.689 18.3 5.161 18.11 4.673C17.9593 4.265 17.7191 3.89596 17.407 3.593C17.1047 3.27985 16.7355 3.03917 16.327 2.889C15.837 2.699 15.311 2.594 14.529 2.558C13.425 2.506 13.039 2.5 10.5 2.5ZM10.5 0.5C13.217 0.5 13.556 0.51 14.622 0.56C15.687 0.61 16.412 0.777 17.05 1.025C17.71 1.279 18.266 1.623 18.822 2.178C19.3305 2.6779 19.724 3.28259 19.975 3.95C20.222 4.587 20.39 5.313 20.44 6.378C20.487 7.444 20.5 7.783 20.5 10.5C20.5 13.217 20.49 13.556 20.44 14.622C20.39 15.687 20.222 16.412 19.975 17.05C19.7247 17.7178 19.3311 18.3226 18.822 18.822C18.322 19.3303 17.7173 19.7238 17.05 19.975C16.413 20.222 15.687 20.39 14.622 20.44C13.556 20.487 13.217 20.5 10.5 20.5C7.783 20.5 7.444 20.49 6.378 20.44C5.313 20.39 4.588 20.222 3.95 19.975C3.28233 19.7245 2.67753 19.3309 2.178 18.822C1.66941 18.3222 1.27593 17.7175 1.025 17.05C0.777 16.413 0.61 15.687 0.56 14.622C0.513 13.556 0.5 13.217 0.5 10.5C0.5 7.783 0.51 7.444 0.56 6.378C0.61 5.312 0.777 4.588 1.025 3.95C1.27524 3.28218 1.6688 2.67732 2.178 2.178C2.67767 1.66923 3.28243 1.27573 3.95 1.025C4.588 0.777 5.312 0.61 6.378 0.56C7.444 0.513 7.783 0.5 10.5 0.5Z" fill="white"/>
</svg>
