<svg width="209" height="210" viewBox="0 0 209 210" fill="none" xmlns="http://www.w3.org/2000/svg">
<path d="M134.691 160.166C133.842 160.986 132.972 161.78 132.07 162.541C131.79 162.719 131.57 162.976 131.436 163.279C131.302 163.583 131.261 163.919 131.318 164.246C131.36 164.528 131.409 164.81 131.457 165.091C131.486 165.263 131.516 165.434 131.543 165.606C131.828 167.344 132.101 169.084 132.364 170.825C132.752 173.407 133.122 175.993 133.491 178.579C133.537 178.903 133.584 179.228 133.63 179.552C131.188 178.32 128.752 177.077 126.328 175.809C124.893 175.058 123.463 174.299 122.037 173.531C121.352 173.162 120.668 172.791 119.985 172.418C119.79 172.311 119.582 172.181 119.366 172.047C118.788 171.686 118.154 171.291 117.564 171.21C116.942 171.127 116.166 171.442 115.47 171.724C115.192 171.836 114.927 171.944 114.69 172.019C113.696 172.332 112.693 172.618 111.681 172.876C109.911 173.331 108.124 173.706 106.318 174.001C102.47 174.615 98.5762 174.9 94.6795 174.853C80.2642 174.745 65.4414 171.108 53.7267 162.436C44.3124 155.339 37.5892 145.253 34.6595 133.833C33.0492 127.57 32.3381 121.111 32.5476 114.648C32.6504 107.867 33.7511 101.138 35.8141 94.6774C39.8459 82.3838 47.8007 71.7529 58.4574 64.4166C59.7527 63.537 61.081 62.71 62.4426 61.9355C64.0289 61.0287 62.5995 58.5738 61.0088 59.4828C50.5203 65.5036 42.0401 74.4837 36.6293 85.2996C30.9846 96.6089 28.9708 109.468 29.8719 122.024C30.6878 133.396 34.21 144.642 41.1122 153.817C48.3135 163.391 58.5149 170.082 69.8455 173.792C76.7141 175.983 83.8416 177.258 91.0437 177.584C98.2336 178.014 105.447 177.351 112.438 175.617C114.063 175.2 115.666 174.714 117.247 174.157C123 177.312 128.828 180.321 134.693 183.263C134.938 183.395 135.216 183.453 135.493 183.431C135.77 183.408 136.035 183.306 136.256 183.137C136.476 182.967 136.643 182.737 136.736 182.475C136.829 182.213 136.844 181.929 136.779 181.658C136.617 180.536 136.456 179.414 136.295 178.292C135.632 173.668 134.969 169.044 134.213 164.435C135.064 163.707 135.893 162.954 136.698 162.176C138.015 160.903 136.006 158.896 134.69 160.167L134.691 160.166Z" fill="white"/>
<path d="M134.691 160.166C133.842 160.986 132.972 161.78 132.07 162.541C131.79 162.719 131.57 162.976 131.436 163.279C131.302 163.583 131.261 163.919 131.318 164.246C131.36 164.528 131.409 164.81 131.457 165.091C131.486 165.263 131.516 165.434 131.543 165.606C131.828 167.344 132.101 169.084 132.364 170.825C132.752 173.407 133.122 175.993 133.491 178.579C133.537 178.903 133.584 179.228 133.63 179.552C131.188 178.32 128.752 177.077 126.328 175.809C124.893 175.058 123.463 174.299 122.037 173.531C121.352 173.162 120.668 172.791 119.985 172.418C119.79 172.311 119.582 172.181 119.366 172.047C118.788 171.686 118.154 171.291 117.564 171.21C116.942 171.127 116.166 171.442 115.47 171.724C115.192 171.836 114.927 171.944 114.69 172.019C113.696 172.332 112.693 172.618 111.681 172.876C109.911 173.331 108.124 173.706 106.318 174.001C102.47 174.615 98.5762 174.9 94.6795 174.853C80.2642 174.745 65.4414 171.108 53.7267 162.436C44.3124 155.339 37.5892 145.253 34.6595 133.833C33.0492 127.57 32.3381 121.111 32.5476 114.648C32.6504 107.867 33.7511 101.138 35.8141 94.6774C39.8459 82.3838 47.8007 71.7529 58.4574 64.4166C59.7527 63.537 61.081 62.71 62.4426 61.9355C64.0289 61.0287 62.5995 58.5738 61.0088 59.4828C50.5203 65.5036 42.0401 74.4837 36.6293 85.2996C30.9846 96.6089 28.9708 109.468 29.8719 122.024C30.6878 133.396 34.21 144.642 41.1122 153.817C48.3135 163.391 58.5149 170.082 69.8455 173.792C76.7141 175.983 83.8416 177.258 91.0437 177.584C98.2336 178.014 105.447 177.351 112.438 175.617C114.063 175.2 115.666 174.714 117.247 174.157C123 177.312 128.828 180.321 134.693 183.263C134.938 183.395 135.216 183.453 135.493 183.431C135.77 183.408 136.035 183.306 136.256 183.137C136.476 182.967 136.643 182.737 136.736 182.475C136.829 182.213 136.844 181.929 136.779 181.658C136.617 180.536 136.456 179.414 136.295 178.292C135.632 173.668 134.969 169.044 134.213 164.435C135.064 163.707 135.893 162.954 136.698 162.176C138.015 160.903 136.006 158.896 134.69 160.167L134.691 160.166Z" stroke="white"/>
<path d="M125.783 63.9053C135.187 69.9399 142.658 78.5493 147.309 88.7089C147.501 89.0319 147.813 89.2663 148.176 89.3616C148.54 89.4569 148.926 89.4053 149.252 89.218C149.571 89.0221 149.802 88.7108 149.897 88.3489C149.992 87.987 149.943 87.6023 149.762 87.2751C144.87 76.6891 137.046 67.7278 127.216 61.454C125.671 60.467 124.245 62.9247 125.783 63.9068V63.9053Z" fill="white"/>
<path d="M125.783 63.9053C135.187 69.9399 142.658 78.5493 147.309 88.7089C147.501 89.0319 147.813 89.2663 148.176 89.3616C148.54 89.4569 148.926 89.4053 149.252 89.218C149.571 89.0221 149.802 88.7108 149.897 88.3489C149.992 87.987 149.943 87.6023 149.762 87.2751C144.87 76.6891 137.046 67.7278 127.216 61.454C125.671 60.467 124.245 62.9247 125.783 63.9068V63.9053Z" stroke="white"/>
<path d="M145.53 119.777C145.557 119.678 145.585 119.578 145.612 119.479C146.015 118 146.419 116.52 146.756 115.024C146.907 114.358 147.013 113.681 147.072 113C147.14 112.19 146.99 111.35 146.84 110.514C146.742 109.968 146.644 109.424 146.608 108.892C146.492 107.553 146.572 106.205 146.847 104.89C147.193 103.587 147.665 102.319 148.254 101.106C148.725 100.051 149.23 99.0113 149.753 97.9816C150.193 96.9474 150.715 95.9501 151.315 94.9992C151.323 94.9886 151.33 94.9779 151.338 94.9671C151.515 94.7266 151.722 94.445 151.995 94.5958C152.336 94.7838 152.277 95.3617 152.237 95.7501C152.229 95.8297 152.222 95.9013 152.219 95.96C152.144 97.5285 151.872 99.0813 151.408 100.581C151.053 101.723 152.151 102.474 153.155 102.328C156.264 101.877 159.315 100.449 162.165 99.115C162.384 99.0125 162.602 98.9106 162.819 98.8096C164.327 98.1066 165.818 97.3674 167.292 96.592C167.43 96.5192 167.573 96.4365 167.722 96.3509C168.375 95.9749 169.124 95.5437 169.849 95.6553C170.123 95.6774 170.389 95.763 170.625 95.9053C170.861 96.0476 171.061 96.2428 171.209 96.4755C171.404 96.7953 171.715 97.027 172.077 97.1221C172.44 97.2172 172.825 97.1682 173.151 96.9854C174.022 96.5834 175.845 96.408 175.669 97.8453C175.644 98.0484 175.578 98.2311 175.512 98.4125C175.417 98.6751 175.323 98.9347 175.358 99.2485C175.38 99.448 175.456 99.6285 175.533 99.809C175.599 99.9671 175.666 100.125 175.697 100.296C175.747 100.592 175.721 100.896 175.62 101.179C175.52 101.462 175.349 101.715 175.124 101.914C174.908 102.139 174.769 102.428 174.729 102.738C174.689 103.047 174.75 103.362 174.902 103.635C175.079 103.988 174.474 104.468 174.113 104.755C174.039 104.814 173.975 104.865 173.93 104.905C173.342 105.422 172.723 105.899 172.084 106.357C170.323 107.626 168.476 108.776 166.6 109.864C164.703 110.964 162.765 112 160.785 112.937C159.974 113.322 159.152 113.684 158.321 114.015C157.742 114.2 157.217 114.521 156.789 114.953C156.362 115.384 156.045 115.912 155.866 116.493C155.421 117.73 155.087 119.009 154.754 120.286C154.552 121.061 154.35 121.836 154.123 122.6C153.603 124.357 156.344 125.107 156.862 123.355C157.102 122.549 157.319 121.736 157.535 120.923C157.831 119.811 158.127 118.698 158.483 117.603C158.535 117.29 158.697 117.006 158.94 116.802C159.416 116.558 159.912 116.355 160.423 116.195C161.35 115.798 162.265 115.372 163.169 114.926C167.276 112.963 171.173 110.589 174.801 107.841C175.505 107.318 176.165 106.739 176.775 106.11C177.285 105.61 177.618 104.957 177.722 104.25C177.772 103.914 177.769 103.574 177.715 103.242C178.597 101.996 178.682 100.517 178.239 99.0336C178.673 97.366 178.479 95.5825 176.872 94.5596C175.589 93.7432 174.272 93.6896 172.955 94.0622C171.849 93.0181 170.004 92.6063 168.623 92.9193C167.53 93.2499 166.483 93.7201 165.51 94.3182C164.675 94.7542 163.833 95.1781 162.986 95.59C162.763 95.6985 162.538 95.8081 162.313 95.9184C159.893 97.1013 157.328 98.3556 154.697 99.0913C154.865 98.2013 154.978 97.3009 155.034 96.3953C155.132 94.9211 155.056 93.5711 153.909 92.4989C153.347 91.987 152.614 91.7026 151.854 91.7012C151.094 91.6997 150.361 91.9813 149.797 92.4911C148.979 93.1856 148.499 94.1513 148.028 95.1005C147.932 95.2945 147.836 95.4879 147.737 95.678C147.59 95.9638 147.441 96.2517 147.29 96.5414C146.061 98.9104 144.765 101.408 144.138 103.973C143.763 105.583 143.636 107.241 143.762 108.889C143.8 109.457 143.889 110.026 143.978 110.595C144.122 111.513 144.266 112.432 144.196 113.346C144.195 113.358 144.194 113.368 144.194 113.376C144.185 113.43 144.174 113.484 144.164 113.537C144.117 113.781 144.065 114.025 144.011 114.267C143.882 114.84 143.739 115.411 143.594 115.982C143.335 116.996 143.061 118.008 142.786 119.019C142.304 120.785 145.043 121.538 145.525 119.774L145.53 119.777Z" fill="white"/>
<path d="M145.53 119.777C145.557 119.678 145.585 119.578 145.612 119.479C146.015 118 146.419 116.52 146.756 115.024C146.907 114.358 147.013 113.681 147.072 113C147.14 112.19 146.99 111.35 146.84 110.514C146.742 109.968 146.644 109.424 146.608 108.892C146.492 107.553 146.572 106.205 146.847 104.89C147.193 103.587 147.665 102.319 148.254 101.106C148.725 100.051 149.23 99.0113 149.753 97.9816C150.193 96.9474 150.715 95.9501 151.315 94.9992C151.323 94.9886 151.33 94.9779 151.338 94.9671C151.515 94.7266 151.722 94.445 151.995 94.5958C152.336 94.7838 152.277 95.3617 152.237 95.7501C152.229 95.8297 152.222 95.9013 152.219 95.96C152.144 97.5285 151.872 99.0813 151.408 100.581C151.053 101.723 152.151 102.474 153.155 102.328C156.264 101.877 159.315 100.449 162.165 99.115C162.384 99.0125 162.602 98.9106 162.819 98.8096C164.327 98.1066 165.818 97.3674 167.292 96.592C167.43 96.5192 167.573 96.4365 167.722 96.3509C168.375 95.9749 169.124 95.5437 169.849 95.6553C170.123 95.6774 170.389 95.763 170.625 95.9053C170.861 96.0476 171.061 96.2428 171.209 96.4755C171.404 96.7953 171.715 97.027 172.077 97.1221C172.44 97.2172 172.825 97.1682 173.151 96.9854C174.022 96.5834 175.845 96.408 175.669 97.8453C175.644 98.0484 175.578 98.2311 175.512 98.4125C175.417 98.6751 175.323 98.9347 175.358 99.2485C175.38 99.448 175.456 99.6285 175.533 99.809C175.599 99.9671 175.666 100.125 175.697 100.296C175.747 100.592 175.721 100.896 175.62 101.179C175.52 101.462 175.349 101.715 175.124 101.914C174.908 102.139 174.769 102.428 174.729 102.738C174.689 103.047 174.75 103.362 174.902 103.635C175.079 103.988 174.474 104.468 174.113 104.755C174.039 104.814 173.975 104.865 173.93 104.905C173.342 105.422 172.723 105.899 172.084 106.357C170.323 107.626 168.476 108.776 166.6 109.864C164.703 110.964 162.765 112 160.785 112.937C159.974 113.322 159.152 113.684 158.321 114.015C157.742 114.2 157.217 114.521 156.789 114.953C156.362 115.384 156.045 115.912 155.866 116.493C155.421 117.73 155.087 119.009 154.754 120.286C154.552 121.061 154.35 121.836 154.123 122.6C153.603 124.357 156.344 125.107 156.862 123.355C157.102 122.549 157.319 121.736 157.535 120.923C157.831 119.811 158.127 118.698 158.483 117.603C158.535 117.29 158.697 117.006 158.94 116.802C159.416 116.558 159.912 116.355 160.423 116.195C161.35 115.798 162.265 115.372 163.169 114.926C167.276 112.963 171.173 110.589 174.801 107.841C175.505 107.318 176.165 106.739 176.775 106.11C177.285 105.61 177.618 104.957 177.722 104.25C177.772 103.914 177.769 103.574 177.715 103.242C178.597 101.996 178.682 100.517 178.239 99.0336C178.673 97.366 178.479 95.5825 176.872 94.5596C175.589 93.7432 174.272 93.6896 172.955 94.0622C171.849 93.0181 170.004 92.6063 168.623 92.9193C167.53 93.2499 166.483 93.7201 165.51 94.3182C164.675 94.7542 163.833 95.1781 162.986 95.59C162.763 95.6985 162.538 95.8081 162.313 95.9184C159.893 97.1013 157.328 98.3556 154.697 99.0913C154.865 98.2013 154.978 97.3009 155.034 96.3953C155.132 94.9211 155.056 93.5711 153.909 92.4989C153.347 91.987 152.614 91.7026 151.854 91.7012C151.094 91.6997 150.361 91.9813 149.797 92.4911C148.979 93.1856 148.499 94.1513 148.028 95.1005C147.932 95.2945 147.836 95.4879 147.737 95.678C147.59 95.9638 147.441 96.2517 147.29 96.5414C146.061 98.9104 144.765 101.408 144.138 103.973C143.763 105.583 143.636 107.241 143.762 108.889C143.8 109.457 143.889 110.026 143.978 110.595C144.122 111.513 144.266 112.432 144.196 113.346C144.195 113.358 144.194 113.368 144.194 113.376C144.185 113.43 144.174 113.484 144.164 113.537C144.117 113.781 144.065 114.025 144.011 114.267C143.882 114.84 143.739 115.411 143.594 115.982C143.335 116.996 143.061 118.008 142.786 119.019C142.304 120.785 145.043 121.538 145.525 119.774L145.53 119.777Z" stroke="white"/>
<path d="M82.5208 86.5974C82.5424 87.433 82.5213 88.2692 82.4576 89.1027C82.4562 89.1181 82.4521 89.1541 82.4478 89.1914C82.441 89.2503 82.4339 89.3124 82.4366 89.3012C82.4287 89.351 82.4205 89.4008 82.4115 89.4507C82.3774 89.6403 82.3355 89.8291 82.2844 90.0145C82.2697 90.068 82.253 90.1208 82.2363 90.1735C82.2215 90.22 82.2068 90.2665 82.1935 90.3134C82.1858 90.3399 82.18 90.3606 82.1757 90.3764C82.1354 90.4431 82.0802 90.5237 82.0492 90.569C82.0376 90.586 82.0294 90.598 82.0266 90.6025C82.0146 90.6215 82.0059 90.6359 81.9999 90.6464C81.9858 90.6604 81.9719 90.6737 81.9599 90.6852C81.9452 90.6993 81.9333 90.7107 81.9272 90.7175C81.82 90.8382 81.7078 90.954 81.5927 91.0669C81.3286 91.3261 81.0488 91.5703 80.7626 91.8061C80.676 91.8776 80.5886 91.9486 80.5006 92.0191C80.4943 92.0241 80.4788 92.0361 80.4599 92.0509C80.3889 92.1061 80.2693 92.1993 80.4033 92.0972C80.2307 92.2293 80.0568 92.3579 79.8814 92.4857C79.4986 92.7648 79.1095 93.0353 78.7175 93.3009C78.3924 93.4914 78.1563 93.8032 78.0612 94.1678C77.966 94.5323 78.0196 94.9198 78.2101 95.2448C78.4006 95.5699 78.7124 95.806 79.077 95.9011C79.4415 95.9963 79.829 95.9427 80.154 95.7522C80.2296 95.701 80.3055 95.6495 80.3818 95.5979C81.8611 94.5965 83.4577 93.5158 84.4822 92.0362C84.9446 91.2436 85.2123 90.3526 85.2633 89.4365C85.3588 88.4929 85.3923 87.544 85.3634 86.596C85.3634 86.2193 85.2138 85.8581 84.9474 85.5918C84.6811 85.3254 84.3199 85.1758 83.9432 85.1758C83.5665 85.1758 83.2053 85.3254 82.9389 85.5918C82.6726 85.8581 82.523 86.2193 82.523 86.596L82.5208 86.5974ZM82.2233 90.2673C82.2295 90.2739 82.2188 90.3002 82.1995 90.3353C82.212 90.3002 82.2233 90.2673 82.2233 90.2673ZM82.0862 90.5315C82.0862 90.5452 82.0724 90.5664 82.0528 90.5898C82.0714 90.5628 82.0867 90.5378 82.0862 90.5315Z" fill="white"/>
<path d="M82.5208 86.5974C82.5424 87.433 82.5213 88.2692 82.4576 89.1027C82.4562 89.1181 82.4521 89.1541 82.4478 89.1914C82.441 89.2503 82.4339 89.3124 82.4366 89.3012C82.4287 89.351 82.4205 89.4008 82.4115 89.4507C82.3774 89.6403 82.3355 89.8291 82.2844 90.0145C82.2697 90.068 82.253 90.1208 82.2363 90.1735C82.2215 90.22 82.2068 90.2665 82.1935 90.3134C82.1858 90.3399 82.18 90.3606 82.1757 90.3764C82.1354 90.4431 82.0802 90.5237 82.0492 90.569C82.0376 90.586 82.0294 90.598 82.0266 90.6025C82.0146 90.6215 82.0059 90.6359 81.9999 90.6464C81.9858 90.6604 81.9719 90.6737 81.9599 90.6852C81.9452 90.6993 81.9333 90.7107 81.9272 90.7175C81.82 90.8382 81.7078 90.954 81.5927 91.0669C81.3286 91.3261 81.0488 91.5703 80.7626 91.8061C80.676 91.8776 80.5886 91.9486 80.5006 92.0191C80.4943 92.0241 80.4788 92.0361 80.4599 92.0509C80.3889 92.1061 80.2693 92.1993 80.4033 92.0972C80.2307 92.2293 80.0568 92.3579 79.8814 92.4857C79.4986 92.7648 79.1095 93.0353 78.7175 93.3009C78.3924 93.4914 78.1563 93.8032 78.0612 94.1678C77.966 94.5323 78.0196 94.9198 78.2101 95.2448C78.4006 95.5699 78.7124 95.806 79.077 95.9011C79.4415 95.9963 79.829 95.9427 80.154 95.7522C80.2296 95.701 80.3055 95.6495 80.3818 95.5979C81.8611 94.5965 83.4577 93.5158 84.4822 92.0362C84.9446 91.2436 85.2123 90.3526 85.2633 89.4365C85.3588 88.4929 85.3923 87.544 85.3634 86.596C85.3634 86.2193 85.2138 85.8581 84.9474 85.5918C84.6811 85.3254 84.3199 85.1758 83.9432 85.1758C83.5665 85.1758 83.2053 85.3254 82.9389 85.5918C82.6726 85.8581 82.523 86.2193 82.523 86.596L82.5208 86.5974ZM82.2233 90.2673C82.2295 90.2739 82.2188 90.3002 82.1995 90.3353C82.212 90.3002 82.2233 90.2673 82.2233 90.2673ZM82.0862 90.5315C82.0862 90.5452 82.0724 90.5664 82.0528 90.5898C82.0714 90.5628 82.0867 90.5378 82.0862 90.5315Z" stroke="white"/>
<path d="M106.736 90.3059C106.719 90.2563 106.703 90.2091 106.7 90.2018C106.639 90.0034 106.588 89.8019 106.548 89.5982C106.536 89.5384 106.525 89.4785 106.515 89.4187C106.511 89.3948 106.507 89.3708 106.502 89.3468C106.499 89.3272 106.496 89.3098 106.493 89.2946C106.493 89.289 106.492 89.2828 106.492 89.2758C106.432 88.4123 106.407 87.558 106.413 86.6917C106.413 86.315 106.263 85.9538 105.997 85.6875C105.731 85.4211 105.369 85.2715 104.993 85.2715C104.616 85.2715 104.255 85.4211 103.989 85.6875C103.722 85.9538 103.573 86.315 103.573 86.6917L103.572 86.6889C103.544 87.6166 103.578 88.5451 103.674 89.4682C103.721 90.3914 104 91.2878 104.486 92.0744C105.585 93.5561 107.261 94.5979 108.813 95.5623C108.866 95.5949 108.918 95.6273 108.97 95.6597C109.296 95.8464 109.682 95.8977 110.046 95.8025C110.409 95.7072 110.72 95.4731 110.913 95.1506C111.095 94.8237 111.144 94.4388 111.049 94.0766C110.955 93.7145 110.723 93.4031 110.404 93.2077C109.628 92.7248 108.874 92.2135 108.131 91.6824C108.113 91.6695 108.098 91.659 108.086 91.6508C108.082 91.6466 108.074 91.6397 108.06 91.6291C108.035 91.6089 108.01 91.5887 107.984 91.5685C107.945 91.5371 107.905 91.5056 107.866 91.4736C107.715 91.3508 107.566 91.2251 107.421 91.0944C107.303 90.9886 107.188 90.8814 107.078 90.7663C107.051 90.7392 107.018 90.6951 106.981 90.647C106.926 90.574 106.864 90.4919 106.809 90.4465C106.802 90.4352 106.795 90.4239 106.788 90.4127M106.736 90.3059C106.709 90.2709 106.692 90.264 106.75 90.3538C106.752 90.3556 106.753 90.3575 106.754 90.3593M106.736 90.3059C106.759 90.3353 106.789 90.3845 106.788 90.4127M106.736 90.3059C106.742 90.324 106.748 90.3424 106.754 90.3593M106.754 90.3593C106.763 90.3873 106.771 90.4113 106.775 90.4231C106.778 90.4245 106.78 90.4259 106.783 90.4275C106.786 90.4238 106.788 90.4187 106.788 90.4127M106.754 90.3593C106.765 90.3766 106.777 90.3945 106.788 90.4127M106.776 90.424C106.777 90.4253 106.779 90.427 106.781 90.4288C106.78 90.4297 106.779 90.4305 106.778 90.4312C106.778 90.4312 106.777 90.4286 106.776 90.424ZM106.864 90.5443C106.873 90.5579 106.878 90.5674 106.878 90.5688C106.879 90.5701 106.875 90.5633 106.864 90.5443Z" fill="white"/>
<path d="M106.736 90.3059C106.719 90.2563 106.703 90.2091 106.7 90.2018C106.639 90.0034 106.588 89.8019 106.548 89.5982C106.536 89.5384 106.525 89.4785 106.515 89.4187C106.511 89.3948 106.507 89.3708 106.502 89.3468C106.499 89.3272 106.496 89.3098 106.493 89.2946C106.493 89.289 106.492 89.2828 106.492 89.2758C106.432 88.4123 106.407 87.558 106.413 86.6917C106.413 86.315 106.263 85.9538 105.997 85.6875C105.731 85.4211 105.369 85.2715 104.993 85.2715C104.616 85.2715 104.255 85.4211 103.989 85.6875C103.722 85.9538 103.573 86.315 103.573 86.6917L103.572 86.6889C103.544 87.6166 103.578 88.5451 103.674 89.4682C103.721 90.3914 104 91.2878 104.486 92.0744C105.585 93.5561 107.261 94.5979 108.813 95.5623C108.866 95.5949 108.918 95.6273 108.97 95.6597C109.296 95.8464 109.682 95.8977 110.046 95.8025C110.409 95.7072 110.72 95.4731 110.913 95.1506C111.095 94.8237 111.144 94.4388 111.049 94.0766C110.955 93.7145 110.723 93.4031 110.404 93.2077C109.628 92.7248 108.874 92.2135 108.131 91.6824C108.113 91.6695 108.098 91.659 108.086 91.6508C108.082 91.6466 108.074 91.6397 108.06 91.6291C108.035 91.6089 108.01 91.5887 107.984 91.5685C107.945 91.5371 107.905 91.5056 107.866 91.4736C107.715 91.3508 107.566 91.2251 107.421 91.0944C107.303 90.9886 107.188 90.8814 107.078 90.7663C107.051 90.7392 107.018 90.6951 106.981 90.647C106.926 90.574 106.864 90.4919 106.809 90.4465C106.802 90.4352 106.795 90.4239 106.788 90.4127M106.736 90.3059C106.709 90.2709 106.692 90.264 106.75 90.3538C106.752 90.3556 106.753 90.3575 106.754 90.3593M106.736 90.3059C106.759 90.3353 106.789 90.3845 106.788 90.4127M106.736 90.3059C106.742 90.324 106.748 90.3424 106.754 90.3593M106.754 90.3593C106.763 90.3873 106.771 90.4113 106.775 90.4231C106.778 90.4245 106.78 90.4259 106.783 90.4275C106.786 90.4238 106.788 90.4187 106.788 90.4127M106.754 90.3593C106.765 90.3766 106.777 90.3945 106.788 90.4127M106.776 90.424C106.777 90.4253 106.779 90.427 106.781 90.4288C106.78 90.4297 106.779 90.4305 106.778 90.4312C106.778 90.4312 106.777 90.4286 106.776 90.424ZM106.864 90.5443C106.873 90.5579 106.878 90.5674 106.878 90.5688C106.879 90.5701 106.875 90.5633 106.864 90.5443Z" stroke="white"/>
<path d="M140.756 125.746C139.738 123.028 138.927 120.228 138.116 117.427C137.04 113.709 135.963 109.99 134.402 106.465C132.997 103.293 130.409 101.267 127.347 99.8201C125.117 98.7658 122.847 97.7909 120.582 96.8178C120.312 96.7016 120.041 96.5854 119.771 96.4691C119.17 96.2107 118.568 95.9534 117.967 95.6961C115.703 94.7283 113.44 93.7603 111.206 92.7275C110.878 92.5481 110.494 92.5009 110.132 92.5957C109.771 92.6905 109.46 92.9201 109.262 93.2374C109.075 93.5633 109.024 93.9498 109.119 94.3133C109.215 94.6767 109.449 94.9882 109.772 95.1803C112.37 96.3823 115.001 97.5049 117.633 98.6277C119.976 99.6274 122.32 100.627 124.64 101.683C125.842 102.199 127.012 102.786 128.144 103.442C129.478 104.264 130.586 105.405 131.369 106.762C132.192 108.35 132.849 110.019 133.33 111.742C133.822 113.211 134.275 114.693 134.711 116.18C135.73 119.651 136.747 123.111 138.017 126.5C138.125 126.858 138.367 127.161 138.692 127.346C139.017 127.531 139.401 127.584 139.764 127.495C140.126 127.392 140.433 127.152 140.619 126.825C140.805 126.498 140.855 126.111 140.758 125.748L140.756 125.746Z" fill="white"/>
<path d="M140.756 125.746C139.738 123.028 138.927 120.228 138.116 117.427C137.04 113.709 135.963 109.99 134.402 106.465C132.997 103.293 130.409 101.267 127.347 99.8201C125.117 98.7658 122.847 97.7909 120.582 96.8178C120.312 96.7016 120.041 96.5854 119.771 96.4691C119.17 96.2107 118.568 95.9534 117.967 95.6961C115.703 94.7283 113.44 93.7603 111.206 92.7275C110.878 92.5481 110.494 92.5009 110.132 92.5957C109.771 92.6905 109.46 92.9201 109.262 93.2374C109.075 93.5633 109.024 93.9498 109.119 94.3133C109.215 94.6767 109.449 94.9882 109.772 95.1803C112.37 96.3823 115.001 97.5049 117.633 98.6277C119.976 99.6274 122.32 100.627 124.64 101.683C125.842 102.199 127.012 102.786 128.144 103.442C129.478 104.264 130.586 105.405 131.369 106.762C132.192 108.35 132.849 110.019 133.33 111.742C133.822 113.211 134.275 114.693 134.711 116.18C135.73 119.651 136.747 123.111 138.017 126.5C138.125 126.858 138.367 127.161 138.692 127.346C139.017 127.531 139.401 127.584 139.764 127.495C140.126 127.392 140.433 127.152 140.619 126.825C140.805 126.498 140.855 126.111 140.758 125.748L140.756 125.746Z" stroke="white"/>
<path d="M77.8292 93.7734C75.2726 94.9627 72.696 96.109 70.1195 97.2553C68.6025 97.9303 67.0855 98.6052 65.5727 99.2888C65.3075 99.4087 65.0404 99.5285 64.7722 99.6488C60.7306 101.462 56.4216 103.395 54.2627 107.48C52.6802 110.477 52.207 114.07 51.7652 117.425C51.7292 117.698 51.6934 117.969 51.6573 118.239C51.0097 123.068 50.5971 127.926 50.2371 132.783C49.7123 139.838 49.3217 146.903 48.9496 153.967C48.8538 155.795 51.6942 155.789 51.7901 153.967C51.8389 153.041 51.8872 152.114 51.9356 151.187C52.4681 140.974 53.002 130.732 54.2045 120.577C54.5053 117.322 55.0766 114.099 55.9123 110.939C56.5661 108.638 58.0234 106.647 60.0196 105.329C61.8375 104.155 63.7567 103.146 65.7544 102.313C67.6571 101.446 69.5677 100.596 71.4782 99.7459C74.0806 98.5881 76.6828 97.4304 79.265 96.229C79.5879 96.0367 79.8222 95.7253 79.9175 95.3618C80.0128 94.9983 79.9613 94.612 79.7742 94.2861C79.5783 93.9673 79.267 93.7363 78.9051 93.6413C78.5431 93.5464 78.1585 93.5947 77.8313 93.7762L77.8292 93.7734Z" fill="white"/>
<path d="M77.8292 93.7734C75.2726 94.9627 72.696 96.109 70.1195 97.2553C68.6025 97.9303 67.0855 98.6052 65.5727 99.2888C65.3075 99.4087 65.0404 99.5285 64.7722 99.6488C60.7306 101.462 56.4216 103.395 54.2627 107.48C52.6802 110.477 52.207 114.07 51.7652 117.425C51.7292 117.698 51.6934 117.969 51.6573 118.239C51.0097 123.068 50.5971 127.926 50.2371 132.783C49.7123 139.838 49.3217 146.903 48.9496 153.967C48.8538 155.795 51.6942 155.789 51.7901 153.967C51.8389 153.041 51.8872 152.114 51.9356 151.187C52.4681 140.974 53.002 130.732 54.2045 120.577C54.5053 117.322 55.0766 114.099 55.9123 110.939C56.5661 108.638 58.0234 106.647 60.0196 105.329C61.8375 104.155 63.7567 103.146 65.7544 102.313C67.6571 101.446 69.5677 100.596 71.4782 99.7459C74.0806 98.5881 76.6828 97.4304 79.265 96.229C79.5879 96.0367 79.8222 95.7253 79.9175 95.3618C80.0128 94.9983 79.9613 94.612 79.7742 94.2861C79.5783 93.9673 79.267 93.7363 78.9051 93.6413C78.5431 93.5464 78.1585 93.5947 77.8313 93.7762L77.8292 93.7734Z" stroke="white"/>
<path d="M65.7438 163.251C65.8803 161.673 66.0261 160.096 66.172 158.519C66.4179 155.86 66.6638 153.202 66.8644 150.54C67.0666 148.016 67.0045 145.478 66.679 142.967C66.1437 138.839 65.4007 134.75 64.6574 130.661C64.2451 128.392 63.8328 126.123 63.4558 123.847C63.2016 122.312 62.966 120.773 62.7303 119.233C62.2899 116.356 61.8494 113.477 61.2865 110.623C60.9314 108.831 58.1946 109.59 58.5468 111.378C59.0806 114.084 59.4986 116.812 59.9164 119.539C60.0867 120.651 60.257 121.762 60.435 122.872C60.8091 125.2 61.2361 127.519 61.6632 129.839C61.8354 130.774 62.0075 131.709 62.1762 132.645C62.7564 135.859 63.3025 139.083 63.7505 142.321C64.1102 144.644 64.2292 146.998 64.1056 149.345C63.9036 152.445 63.6128 155.538 63.3219 158.632C63.1771 160.172 63.0322 161.713 62.8984 163.253C62.7408 165.074 65.5826 165.063 65.7389 163.253L65.7438 163.251Z" fill="white"/>
<path d="M65.7438 163.251C65.8803 161.673 66.0261 160.096 66.172 158.519C66.4179 155.86 66.6638 153.202 66.8644 150.54C67.0666 148.016 67.0045 145.478 66.679 142.967C66.1437 138.839 65.4007 134.75 64.6574 130.661C64.2451 128.392 63.8328 126.123 63.4558 123.847C63.2016 122.312 62.966 120.773 62.7303 119.233C62.2899 116.356 61.8494 113.477 61.2865 110.623C60.9314 108.831 58.1946 109.59 58.5468 111.378C59.0806 114.084 59.4986 116.812 59.9164 119.539C60.0867 120.651 60.257 121.762 60.435 122.872C60.8091 125.2 61.2361 127.519 61.6632 129.839C61.8354 130.774 62.0075 131.709 62.1762 132.645C62.7564 135.859 63.3025 139.083 63.7505 142.321C64.1102 144.644 64.2292 146.998 64.1056 149.345C63.9036 152.445 63.6128 155.538 63.3219 158.632C63.1771 160.172 63.0322 161.713 62.8984 163.253C62.7408 165.074 65.5826 165.063 65.7389 163.253L65.7438 163.251Z" stroke="white"/>
<path d="M127.441 111.508C126.453 119.238 125.256 126.913 123.89 134.587C123.299 137.909 122.711 141.241 122.328 144.595C122.12 147.147 122.165 149.714 122.464 152.257C122.629 154.224 122.81 156.191 122.991 158.157C123.221 160.665 123.452 163.173 123.649 165.683C123.791 167.493 126.631 167.509 126.489 165.683C126.289 163.136 126.056 160.591 125.822 158.047C125.689 156.603 125.556 155.159 125.43 153.714C125.389 153.243 125.343 152.77 125.298 152.295C125.084 150.072 124.868 147.818 125.065 145.601C125.435 141.439 126.212 137.318 126.989 133.202C127.39 131.076 127.79 128.952 128.135 126.824C128.958 121.735 129.626 116.624 130.281 111.511C130.279 111.135 130.129 110.775 129.863 110.509C129.597 110.243 129.237 110.093 128.861 110.091C128.487 110.1 128.131 110.253 127.867 110.517C127.603 110.781 127.45 111.137 127.441 111.511V111.508Z" fill="white"/>
<path d="M127.441 111.508C126.453 119.238 125.256 126.913 123.89 134.587C123.299 137.909 122.711 141.241 122.328 144.595C122.12 147.147 122.165 149.714 122.464 152.257C122.629 154.224 122.81 156.191 122.991 158.157C123.221 160.665 123.452 163.173 123.649 165.683C123.791 167.493 126.631 167.509 126.489 165.683C126.289 163.136 126.056 160.591 125.822 158.047C125.689 156.603 125.556 155.159 125.43 153.714C125.389 153.243 125.343 152.77 125.298 152.295C125.084 150.072 124.868 147.818 125.065 145.601C125.435 141.439 126.212 137.318 126.989 133.202C127.39 131.076 127.79 128.952 128.135 126.824C128.958 121.735 129.626 116.624 130.281 111.511C130.279 111.135 130.129 110.775 129.863 110.509C129.597 110.243 129.237 110.093 128.861 110.091C128.487 110.1 128.131 110.253 127.867 110.517C127.603 110.781 127.45 111.137 127.441 111.511V111.508Z" stroke="white"/>
<path d="M107.369 92.7046C106.575 97.9297 105.258 103.062 103.438 108.024C103.204 108.673 102.97 109.324 102.736 109.974C101.17 114.33 99.6007 118.697 97.7725 122.947C96.2564 126.472 94.5408 129.9 92.6945 133.263C91.8146 134.866 94.2659 136.301 95.1472 134.696C98.1651 129.139 100.787 123.375 102.994 117.448C103.321 116.583 103.653 115.717 103.986 114.848C105.423 111.101 106.873 107.321 107.958 103.475C108.888 100.187 109.606 96.8424 110.108 93.4623C110.196 93.0992 110.142 92.7163 109.957 92.3916C109.772 92.0669 109.471 91.8248 109.114 91.7147C108.75 91.6174 108.363 91.6671 108.036 91.8532C107.709 92.0393 107.469 92.3467 107.367 92.7089L107.369 92.7046Z" fill="white"/>
<path d="M107.369 92.7046C106.575 97.9297 105.258 103.062 103.438 108.024C103.204 108.673 102.97 109.324 102.736 109.974C101.17 114.33 99.6007 118.697 97.7725 122.947C96.2564 126.472 94.5408 129.9 92.6945 133.263C91.8146 134.866 94.2659 136.301 95.1472 134.696C98.1651 129.139 100.787 123.375 102.994 117.448C103.321 116.583 103.653 115.717 103.986 114.848C105.423 111.101 106.873 107.321 107.958 103.475C108.888 100.187 109.606 96.8424 110.108 93.4623C110.196 93.0992 110.142 92.7163 109.957 92.3916C109.772 92.0669 109.471 91.8248 109.114 91.7147C108.75 91.6174 108.363 91.6671 108.036 91.8532C107.709 92.0393 107.469 92.3467 107.367 92.7089L107.369 92.7046Z" stroke="white"/>
<path d="M79.1922 92.8859C80.1153 104.554 84.131 115.427 88.8327 126.044C89.4078 127.342 89.9896 128.638 90.5715 129.934C91.2541 131.453 91.9367 132.973 92.6083 134.498C92.8002 134.821 93.1116 135.056 93.4752 135.151C93.8388 135.247 94.2253 135.195 94.5512 135.008C94.8695 134.811 95.1 134.5 95.195 134.138C95.2899 133.776 95.2419 133.392 95.0611 133.064C94.4702 131.723 93.8726 130.384 93.2748 129.044C89.456 120.487 85.6331 111.921 83.5473 102.738C82.8059 99.4947 82.2997 96.2021 82.0326 92.8859C81.8906 91.0758 79.0501 91.0602 79.1922 92.8859Z" fill="white"/>
<path d="M79.1922 92.8859C80.1153 104.554 84.131 115.427 88.8327 126.044C89.4078 127.342 89.9896 128.638 90.5715 129.934C91.2541 131.453 91.9367 132.973 92.6083 134.498C92.8002 134.821 93.1116 135.056 93.4752 135.151C93.8388 135.247 94.2253 135.195 94.5512 135.008C94.8695 134.811 95.1 134.5 95.195 134.138C95.2899 133.776 95.2419 133.392 95.0611 133.064C94.4702 131.723 93.8726 130.384 93.2748 129.044C89.456 120.487 85.6331 111.921 83.5473 102.738C82.8059 99.4947 82.2997 96.2021 82.0326 92.8859C81.8906 91.0758 79.0501 91.0602 79.1922 92.8859Z" stroke="white"/>
<path d="M111.532 121.734C111.589 121.639 111.645 121.512 111.696 121.393C111.745 121.283 111.79 121.18 111.83 121.118C111.861 121.068 111.936 120.981 111.985 120.925C112.046 120.854 112.066 120.83 111.909 120.987C111.976 120.92 112.037 120.849 112.097 120.779C112.166 120.701 112.233 120.623 112.309 120.55C112.335 120.525 112.362 120.501 112.389 120.477C112.421 120.449 112.454 120.421 112.484 120.391C112.488 120.386 112.493 120.382 112.497 120.378C112.498 120.377 112.499 120.376 112.501 120.375C112.547 120.347 112.593 120.317 112.638 120.288C112.732 120.227 112.826 120.167 112.927 120.114C112.952 120.1 113.015 120.074 113.062 120.054C113.13 120.025 113.168 120.009 113.022 120.063C113.088 120.038 113.153 120.014 113.219 119.993C113.304 119.966 113.397 119.941 113.487 119.922C113.516 119.915 113.599 119.905 113.674 119.895C113.802 119.879 113.907 119.866 113.686 119.878C113.897 119.863 114.109 119.858 114.321 119.864C114.326 119.864 114.354 119.866 114.39 119.869C114.509 119.878 114.716 119.894 114.495 119.864C114.617 119.88 114.739 119.905 114.86 119.931C115.089 119.975 115.314 120.037 115.533 120.116C115.542 120.12 115.559 120.128 115.58 120.138C115.623 120.158 115.68 120.184 115.703 120.198C115.731 120.215 115.759 120.231 115.786 120.248C115.853 120.287 115.92 120.327 115.987 120.369C115.975 120.363 116.026 120.402 116.079 120.443C116.122 120.476 116.167 120.509 116.178 120.52C116.238 120.576 116.296 120.634 116.352 120.693C116.361 120.702 116.389 120.736 116.42 120.773C116.467 120.831 116.52 120.895 116.51 120.877C116.558 120.946 116.604 121.016 116.646 121.088C116.663 121.115 116.702 121.192 116.743 121.271C116.814 121.41 116.889 121.555 116.852 121.459C116.938 121.677 117.009 121.901 117.064 122.129C117.083 122.205 117.098 122.282 117.113 122.36C117.123 122.407 117.132 122.454 117.143 122.501C117.149 122.528 117.154 122.55 117.158 122.568C117.159 122.585 117.16 122.606 117.162 122.631C117.164 122.662 117.166 122.694 117.168 122.725C117.18 122.907 117.192 123.088 117.192 123.27C117.192 123.436 117.181 123.603 117.17 123.769C117.167 123.816 117.164 123.862 117.161 123.909C117.159 123.935 117.158 123.957 117.158 123.975C117.154 123.992 117.15 124.012 117.145 124.036C117.136 124.08 117.127 124.125 117.118 124.169C117.093 124.294 117.068 124.419 117.037 124.543C116.981 124.76 116.914 124.974 116.837 125.185C116.835 125.19 116.83 125.2 116.825 125.214C116.807 125.257 116.777 125.332 116.762 125.361C116.74 125.402 116.719 125.444 116.697 125.485C116.65 125.577 116.603 125.669 116.549 125.758C116.485 125.869 116.418 125.977 116.347 126.082C116.341 126.091 116.311 126.129 116.279 126.169C116.229 126.232 116.175 126.302 116.204 126.27C116.046 126.45 115.877 126.62 115.698 126.779C115.684 126.791 115.675 126.8 115.668 126.807C115.659 126.812 115.65 126.818 115.64 126.825C115.611 126.843 115.583 126.861 115.555 126.879C115.443 126.951 115.332 127.022 115.214 127.085C115.219 127.083 115.099 127.138 115.032 127.171C114.989 127.185 114.915 127.21 114.85 127.232C114.792 127.251 114.742 127.268 114.727 127.273C114.6 127.307 114.472 127.335 114.343 127.36C114.549 127.32 114.393 127.341 114.276 127.357C114.23 127.364 114.19 127.369 114.18 127.37C114.038 127.377 113.896 127.377 113.754 127.37C113.668 127.366 113.582 127.36 113.496 127.352C113.47 127.348 113.433 127.341 113.385 127.333C113.32 127.317 113.253 127.305 113.186 127.299C113.01 127.256 112.838 127.196 112.672 127.119C112.611 127.085 112.551 127.05 112.491 127.014C112.459 126.995 112.426 126.975 112.393 126.956C112.348 126.93 112.315 126.912 112.292 126.9C112.278 126.884 112.257 126.862 112.224 126.83C112.179 126.786 112.134 126.741 112.089 126.695C112.04 126.645 111.991 126.595 111.94 126.546C111.919 126.526 111.901 126.509 111.887 126.495C111.734 126.289 111.602 126.067 111.492 125.835C111.494 125.838 111.49 125.828 111.483 125.813C111.47 125.782 111.447 125.727 111.441 125.706C111.426 125.658 111.41 125.61 111.394 125.562C111.368 125.483 111.342 125.405 111.32 125.325C111.261 125.109 111.214 124.889 111.178 124.668C111.215 124.891 111.192 124.719 111.175 124.598C111.169 124.552 111.164 124.514 111.163 124.505C111.151 124.37 111.144 124.234 111.141 124.096C111.133 123.823 111.139 123.55 111.159 123.278C111.168 123.15 111.18 123.022 111.195 122.894C111.197 122.882 111.199 122.869 111.202 122.854C111.208 122.818 111.215 122.782 111.221 122.745C111.256 122.553 111.291 122.361 111.344 122.171C111.365 122.09 111.389 122.009 111.415 121.929C111.424 121.902 111.433 121.875 111.443 121.849M111.532 121.734C111.56 121.661 111.519 121.628 111.474 121.762C111.465 121.79 111.454 121.818 111.444 121.846C111.444 121.846 111.444 121.847 111.444 121.848M111.532 121.734C111.519 121.768 111.492 121.81 111.443 121.849M111.532 121.734C111.503 121.782 111.473 121.822 111.444 121.848M111.444 121.848C111.439 121.852 111.434 121.855 111.43 121.859C111.434 121.855 111.439 121.852 111.443 121.849M111.444 121.848C111.443 121.848 111.443 121.848 111.443 121.849M112.802 130.109C114.194 130.366 115.635 130.121 116.866 129.414C117.971 128.72 118.836 127.704 119.345 126.503C120.41 124.044 120.291 120.977 118.522 118.868C117.605 117.893 116.385 117.257 115.06 117.066C113.736 116.874 112.385 117.138 111.23 117.813C110.477 118.308 109.839 118.958 109.358 119.72C108.878 120.482 108.566 121.338 108.444 122.231C108.162 123.728 108.284 125.274 108.799 126.708C109.107 127.544 109.62 128.29 110.289 128.878C110.959 129.466 111.765 129.878 112.633 130.077C112.689 130.091 112.745 130.101 112.802 130.109ZM111.838 126.448C111.839 126.448 111.841 126.451 111.844 126.454C111.84 126.45 111.838 126.448 111.838 126.448ZM111.447 125.735C111.469 125.784 111.482 125.812 111.488 125.826C111.474 125.795 111.46 125.765 111.447 125.735ZM111.177 122.996C111.174 123.008 111.177 122.991 111.192 122.907C111.187 122.942 111.179 122.984 111.177 122.996ZM116.799 125.286C116.803 125.276 116.806 125.268 116.809 125.259C116.806 125.268 116.802 125.277 116.799 125.286Z" fill="white"/>
<path d="M111.532 121.734C111.589 121.639 111.645 121.512 111.696 121.393C111.745 121.283 111.79 121.18 111.83 121.118C111.861 121.068 111.936 120.981 111.985 120.925C112.046 120.854 112.066 120.83 111.909 120.987C111.976 120.92 112.037 120.849 112.097 120.779C112.166 120.701 112.233 120.623 112.309 120.55C112.335 120.525 112.362 120.501 112.389 120.477C112.421 120.449 112.454 120.421 112.484 120.391C112.488 120.386 112.493 120.382 112.497 120.378C112.498 120.377 112.499 120.376 112.501 120.375C112.547 120.347 112.593 120.317 112.638 120.288C112.732 120.227 112.826 120.167 112.927 120.114C112.952 120.1 113.015 120.074 113.062 120.054C113.13 120.025 113.168 120.009 113.022 120.063C113.088 120.038 113.153 120.014 113.219 119.993C113.304 119.966 113.397 119.941 113.487 119.922C113.516 119.915 113.599 119.905 113.674 119.895C113.802 119.879 113.907 119.866 113.686 119.878C113.897 119.863 114.109 119.858 114.321 119.864C114.326 119.864 114.354 119.866 114.39 119.869C114.509 119.878 114.716 119.894 114.495 119.864C114.617 119.88 114.739 119.905 114.86 119.931C115.089 119.975 115.314 120.037 115.533 120.116C115.542 120.12 115.559 120.128 115.58 120.138C115.623 120.158 115.68 120.184 115.703 120.198C115.731 120.215 115.759 120.231 115.786 120.248C115.853 120.287 115.92 120.327 115.987 120.369C115.975 120.363 116.026 120.402 116.079 120.443C116.122 120.476 116.167 120.509 116.178 120.52C116.238 120.576 116.296 120.634 116.352 120.693C116.361 120.702 116.389 120.736 116.42 120.773C116.467 120.831 116.52 120.895 116.51 120.877C116.558 120.946 116.604 121.016 116.646 121.088C116.663 121.115 116.702 121.192 116.743 121.271C116.814 121.41 116.889 121.555 116.852 121.459C116.938 121.677 117.009 121.901 117.064 122.129C117.083 122.205 117.098 122.282 117.113 122.36C117.123 122.407 117.132 122.454 117.143 122.501C117.149 122.528 117.154 122.55 117.158 122.568C117.159 122.585 117.16 122.606 117.162 122.631C117.164 122.662 117.166 122.694 117.168 122.725C117.18 122.907 117.192 123.088 117.192 123.27C117.192 123.436 117.181 123.603 117.17 123.769C117.167 123.816 117.164 123.862 117.161 123.909C117.159 123.935 117.158 123.957 117.158 123.975C117.154 123.992 117.15 124.012 117.145 124.036C117.136 124.08 117.127 124.125 117.118 124.169C117.093 124.294 117.068 124.419 117.037 124.543C116.981 124.76 116.914 124.974 116.837 125.185C116.835 125.19 116.83 125.2 116.825 125.214C116.807 125.257 116.777 125.332 116.762 125.361C116.74 125.402 116.719 125.444 116.697 125.485C116.65 125.577 116.603 125.669 116.549 125.758C116.485 125.869 116.418 125.977 116.347 126.082C116.341 126.091 116.311 126.129 116.279 126.169C116.229 126.232 116.175 126.302 116.204 126.27C116.046 126.45 115.877 126.62 115.698 126.779C115.684 126.791 115.675 126.8 115.668 126.807C115.659 126.812 115.65 126.818 115.64 126.825C115.611 126.843 115.583 126.861 115.555 126.879C115.443 126.951 115.332 127.022 115.214 127.085C115.219 127.083 115.099 127.138 115.032 127.171C114.989 127.185 114.915 127.21 114.85 127.232C114.792 127.251 114.742 127.268 114.727 127.273C114.6 127.307 114.472 127.335 114.343 127.36C114.549 127.32 114.393 127.341 114.276 127.357C114.23 127.364 114.19 127.369 114.18 127.37C114.038 127.377 113.896 127.377 113.754 127.37C113.668 127.366 113.582 127.36 113.496 127.352C113.47 127.348 113.433 127.341 113.385 127.333C113.32 127.317 113.253 127.305 113.186 127.299C113.01 127.256 112.838 127.196 112.672 127.119C112.611 127.085 112.551 127.05 112.491 127.014C112.459 126.995 112.426 126.975 112.393 126.956C112.348 126.93 112.315 126.912 112.292 126.9C112.278 126.884 112.257 126.862 112.224 126.83C112.179 126.786 112.134 126.741 112.089 126.695C112.04 126.645 111.991 126.595 111.94 126.546C111.919 126.526 111.901 126.509 111.887 126.495C111.734 126.289 111.602 126.067 111.492 125.835C111.494 125.838 111.49 125.828 111.483 125.813C111.47 125.782 111.447 125.727 111.441 125.706C111.426 125.658 111.41 125.61 111.394 125.562C111.368 125.483 111.342 125.405 111.32 125.325C111.261 125.109 111.214 124.889 111.178 124.668C111.215 124.891 111.192 124.719 111.175 124.598C111.169 124.552 111.164 124.514 111.163 124.505C111.151 124.37 111.144 124.234 111.141 124.096C111.133 123.823 111.139 123.55 111.159 123.278C111.168 123.15 111.18 123.022 111.195 122.894C111.197 122.882 111.199 122.869 111.202 122.854C111.208 122.818 111.215 122.782 111.221 122.745C111.256 122.553 111.291 122.361 111.344 122.171C111.365 122.09 111.389 122.009 111.415 121.929C111.424 121.902 111.433 121.875 111.443 121.849M111.532 121.734C111.56 121.661 111.519 121.628 111.474 121.762C111.465 121.79 111.454 121.818 111.444 121.846C111.444 121.846 111.444 121.847 111.444 121.848M111.532 121.734C111.519 121.768 111.492 121.81 111.443 121.849M111.532 121.734C111.503 121.782 111.473 121.822 111.444 121.848M111.444 121.848C111.439 121.852 111.434 121.855 111.43 121.859C111.434 121.855 111.439 121.852 111.443 121.849M111.444 121.848C111.443 121.848 111.443 121.848 111.443 121.849M112.802 130.109C114.194 130.366 115.635 130.121 116.866 129.414C117.971 128.72 118.836 127.704 119.345 126.503C120.41 124.044 120.291 120.977 118.522 118.868C117.605 117.893 116.385 117.257 115.06 117.066C113.736 116.874 112.385 117.138 111.23 117.813C110.477 118.308 109.839 118.958 109.358 119.72C108.878 120.482 108.566 121.338 108.444 122.231C108.162 123.728 108.284 125.274 108.799 126.708C109.107 127.544 109.62 128.29 110.289 128.878C110.959 129.466 111.765 129.878 112.633 130.077C112.689 130.091 112.745 130.101 112.802 130.109ZM111.838 126.448C111.839 126.448 111.841 126.451 111.844 126.454C111.84 126.45 111.838 126.448 111.838 126.448ZM111.447 125.735C111.469 125.784 111.482 125.812 111.488 125.826C111.474 125.795 111.46 125.765 111.447 125.735ZM111.177 122.996C111.174 123.008 111.177 122.991 111.192 122.907C111.187 122.942 111.179 122.984 111.177 122.996ZM116.799 125.286C116.803 125.276 116.806 125.268 116.809 125.259C116.806 125.268 116.802 125.277 116.799 125.286Z" stroke="white"/>
<path d="M116.821 118C117.483 113.248 117.626 108.438 117.247 103.655C116.858 99.6851 116 95.1652 112.975 92.2935C111.65 91.0359 109.638 93.0413 110.967 94.3024C113.595 96.7978 114.205 100.977 114.474 104.417C114.76 108.947 114.596 113.496 113.983 117.994C113.985 118.37 114.136 118.73 114.402 118.996C114.667 119.262 115.027 119.412 115.403 119.414C115.777 119.405 116.133 119.253 116.398 118.988C116.662 118.724 116.815 118.368 116.824 117.994L116.821 118Z" fill="white"/>
<path d="M116.821 118C117.483 113.248 117.626 108.438 117.247 103.655C116.858 99.6851 116 95.1652 112.975 92.2935C111.65 91.0359 109.638 93.0413 110.967 94.3024C113.595 96.7978 114.205 100.977 114.474 104.417C114.76 108.947 114.596 113.496 113.983 117.994C113.985 118.37 114.136 118.73 114.402 118.996C114.667 119.262 115.027 119.412 115.403 119.414C115.777 119.405 116.133 119.253 116.398 118.988C116.662 118.724 116.815 118.368 116.824 117.994L116.821 118Z" stroke="white"/>
<path d="M75.7329 113.657C75.6983 112.918 75.6573 112.177 75.6163 111.435C75.4463 108.362 75.2753 105.27 75.5476 102.208C75.8068 99.2935 76.6944 96.5169 78.8617 94.4683C80.1917 93.2085 78.1807 91.2018 76.8535 92.4594C71.8771 97.1704 72.3421 104.628 72.7461 111.107C72.8005 111.978 72.8538 112.832 72.8925 113.66C72.9777 115.48 75.8189 115.49 75.7329 113.66V113.657Z" fill="white"/>
<path d="M75.7329 113.657C75.6983 112.918 75.6573 112.177 75.6163 111.435C75.4463 108.362 75.2753 105.27 75.5476 102.208C75.8068 99.2935 76.6944 96.5169 78.8617 94.4683C80.1917 93.2085 78.1807 91.2018 76.8535 92.4594C71.8771 97.1704 72.3421 104.628 72.7461 111.107C72.8005 111.978 72.8538 112.832 72.8925 113.66C72.9777 115.48 75.8189 115.49 75.7329 113.66V113.657Z" stroke="white"/>
<path d="M169.587 102.462C168.879 102.806 168.184 103.176 167.489 103.546C167.062 103.773 166.635 104.001 166.205 104.222C165.695 104.484 165.18 104.735 164.656 104.967C164.664 104.963 164.624 104.98 164.575 105.001C164.521 105.024 164.455 105.052 164.431 105.061C164.28 105.122 164.127 105.181 163.974 105.237C163.664 105.35 163.351 105.45 163.035 105.543C162.672 105.644 162.363 105.884 162.177 106.212C161.991 106.539 161.943 106.927 162.043 107.291C162.143 107.654 162.383 107.963 162.711 108.149C163.039 108.335 163.427 108.383 163.79 108.283C165.61 107.751 167.278 106.868 168.945 105.984C169.634 105.619 170.322 105.254 171.021 104.914C171.345 104.723 171.58 104.411 171.675 104.048C171.771 103.684 171.718 103.297 171.53 102.971C171.334 102.653 171.022 102.423 170.661 102.328C170.299 102.233 169.915 102.281 169.587 102.462Z" fill="white"/>
<path d="M169.587 102.462C168.879 102.806 168.184 103.176 167.489 103.546C167.062 103.773 166.635 104.001 166.205 104.222C165.695 104.484 165.18 104.735 164.656 104.967C164.664 104.963 164.624 104.98 164.575 105.001C164.521 105.024 164.455 105.052 164.431 105.061C164.28 105.122 164.127 105.181 163.974 105.237C163.664 105.35 163.351 105.45 163.035 105.543C162.672 105.644 162.363 105.884 162.177 106.212C161.991 106.539 161.943 106.927 162.043 107.291C162.143 107.654 162.383 107.963 162.711 108.149C163.039 108.335 163.427 108.383 163.79 108.283C165.61 107.751 167.278 106.868 168.945 105.984C169.634 105.619 170.322 105.254 171.021 104.914C171.345 104.723 171.58 104.411 171.675 104.048C171.771 103.684 171.718 103.297 171.53 102.971C171.334 102.653 171.022 102.423 170.661 102.328C170.299 102.233 169.915 102.281 169.587 102.462Z" stroke="white"/>
<path d="M169.482 98.5998C168.486 99.0193 167.507 99.4802 166.528 99.9408C165.811 100.279 165.093 100.616 164.369 100.937C163.841 101.174 163.313 101.411 162.785 101.648C162.522 101.766 162.258 101.884 161.994 102.003C161.61 102.174 161.225 102.345 160.839 102.513C160.72 102.566 160.599 102.618 160.479 102.67C160.423 102.694 160.367 102.718 160.31 102.742C160.234 102.773 160.158 102.804 160.081 102.837C159.724 102.947 159.422 103.188 159.237 103.513C159.052 103.838 158.999 104.221 159.087 104.584C159.188 104.946 159.429 105.254 159.756 105.44C160.083 105.626 160.47 105.676 160.834 105.578C162.023 105.092 163.195 104.565 164.367 104.037C164.767 103.857 165.167 103.677 165.567 103.499C165.794 103.398 166.022 103.298 166.249 103.198C166.794 102.959 167.338 102.72 167.877 102.466C168.11 102.355 168.342 102.244 168.575 102.132C168.792 102.028 169.008 101.923 169.226 101.82C169.445 101.716 169.663 101.611 169.884 101.509L170.129 101.397C170.136 101.394 170.157 101.385 170.184 101.373C170.211 101.361 170.243 101.347 170.273 101.334C170.616 101.219 170.905 100.982 171.084 100.667C171.269 100.343 171.323 99.9599 171.236 99.5968C171.134 99.2345 170.893 98.9269 170.566 98.7408C170.239 98.5547 169.851 98.505 169.488 98.6026L169.482 98.5998ZM160.218 102.782C160.224 102.779 160.257 102.765 160.296 102.749C160.23 102.777 160.211 102.786 160.218 102.782Z" fill="white"/>
<path d="M169.482 98.5998C168.486 99.0193 167.507 99.4802 166.528 99.9408C165.811 100.279 165.093 100.616 164.369 100.937C163.841 101.174 163.313 101.411 162.785 101.648C162.522 101.766 162.258 101.884 161.994 102.003C161.61 102.174 161.225 102.345 160.839 102.513C160.72 102.566 160.599 102.618 160.479 102.67C160.423 102.694 160.367 102.718 160.31 102.742C160.234 102.773 160.158 102.804 160.081 102.837C159.724 102.947 159.422 103.188 159.237 103.513C159.052 103.838 158.999 104.221 159.087 104.584C159.188 104.946 159.429 105.254 159.756 105.44C160.083 105.626 160.47 105.676 160.834 105.578C162.023 105.092 163.195 104.565 164.367 104.037C164.767 103.857 165.167 103.677 165.567 103.499C165.794 103.398 166.022 103.298 166.249 103.198C166.794 102.959 167.338 102.72 167.877 102.466C168.11 102.355 168.342 102.244 168.575 102.132C168.792 102.028 169.008 101.923 169.226 101.82C169.445 101.716 169.663 101.611 169.884 101.509L170.129 101.397C170.136 101.394 170.157 101.385 170.184 101.373C170.211 101.361 170.243 101.347 170.273 101.334C170.616 101.219 170.905 100.982 171.084 100.667C171.269 100.343 171.323 99.9599 171.236 99.5968C171.134 99.2345 170.893 98.9269 170.566 98.7408C170.239 98.5547 169.851 98.505 169.488 98.6026L169.482 98.5998ZM160.218 102.782C160.224 102.779 160.257 102.765 160.296 102.749C160.23 102.777 160.211 102.786 160.218 102.782Z" stroke="white"/>
<path d="M158.301 104.466C159.971 105.855 161.571 107.322 163.1 108.868C163.231 109.004 163.388 109.112 163.561 109.187C163.734 109.261 163.921 109.3 164.109 109.302C164.298 109.303 164.485 109.268 164.659 109.196C164.834 109.125 164.992 109.019 165.126 108.886C165.259 108.753 165.365 108.594 165.436 108.419C165.507 108.245 165.543 108.058 165.542 107.869C165.54 107.681 165.501 107.494 165.426 107.321C165.352 107.148 165.244 106.991 165.108 106.86C163.581 105.315 161.981 103.847 160.309 102.457C160.037 102.2 159.68 102.052 159.305 102.042C159.024 102.042 158.75 102.125 158.516 102.281C158.283 102.437 158.101 102.659 157.993 102.919C157.886 103.178 157.858 103.464 157.913 103.739C157.967 104.015 158.103 104.268 158.301 104.466V104.466Z" fill="white"/>
<path d="M158.301 104.466C159.971 105.855 161.571 107.322 163.1 108.868C163.231 109.004 163.388 109.112 163.561 109.187C163.734 109.261 163.921 109.3 164.109 109.302C164.298 109.303 164.485 109.268 164.659 109.196C164.834 109.125 164.992 109.019 165.126 108.886C165.259 108.753 165.365 108.594 165.436 108.419C165.507 108.245 165.543 108.058 165.542 107.869C165.54 107.681 165.501 107.494 165.426 107.321C165.352 107.148 165.244 106.991 165.108 106.86C163.581 105.315 161.981 103.847 160.309 102.457C160.037 102.2 159.68 102.052 159.305 102.042C159.024 102.042 158.75 102.125 158.516 102.281C158.283 102.437 158.101 102.659 157.993 102.919C157.886 103.178 157.858 103.464 157.913 103.739C157.967 104.015 158.103 104.268 158.301 104.466V104.466Z" stroke="white"/>
<path d="M137.494 136.89C139.392 131.173 141.097 125.399 142.784 119.618C143.083 119.718 143.384 119.819 143.684 119.919C147.717 121.271 151.764 122.628 155.86 123.767C155.772 124.21 155.683 124.653 155.595 125.097C154.947 128.356 154.298 131.616 153.547 134.854C152.735 138.793 151.611 142.66 150.184 146.42C149.007 149.304 147.252 152.124 144.454 153.664C142.824 154.534 141.007 154.995 139.16 155.005C137.313 155.015 135.491 154.575 133.852 153.722C131.076 152.258 128.821 149.88 126.647 147.587C126.204 147.119 125.765 146.656 125.325 146.204C124.047 144.892 122.04 146.902 123.317 148.213C123.692 148.598 124.066 148.988 124.442 149.379C126.65 151.68 128.904 154.027 131.61 155.711C133.417 156.825 135.45 157.521 137.56 157.749C139.671 157.978 141.806 157.732 143.809 157.029C151.554 154.301 153.814 145.526 155.613 138.399C156.668 134.221 157.509 129.996 158.35 125.772C158.526 124.89 158.702 124.007 158.88 123.125C158.972 122.762 158.92 122.377 158.735 122.051C158.549 121.725 158.245 121.484 157.886 121.378C153.366 120.175 148.909 118.682 144.469 117.194C143.714 116.941 142.96 116.688 142.206 116.437C141.843 116.342 141.457 116.393 141.131 116.579C140.804 116.765 140.563 117.071 140.459 117.432C138.635 123.693 136.806 129.951 134.751 136.141C134.173 137.88 136.915 138.626 137.49 136.896L137.494 136.89Z" fill="white"/>
<path d="M137.494 136.89C139.392 131.173 141.097 125.399 142.784 119.618C143.083 119.718 143.384 119.819 143.684 119.919C147.717 121.271 151.764 122.628 155.86 123.767C155.772 124.21 155.683 124.653 155.595 125.097C154.947 128.356 154.298 131.616 153.547 134.854C152.735 138.793 151.611 142.66 150.184 146.42C149.007 149.304 147.252 152.124 144.454 153.664C142.824 154.534 141.007 154.995 139.16 155.005C137.313 155.015 135.491 154.575 133.852 153.722C131.076 152.258 128.821 149.88 126.647 147.587C126.204 147.119 125.765 146.656 125.325 146.204C124.047 144.892 122.04 146.902 123.317 148.213C123.692 148.598 124.066 148.988 124.442 149.379C126.65 151.68 128.904 154.027 131.61 155.711C133.417 156.825 135.45 157.521 137.56 157.749C139.671 157.978 141.806 157.732 143.809 157.029C151.554 154.301 153.814 145.526 155.613 138.399C156.668 134.221 157.509 129.996 158.35 125.772C158.526 124.89 158.702 124.007 158.88 123.125C158.972 122.762 158.92 122.377 158.735 122.051C158.549 121.725 158.245 121.484 157.886 121.378C153.366 120.175 148.909 118.682 144.469 117.194C143.714 116.941 142.96 116.688 142.206 116.437C141.843 116.342 141.457 116.393 141.131 116.579C140.804 116.765 140.563 117.071 140.459 117.432C138.635 123.693 136.806 129.951 134.751 136.141C134.173 137.88 136.915 138.626 137.49 136.896L137.494 136.89Z" stroke="white"/>
<path d="M75.2768 132.492C74.8566 132.368 74.4939 132.431 74.2093 132.605C74.2033 132.561 74.1977 132.516 74.1925 132.472C73.9013 131.052 73.6244 129.632 73.3801 128.203C72.8164 125.311 72.5865 122.364 72.6948 119.42C72.7658 118.199 72.9185 116.596 73.9482 115.779C74.3631 115.454 74.869 115.266 75.3955 115.241C75.9221 115.217 76.4432 115.357 76.8866 115.642C78.059 116.281 78.5731 117.417 79.0439 118.624C79.613 120.125 80.085 121.661 80.4571 123.222C80.8831 124.932 81.2169 126.663 81.5009 128.402C81.6371 129.238 81.7618 130.076 81.8793 130.915C81.6941 130.932 81.5012 130.989 81.3056 131.094C78.8522 132.421 80.4982 136.501 83.1718 135.59C85.5135 134.793 84.9583 131.779 84.5706 129.675C84.5116 129.354 84.4564 129.055 84.4159 128.787C84.0517 126.244 83.5362 123.724 82.8721 121.242C82.8533 121.174 82.8343 121.105 82.8153 121.036C82.2118 118.849 81.5142 116.32 80.0452 114.567C79.353 113.748 78.456 113.127 77.4455 112.768C76.435 112.408 75.3473 112.323 74.2933 112.521C72.0209 113.063 70.6462 114.925 70.159 117.118C69.1777 121.53 70.122 126.407 70.9729 130.802C71.005 130.967 71.0369 131.132 71.0687 131.297C71.1229 131.578 71.1731 131.891 71.2264 132.223C71.5516 134.251 71.9898 136.982 74.147 137.444C77.3489 138.131 78.2997 133.38 75.2768 132.492ZM74.8655 134.689C74.8998 134.695 74.9187 134.716 74.9125 134.758C74.9125 134.76 74.8935 134.732 74.8655 134.689Z" fill="white"/>
<path d="M75.2768 132.492C74.8566 132.368 74.4939 132.431 74.2093 132.605C74.2033 132.561 74.1977 132.516 74.1925 132.472C73.9013 131.052 73.6244 129.632 73.3801 128.203C72.8164 125.311 72.5865 122.364 72.6948 119.42C72.7658 118.199 72.9185 116.596 73.9482 115.779C74.3631 115.454 74.869 115.266 75.3955 115.241C75.9221 115.217 76.4432 115.357 76.8866 115.642C78.059 116.281 78.5731 117.417 79.0439 118.624C79.613 120.125 80.085 121.661 80.4571 123.222C80.8831 124.932 81.2169 126.663 81.5009 128.402C81.6371 129.238 81.7618 130.076 81.8793 130.915C81.6941 130.932 81.5012 130.989 81.3056 131.094C78.8522 132.421 80.4982 136.501 83.1718 135.59C85.5135 134.793 84.9583 131.779 84.5706 129.675C84.5116 129.354 84.4564 129.055 84.4159 128.787C84.0517 126.244 83.5362 123.724 82.8721 121.242C82.8533 121.174 82.8343 121.105 82.8153 121.036C82.2118 118.849 81.5142 116.32 80.0452 114.567C79.353 113.748 78.456 113.127 77.4455 112.768C76.435 112.408 75.3473 112.323 74.2933 112.521C72.0209 113.063 70.6462 114.925 70.159 117.118C69.1777 121.53 70.122 126.407 70.9729 130.802C71.005 130.967 71.0369 131.132 71.0687 131.297C71.1229 131.578 71.1731 131.891 71.2264 132.223C71.5516 134.251 71.9898 136.982 74.147 137.444C77.3489 138.131 78.2997 133.38 75.2768 132.492ZM74.8655 134.689C74.8998 134.695 74.9187 134.716 74.9125 134.758C74.9125 134.76 74.8935 134.732 74.8655 134.689Z" stroke="white"/>
<path d="M92.5008 140.29C92.5513 143.042 92.5405 145.794 92.5298 148.547C92.519 151.291 92.5083 154.035 92.5583 156.779C92.5917 158.605 95.4328 158.611 95.3988 156.779C95.3488 154.035 95.3595 151.291 95.3702 148.547C95.381 145.794 95.3917 143.042 95.3412 140.29C95.3079 138.465 92.4674 138.459 92.5008 140.29Z" fill="white"/>
<path d="M92.5008 140.29C92.5513 143.042 92.5405 145.794 92.5298 148.547C92.519 151.291 92.5083 154.035 92.5583 156.779C92.5917 158.605 95.4328 158.611 95.3988 156.779C95.3488 154.035 95.3595 151.291 95.3702 148.547C95.381 145.794 95.3917 143.042 95.3412 140.29C95.3079 138.465 92.4674 138.459 92.5008 140.29Z" stroke="white"/>
<path d="M101.341 104.783C101.372 104.825 101.406 104.865 101.443 104.903C101.71 105.167 102.071 105.315 102.447 105.315C102.822 105.315 103.183 105.167 103.451 104.903C103.504 104.848 103.552 104.79 103.595 104.728C105.675 102.264 107.495 99.5904 109.024 96.7506C109.405 96.0286 109.769 95.2979 110.116 94.5585C110.408 94.1191 110.56 93.6023 110.554 93.075C110.446 92.6397 110.265 92.2256 110.02 91.8501C109.333 90.53 108.431 89.3331 107.352 88.3081C107.196 88.1593 107.009 88.0473 106.804 87.9802C106.599 87.9131 106.382 87.8925 106.168 87.9201C105.955 87.9476 105.75 88.0226 105.569 88.1395C105.388 88.2564 105.235 88.4122 105.122 88.5956C104.006 89.9106 102.695 91.0472 101.235 91.9658C100.275 92.5982 99.2795 93.1746 98.2529 93.6921C97.1998 94.1168 96.1695 94.5958 95.166 95.1273C93.2363 96.3771 94.8933 98.028 96.0311 99.1614C96.1635 99.2934 96.289 99.4184 96.4009 99.5349C96.8064 99.9572 97.216 100.378 97.6262 100.8C98.8926 102.101 100.165 103.408 101.341 104.783ZM107.588 93.2951C106.164 96.2793 104.423 99.1005 102.395 101.71C101.908 101.186 101.408 100.674 100.909 100.162C100.397 99.6368 99.8855 99.1118 99.3869 98.5748C98.8897 98.039 98.3924 97.5054 97.8804 96.9859C98.0159 96.9288 98.1514 96.8713 98.287 96.8116C98.8394 96.5669 99.3838 96.3065 99.9202 96.0305C101.004 95.4734 102.052 94.8492 103.058 94.1615C104.256 93.3778 105.361 92.4629 106.352 91.4352C106.817 92.0177 107.23 92.64 107.588 93.2951Z" fill="white"/>
<path d="M101.341 104.783C101.372 104.825 101.406 104.865 101.443 104.903C101.71 105.167 102.071 105.315 102.447 105.315C102.822 105.315 103.183 105.167 103.451 104.903C103.504 104.848 103.552 104.79 103.595 104.728C105.675 102.264 107.495 99.5904 109.024 96.7506C109.405 96.0286 109.769 95.2979 110.116 94.5585C110.408 94.1191 110.56 93.6023 110.554 93.075C110.446 92.6397 110.265 92.2256 110.02 91.8501C109.333 90.53 108.431 89.3331 107.352 88.3081C107.196 88.1593 107.009 88.0473 106.804 87.9802C106.599 87.9131 106.382 87.8925 106.168 87.9201C105.955 87.9476 105.75 88.0226 105.569 88.1395C105.388 88.2564 105.235 88.4122 105.122 88.5956C104.006 89.9106 102.695 91.0472 101.235 91.9658C100.275 92.5982 99.2795 93.1746 98.2529 93.6921C97.1998 94.1168 96.1695 94.5958 95.166 95.1273C93.2363 96.3771 94.8933 98.028 96.0311 99.1614C96.1635 99.2934 96.289 99.4184 96.4009 99.5349C96.8064 99.9572 97.216 100.378 97.6262 100.8C98.8926 102.101 100.165 103.408 101.341 104.783ZM107.588 93.2951C106.164 96.2793 104.423 99.1005 102.395 101.71C101.908 101.186 101.408 100.674 100.909 100.162C100.397 99.6368 99.8855 99.1118 99.3869 98.5748C98.8897 98.039 98.3924 97.5054 97.8804 96.9859C98.0159 96.9288 98.1514 96.8713 98.287 96.8116C98.8394 96.5669 99.3838 96.3065 99.9202 96.0305C101.004 95.4734 102.052 94.8492 103.058 94.1615C104.256 93.3778 105.361 92.4629 106.352 91.4352C106.817 92.0177 107.23 92.64 107.588 93.2951Z" stroke="white"/>
<path d="M87.1263 101.712C86.7664 102.099 86.4132 102.491 86.0715 102.894C85.8142 103.166 85.6707 103.525 85.6707 103.899C85.6707 104.273 85.8142 104.632 86.0715 104.903C86.3394 105.167 86.7001 105.315 87.0759 105.315C87.4517 105.315 87.8125 105.167 88.0804 104.903C88.0906 104.891 88.1008 104.879 88.111 104.867C88.1001 104.879 88.0889 104.891 88.0775 104.903C87.8096 105.167 87.4489 105.315 87.0731 105.315C86.6973 105.315 86.3365 105.167 86.0686 104.903C83.9262 102.391 82.0564 99.6578 80.4907 96.7506C80.0916 95.9903 79.7098 95.2215 79.3453 94.4441C79.0378 93.9868 78.9113 93.4315 78.9902 92.8861C79.1348 92.4901 79.3222 92.111 79.5491 91.7556C80.2274 90.4714 81.1113 89.3068 82.1658 88.3081C82.3218 88.1593 82.509 88.0473 82.7139 87.9802C82.9187 87.9131 83.1359 87.8925 83.3496 87.9201C83.5634 87.9476 83.7683 88.0226 83.9494 88.1395C84.1305 88.2564 84.2831 88.4122 84.3963 88.5956C85.5126 89.9107 86.8235 91.0472 88.2834 91.9658C89.2432 92.5988 90.239 93.1752 91.2659 93.6921C92.3207 94.116 93.3525 94.5951 94.357 95.1273C96.2892 96.3785 94.6354 98.0241 93.4969 99.1568C93.3626 99.2905 93.2354 99.417 93.1222 99.5349C92.7251 99.9479 92.3243 100.359 91.923 100.772C90.6381 102.091 89.3481 103.415 88.159 104.811L87.1263 101.712ZM87.1263 101.712C87.6119 101.19 88.1096 100.68 88.6072 100.169C89.1211 99.6415 89.6349 99.1142 90.1354 98.5748C90.6325 98.0386 91.1301 97.5054 91.643 96.9857C91.506 96.928 91.3689 96.8698 91.2318 96.8095C90.6803 96.5657 90.1359 96.3053 89.5986 96.0284C88.515 95.4711 87.4672 94.8469 86.4613 94.1594C85.2631 93.3757 84.1585 92.4609 83.1673 91.4331C82.7021 92.016 82.2881 92.6386 81.9304 93.294C83.3546 96.2794 85.0968 99.1017 87.1263 101.712Z" fill="white"/>
<path d="M87.1263 101.712C86.7664 102.099 86.4132 102.491 86.0715 102.894C85.8142 103.166 85.6707 103.525 85.6707 103.899C85.6707 104.273 85.8142 104.632 86.0715 104.903C86.3394 105.167 86.7001 105.315 87.0759 105.315C87.4517 105.315 87.8125 105.167 88.0804 104.903C88.0906 104.891 88.1008 104.879 88.111 104.867C88.1001 104.879 88.0889 104.891 88.0775 104.903C87.8096 105.167 87.4489 105.315 87.0731 105.315C86.6973 105.315 86.3365 105.167 86.0686 104.903C83.9262 102.391 82.0564 99.6578 80.4907 96.7506C80.0916 95.9903 79.7098 95.2215 79.3453 94.4441C79.0378 93.9868 78.9113 93.4315 78.9902 92.8861C79.1348 92.4901 79.3222 92.111 79.5491 91.7556C80.2274 90.4714 81.1113 89.3068 82.1658 88.3081C82.3218 88.1593 82.509 88.0473 82.7139 87.9802C82.9187 87.9131 83.1359 87.8925 83.3496 87.9201C83.5634 87.9476 83.7683 88.0226 83.9494 88.1395C84.1305 88.2564 84.2831 88.4122 84.3963 88.5956C85.5126 89.9107 86.8235 91.0472 88.2834 91.9658C89.2432 92.5988 90.239 93.1752 91.2659 93.6921C92.3207 94.116 93.3525 94.5951 94.357 95.1273C96.2892 96.3785 94.6354 98.0241 93.4969 99.1568C93.3626 99.2905 93.2354 99.417 93.1222 99.5349C92.7251 99.9479 92.3243 100.359 91.923 100.772C90.6381 102.091 89.3481 103.415 88.159 104.811L87.1263 101.712ZM87.1263 101.712C87.6119 101.19 88.1096 100.68 88.6072 100.169C89.1211 99.6415 89.6349 99.1142 90.1354 98.5748C90.6325 98.0386 91.1301 97.5054 91.643 96.9857C91.506 96.928 91.3689 96.8698 91.2318 96.8095C90.6803 96.5657 90.1359 96.3053 89.5986 96.0284C88.515 95.4711 87.4672 94.8469 86.4613 94.1594C85.2631 93.3757 84.1585 92.4609 83.1673 91.4331C82.7021 92.016 82.2881 92.6386 81.9304 93.294C83.3546 96.2794 85.0968 99.1017 87.1263 101.712Z" stroke="white"/>
<path d="M102.949 137.01L108.978 130.73C109.245 130.463 109.394 130.102 109.394 129.725C109.394 129.348 109.245 128.987 108.978 128.721C108.712 128.454 108.35 128.305 107.974 128.305C107.597 128.305 107.236 128.454 106.969 128.721L100.94 135.002C100.673 135.268 100.524 135.629 100.524 136.006C100.524 136.383 100.674 136.744 100.94 137.01C101.206 137.277 101.568 137.426 101.944 137.426C102.321 137.426 102.682 137.276 102.949 137.01Z" fill="white"/>
<path d="M102.949 137.01L108.978 130.73C109.245 130.463 109.394 130.102 109.394 129.725C109.394 129.348 109.245 128.987 108.978 128.721C108.712 128.454 108.35 128.305 107.974 128.305C107.597 128.305 107.236 128.454 106.969 128.721L100.94 135.002C100.673 135.268 100.524 135.629 100.524 136.006C100.524 136.383 100.674 136.744 100.94 137.01C101.206 137.277 101.568 137.426 101.944 137.426C102.321 137.426 102.682 137.276 102.949 137.01Z" stroke="white"/>
<path d="M113.31 71.3009C113.116 72.4008 112.78 73.471 112.312 74.4851C112.194 74.7691 112.081 75.0532 111.973 75.3429C111.973 75.3436 111.972 75.3443 111.972 75.3449C111.962 75.3642 111.951 75.3881 111.937 75.4175C111.916 75.4594 111.897 75.5014 111.877 75.5434C111.851 75.5976 111.826 75.6518 111.8 75.7058C111.139 77.0289 110.371 78.2955 109.504 79.4928C107.535 82.2622 104.847 85.2738 101.408 86.0819C99.6331 86.4995 100.383 89.2391 102.164 88.8208C106.234 87.865 109.368 84.4849 111.738 81.234C112.684 79.9605 113.518 78.6077 114.23 77.1906C115.097 75.5825 115.711 73.851 116.052 72.0565C116.14 71.6935 116.086 71.3108 115.901 70.9863C115.716 70.6618 115.415 70.4199 115.058 70.3096C114.695 70.2121 114.308 70.2617 113.981 70.4478C113.654 70.634 113.413 70.9415 113.311 71.3038L113.31 71.3009Z" fill="white"/>
<path d="M113.31 71.3009C113.116 72.4008 112.78 73.471 112.312 74.4851C112.194 74.7691 112.081 75.0532 111.973 75.3429C111.973 75.3436 111.972 75.3443 111.972 75.3449C111.962 75.3642 111.951 75.3881 111.937 75.4175C111.916 75.4594 111.897 75.5014 111.877 75.5434C111.851 75.5976 111.826 75.6518 111.8 75.7058C111.139 77.0289 110.371 78.2955 109.504 79.4928C107.535 82.2622 104.847 85.2738 101.408 86.0819C99.6331 86.4995 100.383 89.2391 102.164 88.8208C106.234 87.865 109.368 84.4849 111.738 81.234C112.684 79.9605 113.518 78.6077 114.23 77.1906C115.097 75.5825 115.711 73.851 116.052 72.0565C116.14 71.6935 116.086 71.3108 115.901 70.9863C115.716 70.6618 115.415 70.4199 115.058 70.3096C114.695 70.2121 114.308 70.2617 113.981 70.4478C113.654 70.634 113.413 70.9415 113.311 71.3038L113.31 71.3009Z" stroke="white"/>
<path d="M72.6376 71.0555C73.4592 75.3015 75.3293 79.2748 78.0777 82.6139C80.8727 86.0111 84.6818 88.9268 89.1292 89.6071C89.4922 89.6951 89.8751 89.6412 90.1998 89.4564C90.5244 89.2717 90.7663 88.97 90.8761 88.613C90.9733 88.2495 90.9235 87.8623 90.7374 87.5353C90.5514 87.2082 90.244 86.9676 89.8819 86.8654C85.8591 86.2504 82.6111 83.6741 80.0824 80.6036C77.6808 77.6133 76.0624 74.0715 75.3736 70.2985C75.0299 68.5054 72.2918 69.2646 72.634 71.0533L72.6376 71.0555Z" fill="white"/>
<path d="M72.6376 71.0555C73.4592 75.3015 75.3293 79.2748 78.0777 82.6139C80.8727 86.0111 84.6818 88.9268 89.1292 89.6071C89.4922 89.6951 89.8751 89.6412 90.1998 89.4564C90.5244 89.2717 90.7663 88.97 90.8761 88.613C90.9733 88.2495 90.9235 87.8623 90.7374 87.5353C90.5514 87.2082 90.244 86.9676 89.8819 86.8654C85.8591 86.2504 82.6111 83.6741 80.0824 80.6036C77.6808 77.6133 76.0624 74.0715 75.3736 70.2985C75.0299 68.5054 72.2918 69.2646 72.634 71.0533L72.6376 71.0555Z" stroke="white"/>
<path d="M108.94 31.2078C105.186 28.8476 100.915 27.4326 96.4949 27.084C92.0743 26.7353 87.6351 27.4634 83.5575 29.206C80.2643 30.6656 77.306 32.7859 74.8658 35.4356C72.4257 38.0852 70.5556 41.2078 69.3716 44.6098C67.6978 49.7025 67.5521 55.1741 68.9526 60.3487C69.4071 62.1176 72.1481 61.3677 71.6915 59.5931C69.7586 52.0702 71.2001 43.9309 76.374 38.0057C80.1917 33.6867 85.4278 30.875 91.137 30.0784C96.8461 29.2819 102.652 30.5529 107.506 33.6619C109.05 34.6497 110.477 32.192 108.94 31.2092V31.2078Z" fill="white"/>
<path d="M108.94 31.2078C105.186 28.8476 100.915 27.4326 96.4949 27.084C92.0743 26.7353 87.6351 27.4634 83.5575 29.206C80.2643 30.6656 77.306 32.7859 74.8658 35.4356C72.4257 38.0852 70.5556 41.2078 69.3716 44.6098C67.6978 49.7025 67.5521 55.1741 68.9526 60.3487C69.4071 62.1176 72.1481 61.3677 71.6915 59.5931C69.7586 52.0702 71.2001 43.9309 76.374 38.0057C80.1917 33.6867 85.4278 30.875 91.137 30.0784C96.8461 29.2819 102.652 30.5529 107.506 33.6619C109.05 34.6497 110.477 32.192 108.94 31.2092V31.2078Z" stroke="white"/>
<path d="M119.89 60.352C121.219 55.3093 121.125 49.9967 119.617 45.0044C118.366 41.0465 116.157 37.4589 113.186 34.56C111.878 33.2818 109.867 35.2879 111.177 36.569C113.807 39.1153 115.766 42.2728 116.878 45.7599C118.252 50.2566 118.347 55.047 117.151 59.5943C116.713 61.3696 119.452 62.1266 119.89 60.3499V60.352Z" fill="white"/>
<path d="M119.89 60.352C121.219 55.3093 121.125 49.9967 119.617 45.0044C118.366 41.0465 116.157 37.4589 113.186 34.56C111.878 33.2818 109.867 35.2879 111.177 36.569C113.807 39.1153 115.766 42.2728 116.878 45.7599C118.252 50.2566 118.347 55.047 117.151 59.5943C116.713 61.3696 119.452 62.1266 119.89 60.3499V60.352Z" stroke="white"/>
<path d="M116.276 62.3196C116.451 62.1822 116.652 62.0827 116.867 62.0273C117.081 61.972 117.305 61.9619 117.524 61.9979C117.743 62.0338 117.952 62.1149 118.138 62.2361C118.324 62.3572 118.483 62.5158 118.604 62.7016C118.826 63.2465 118.921 63.8345 118.882 64.4215C118.903 65.1154 118.853 65.8096 118.735 66.4936C118.497 67.8666 118 69.1817 117.269 70.368C116.962 70.8799 116.571 71.3373 116.114 71.7214C115.975 71.8748 115.794 71.9845 115.594 72.0372C115.394 72.0899 115.183 72.0833 114.986 72.0183C113.218 71.5467 112.464 74.2864 114.231 74.7579C116.489 75.36 118.258 73.9057 119.49 72.1518C120.673 70.3727 121.407 68.3328 121.628 66.2074C121.869 64.2298 121.864 61.7238 120.263 60.2858C119.431 59.5608 118.364 59.1634 117.261 59.168C116.158 59.1726 115.094 59.5788 114.268 60.3106C114.004 60.5785 113.857 60.9392 113.857 61.3151C113.857 61.691 114.004 62.0517 114.268 62.3196C114.538 62.5784 114.898 62.7229 115.272 62.7229C115.646 62.7229 116.006 62.5784 116.276 62.3196Z" fill="white"/>
<path d="M116.276 62.3196C116.451 62.1822 116.652 62.0827 116.867 62.0273C117.081 61.972 117.305 61.9619 117.524 61.9979C117.743 62.0338 117.952 62.1149 118.138 62.2361C118.324 62.3572 118.483 62.5158 118.604 62.7016C118.826 63.2465 118.921 63.8345 118.882 64.4215C118.903 65.1154 118.853 65.8096 118.735 66.4936C118.497 67.8666 118 69.1817 117.269 70.368C116.962 70.8799 116.571 71.3373 116.114 71.7214C115.975 71.8748 115.794 71.9845 115.594 72.0372C115.394 72.0899 115.183 72.0833 114.986 72.0183C113.218 71.5467 112.464 74.2864 114.231 74.7579C116.489 75.36 118.258 73.9057 119.49 72.1518C120.673 70.3727 121.407 68.3328 121.628 66.2074C121.869 64.2298 121.864 61.7238 120.263 60.2858C119.431 59.5608 118.364 59.1634 117.261 59.168C116.158 59.1726 115.094 59.5788 114.268 60.3106C114.004 60.5785 113.857 60.9392 113.857 61.3151C113.857 61.691 114.004 62.0517 114.268 62.3196C114.538 62.5784 114.898 62.7229 115.272 62.7229C115.646 62.7229 116.006 62.5784 116.276 62.3196Z" stroke="white"/>
<path d="M74.5297 60.3119C73.7036 59.581 72.64 59.1755 71.537 59.1709C70.434 59.1664 69.367 59.5631 68.5349 60.2871C66.891 61.7641 66.9301 64.3518 67.1914 66.3706C67.4329 68.51 68.2028 70.5557 69.4318 72.3235C70.7036 74.0682 72.6003 75.5488 74.8691 75.0489C75.049 74.9993 75.2173 74.9147 75.3644 74.8001C75.5116 74.6854 75.6348 74.5429 75.7268 74.3807C75.8189 74.2184 75.8782 74.0396 75.9011 73.8545C75.9241 73.6694 75.9104 73.4815 75.8608 73.3017C75.8112 73.1218 75.7267 72.9535 75.612 72.8064C75.4973 72.6592 75.3548 72.5361 75.1926 72.444C75.0303 72.3519 74.8515 72.2927 74.6664 72.2697C74.4813 72.2467 74.2934 72.2604 74.1136 72.31C73.1457 72.523 72.1111 71.2498 71.6431 70.5454C70.868 69.348 70.3384 68.0086 70.0851 66.605C69.96 65.9326 69.9027 65.2493 69.914 64.5655C69.8622 63.931 69.9595 63.2931 70.198 62.7029C70.3192 62.5171 70.4778 62.3586 70.6636 62.2374C70.8495 62.1163 71.0585 62.0351 71.2774 61.9992C71.4963 61.9633 71.7203 61.9733 71.9351 62.0287C72.1499 62.084 72.3508 62.1835 72.5251 62.3208C72.7964 62.5778 73.1558 62.721 73.5295 62.721C73.9032 62.721 74.2627 62.5778 74.534 62.3208C74.7973 62.0529 74.9449 61.6921 74.9449 61.3164C74.9449 60.9406 74.7973 60.5799 74.534 60.3119H74.5297Z" fill="white"/>
<path d="M74.5297 60.3119C73.7036 59.581 72.64 59.1755 71.537 59.1709C70.434 59.1664 69.367 59.5631 68.5349 60.2871C66.891 61.7641 66.9301 64.3518 67.1914 66.3706C67.4329 68.51 68.2028 70.5557 69.4318 72.3235C70.7036 74.0682 72.6003 75.5488 74.8691 75.0489C75.049 74.9993 75.2173 74.9147 75.3644 74.8001C75.5116 74.6854 75.6348 74.5429 75.7268 74.3807C75.8189 74.2184 75.8782 74.0396 75.9011 73.8545C75.9241 73.6694 75.9104 73.4815 75.8608 73.3017C75.8112 73.1218 75.7267 72.9535 75.612 72.8064C75.4973 72.6592 75.3548 72.5361 75.1926 72.444C75.0303 72.3519 74.8515 72.2927 74.6664 72.2697C74.4813 72.2467 74.2934 72.2604 74.1136 72.31C73.1457 72.523 72.1111 71.2498 71.6431 70.5454C70.868 69.348 70.3384 68.0086 70.0851 66.605C69.96 65.9326 69.9027 65.2493 69.914 64.5655C69.8622 63.931 69.9595 63.2931 70.198 62.7029C70.3192 62.5171 70.4778 62.3586 70.6636 62.2374C70.8495 62.1163 71.0585 62.0351 71.2774 61.9992C71.4963 61.9633 71.7203 61.9733 71.9351 62.0287C72.1499 62.084 72.3508 62.1835 72.5251 62.3208C72.7964 62.5778 73.1558 62.721 73.5295 62.721C73.9032 62.721 74.2627 62.5778 74.534 62.3208C74.7973 62.0529 74.9449 61.6921 74.9449 61.3164C74.9449 60.9406 74.7973 60.5799 74.534 60.3119H74.5297Z" stroke="white"/>
<path d="M95.876 76.5079C95.8745 76.508 95.8729 76.5082 95.8714 76.5083C95.7769 76.5176 95.6832 76.5254 95.5873 76.5318C95.3608 76.5467 95.1343 76.5523 94.9071 76.5509C94.704 76.5509 94.5009 76.5436 94.2978 76.5289C94.2031 76.5228 94.1101 76.515 94.0187 76.5055C93.9662 76.5005 93.9129 76.4948 93.8604 76.4877C93.7489 76.4742 93.7893 76.4799 93.9846 76.5048C93.9228 76.5346 93.7412 76.4809 93.6185 76.4446C93.5804 76.4333 93.548 76.4237 93.5266 76.4188C93.3803 76.3871 93.235 76.3495 93.0906 76.3059C93.0021 76.2793 92.915 76.2491 92.8278 76.2188C92.7919 76.2064 92.756 76.1939 92.7199 76.1817C92.7102 76.1783 92.7014 76.1753 92.6933 76.1726C92.549 76.104 92.4064 76.0327 92.2654 75.9587C91.941 75.782 91.5604 75.7387 91.2045 75.838C90.8486 75.9373 90.5455 76.1714 90.3594 76.4906C90.1732 76.8098 90.1188 77.1889 90.2077 77.5475C90.2966 77.9062 90.5217 78.2161 90.8353 78.4114C92.1319 79.0843 93.5765 79.4212 95.037 79.3914C96.5805 79.4501 98.0992 78.9909 99.3517 78.0869C99.4836 77.955 99.5883 77.7984 99.6597 77.6261C99.7311 77.4537 99.7678 77.269 99.7678 77.0825C99.7678 76.8959 99.7311 76.7112 99.6597 76.5388C99.5883 76.3665 99.4836 76.2099 99.3517 76.078C99.0798 75.8221 98.7205 75.6797 98.3472 75.6797C98.0565 75.6797 97.7743 75.7661 97.5353 75.9251C97.5766 75.8895 97.5196 75.9276 97.4359 75.9835C97.3454 76.0438 97.2238 76.125 97.161 76.1568C97.113 76.1821 97.0325 76.2132 96.9813 76.232M95.876 76.5079C95.8712 76.5098 95.8664 76.5118 95.8615 76.514C95.8708 76.5114 95.8802 76.5089 95.8895 76.5064M95.876 76.5079C95.9378 76.4828 95.9861 76.4767 95.9991 76.4794M95.876 76.5079C95.8806 76.5074 95.8852 76.5069 95.8895 76.5064M95.8895 76.5064C95.98 76.4963 96.0096 76.484 96.0012 76.4801C96.0007 76.4798 96 76.4796 95.9991 76.4794M95.8895 76.5064C95.9259 76.4968 95.9624 76.4878 95.9991 76.4794M95.9991 76.4794C96.1234 76.4511 96.2494 76.4301 96.3763 76.4167C96.5254 76.3819 96.6767 76.3422 96.8187 76.2953C96.8825 76.2749 96.9449 76.2512 97.0074 76.2274C97.0584 76.208 97.1093 76.1886 97.161 76.171C97.0742 76.2001 97.0167 76.2197 96.9813 76.232M96.9813 76.232C96.9446 76.2447 96.9316 76.2495 96.9343 76.2487C96.937 76.2479 96.9554 76.2415 96.9813 76.232Z" fill="white"/>
<path d="M95.876 76.5079C95.8745 76.508 95.8729 76.5082 95.8714 76.5083C95.7769 76.5176 95.6832 76.5254 95.5873 76.5318C95.3608 76.5467 95.1343 76.5523 94.9071 76.5509C94.704 76.5509 94.5009 76.5436 94.2978 76.5289C94.2031 76.5228 94.1101 76.515 94.0187 76.5055C93.9662 76.5005 93.9129 76.4948 93.8604 76.4877C93.7489 76.4742 93.7893 76.4799 93.9846 76.5048C93.9228 76.5346 93.7412 76.4809 93.6185 76.4446C93.5804 76.4333 93.548 76.4237 93.5266 76.4188C93.3803 76.3871 93.235 76.3495 93.0906 76.3059C93.0021 76.2793 92.915 76.2491 92.8278 76.2188C92.7919 76.2064 92.756 76.1939 92.7199 76.1817C92.7102 76.1783 92.7014 76.1753 92.6933 76.1726C92.549 76.104 92.4064 76.0327 92.2654 75.9587C91.941 75.782 91.5604 75.7387 91.2045 75.838C90.8486 75.9373 90.5455 76.1714 90.3594 76.4906C90.1732 76.8098 90.1188 77.1889 90.2077 77.5475C90.2966 77.9062 90.5217 78.2161 90.8353 78.4114C92.1319 79.0843 93.5765 79.4212 95.037 79.3914C96.5805 79.4501 98.0992 78.9909 99.3517 78.0869C99.4836 77.955 99.5883 77.7984 99.6597 77.6261C99.7311 77.4537 99.7678 77.269 99.7678 77.0825C99.7678 76.8959 99.7311 76.7112 99.6597 76.5388C99.5883 76.3665 99.4836 76.2099 99.3517 76.078C99.0798 75.8221 98.7205 75.6797 98.3472 75.6797C98.0565 75.6797 97.7743 75.7661 97.5353 75.9251C97.5766 75.8895 97.5196 75.9276 97.4359 75.9835C97.3454 76.0438 97.2238 76.125 97.161 76.1568C97.113 76.1821 97.0325 76.2132 96.9813 76.232M95.876 76.5079C95.8712 76.5098 95.8664 76.5118 95.8615 76.514C95.8708 76.5114 95.8802 76.5089 95.8895 76.5064M95.876 76.5079C95.9378 76.4828 95.9861 76.4767 95.9991 76.4794M95.876 76.5079C95.8806 76.5074 95.8852 76.5069 95.8895 76.5064M95.8895 76.5064C95.98 76.4963 96.0096 76.484 96.0012 76.4801C96.0007 76.4798 96 76.4796 95.9991 76.4794M95.8895 76.5064C95.9259 76.4968 95.9624 76.4878 95.9991 76.4794M95.9991 76.4794C96.1234 76.4511 96.2494 76.4301 96.3763 76.4167C96.5254 76.3819 96.6767 76.3422 96.8187 76.2953C96.8825 76.2749 96.9449 76.2512 97.0074 76.2274C97.0584 76.208 97.1093 76.1886 97.161 76.171C97.0742 76.2001 97.0167 76.2197 96.9813 76.232M96.9813 76.232C96.9446 76.2447 96.9316 76.2495 96.9343 76.2487C96.937 76.2479 96.9554 76.2415 96.9813 76.232Z" stroke="white"/>
<path d="M94.1436 68.7388C94.2326 69.0597 94.313 69.3829 94.3848 69.708C94.2959 69.7363 94.2107 69.7763 94.1316 69.8274C93.8064 70.0175 93.5701 70.329 93.4746 70.6934C93.3791 71.0578 93.4323 71.4451 93.6224 71.7703C93.7122 71.9309 93.8337 72.0716 93.9796 72.1838C94.1255 72.296 94.2927 72.3774 94.471 72.4229C94.5616 72.4352 94.6514 72.4512 94.7412 72.4673C94.9006 72.4958 95.0599 72.5243 95.223 72.5315C95.624 72.5329 96.0193 72.4366 96.3748 72.251C96.6061 72.1418 96.8104 71.983 96.9734 71.7859C97.1364 71.5888 97.254 71.3582 97.3178 71.1106C97.4025 70.7194 97.3991 70.3144 97.3079 69.9247C97.1978 69.2714 97.0473 68.6245 96.8818 67.984C96.7801 67.6275 96.5469 67.3229 96.2292 67.1318C95.8975 66.9419 95.5042 66.8908 95.135 66.9898C94.7778 67.0898 94.4733 67.3245 94.2857 67.6445C94.1001 67.9777 94.0493 68.3693 94.1436 68.7388Z" fill="white"/>
<path d="M94.1436 68.7388C94.2326 69.0597 94.313 69.3829 94.3848 69.708C94.2959 69.7363 94.2107 69.7763 94.1316 69.8274C93.8064 70.0175 93.5701 70.329 93.4746 70.6934C93.3791 71.0578 93.4323 71.4451 93.6224 71.7703C93.7122 71.9309 93.8337 72.0716 93.9796 72.1838C94.1255 72.296 94.2927 72.3774 94.471 72.4229C94.5616 72.4352 94.6514 72.4512 94.7412 72.4673C94.9006 72.4958 95.0599 72.5243 95.223 72.5315C95.624 72.5329 96.0193 72.4366 96.3748 72.251C96.6061 72.1418 96.8104 71.983 96.9734 71.7859C97.1364 71.5888 97.254 71.3582 97.3178 71.1106C97.4025 70.7194 97.3991 70.3144 97.3079 69.9247C97.1978 69.2714 97.0473 68.6245 96.8818 67.984C96.7801 67.6275 96.5469 67.3229 96.2292 67.1318C95.8975 66.9419 95.5042 66.8908 95.135 66.9898C94.7778 67.0898 94.4733 67.3245 94.2857 67.6445C94.1001 67.9777 94.0493 68.3693 94.1436 68.7388Z" stroke="white"/>
<path d="M83.8964 62.9496C83.574 63.9977 83.7842 66.4093 85.7696 66.6145C88.3971 66.5982 88.5341 63.6831 87.6507 62.3126C86.9271 61.1907 84.8003 60.7241 83.8964 62.9496Z" fill="white"/>
<path d="M83.8964 62.9496C83.574 63.9977 83.7842 66.4093 85.7696 66.6145C88.3971 66.5982 88.5341 63.6831 87.6507 62.3126C86.9271 61.1907 84.8003 60.7241 83.8964 62.9496Z" stroke="white"/>
<path d="M105.744 62.9496C106.067 63.9977 105.857 66.4093 103.871 66.6145C101.244 66.5982 101.107 63.6831 101.99 62.3126C102.713 61.1907 104.84 60.7241 105.744 62.9496Z" fill="white"/>
<path d="M105.744 62.9496C106.067 63.9977 105.857 66.4093 103.871 66.6145C101.244 66.5982 101.107 63.6831 101.99 62.3126C102.713 61.1907 104.84 60.7241 105.744 62.9496Z" stroke="white"/>
<path d="M93.3544 63.9473C93.5715 63.8936 93.7907 63.8486 94.0114 63.8125C94.5597 63.755 95.1125 63.7554 95.6607 63.814C95.9652 63.864 96.2666 63.9315 96.5634 64.0162C96.7433 64.0658 96.9311 64.0795 97.1162 64.0565C97.3014 64.0335 97.4802 63.9743 97.6424 63.8822C97.8047 63.7901 97.9472 63.667 98.0618 63.5198C98.1765 63.3726 98.261 63.2043 98.3107 63.0245C98.3603 62.8446 98.374 62.6568 98.351 62.4717C98.328 62.2865 98.2688 62.1077 98.1767 61.9455C98.0846 61.7832 97.9615 61.6407 97.8143 61.5261C97.6671 61.4114 97.4988 61.3269 97.319 61.2773C95.7788 60.8432 94.1521 60.8187 92.5996 61.2062C92.238 61.3091 91.9313 61.5497 91.7454 61.8764C91.5594 62.2031 91.5092 62.5898 91.6054 62.9531C91.7116 63.3125 91.9528 63.6168 92.2785 63.8022C92.6042 63.9876 92.9891 64.0396 93.3523 63.9473H93.3544Z" fill="white"/>
<path d="M93.3544 63.9473C93.5715 63.8936 93.7907 63.8486 94.0114 63.8125C94.5597 63.755 95.1125 63.7554 95.6607 63.814C95.9652 63.864 96.2666 63.9315 96.5634 64.0162C96.7433 64.0658 96.9311 64.0795 97.1162 64.0565C97.3014 64.0335 97.4802 63.9743 97.6424 63.8822C97.8047 63.7901 97.9472 63.667 98.0618 63.5198C98.1765 63.3726 98.261 63.2043 98.3107 63.0245C98.3603 62.8446 98.374 62.6568 98.351 62.4717C98.328 62.2865 98.2688 62.1077 98.1767 61.9455C98.0846 61.7832 97.9615 61.6407 97.8143 61.5261C97.6671 61.4114 97.4988 61.3269 97.319 61.2773C95.7788 60.8432 94.1521 60.8187 92.5996 61.2062C92.238 61.3091 91.9313 61.5497 91.7454 61.8764C91.5594 62.2031 91.5092 62.5898 91.6054 62.9531C91.7116 63.3125 91.9528 63.6168 92.2785 63.8022C92.6042 63.9876 92.9891 64.0396 93.3523 63.9473H93.3544Z" stroke="white"/>
<path d="M79.2075 60.7914C78.5265 60.634 77.8285 60.5625 77.1297 60.5783C76.7543 60.5847 76.3954 60.7335 76.1256 60.9945C75.872 61.2691 75.7245 61.6251 75.7095 61.9986C75.7095 62.3752 75.8591 62.7365 76.1254 63.0028C76.3918 63.2692 76.753 63.4188 77.1297 63.4188C77.4371 63.4093 77.7447 63.4204 78.0505 63.4518C78.1851 63.4739 78.3189 63.4998 78.4519 63.5296C78.6356 63.5886 78.8318 63.5972 79.02 63.5544C79.2077 63.5463 79.3899 63.4882 79.5476 63.3861C79.7095 63.3002 79.8466 63.1743 79.946 63.0204C80.0712 62.8843 80.1588 62.7178 80.2002 62.5375C80.2498 62.3576 80.2634 62.1696 80.2402 61.9843C80.2171 61.7991 80.1576 61.6202 80.0653 61.458C79.973 61.2957 79.8495 61.1533 79.7021 61.0388C79.5547 60.9243 79.3861 60.84 79.2061 60.7907L79.2075 60.7914Z" fill="white"/>
<path d="M79.2075 60.7914C78.5265 60.634 77.8285 60.5625 77.1297 60.5783C76.7543 60.5847 76.3954 60.7335 76.1256 60.9945C75.872 61.2691 75.7245 61.6251 75.7095 61.9986C75.7095 62.3752 75.8591 62.7365 76.1254 63.0028C76.3918 63.2692 76.753 63.4188 77.1297 63.4188C77.4371 63.4093 77.7447 63.4204 78.0505 63.4518C78.1851 63.4739 78.3189 63.4998 78.4519 63.5296C78.6356 63.5886 78.8318 63.5972 79.02 63.5544C79.2077 63.5463 79.3899 63.4882 79.5476 63.3861C79.7095 63.3002 79.8466 63.1743 79.946 63.0204C80.0712 62.8843 80.1588 62.7178 80.2002 62.5375C80.2498 62.3576 80.2634 62.1696 80.2402 61.9843C80.2171 61.7991 80.1576 61.6202 80.0653 61.458C79.973 61.2957 79.8495 61.1533 79.7021 61.0388C79.5547 60.9243 79.3861 60.84 79.2061 60.7907L79.2075 60.7914Z" stroke="white"/>
<path d="M111.236 63.5301C111.369 63.5004 111.502 63.4745 111.637 63.4525C111.943 63.4209 112.251 63.4098 112.558 63.4193C112.748 63.4277 112.937 63.3856 113.106 63.2972C113.359 63.1858 113.576 63.0046 113.73 62.7748C113.885 62.545 113.971 62.2759 113.978 61.9991C113.977 61.6227 113.828 61.2621 113.562 60.995C113.291 60.7366 112.933 60.5883 112.558 60.5789C112.267 60.5693 111.976 60.5785 111.687 60.6066C111.281 60.6432 110.878 60.7049 110.48 60.7912C110.299 60.8326 110.133 60.9202 109.997 61.0454C109.843 61.1448 109.717 61.2819 109.631 61.4438C109.529 61.6015 109.471 61.7837 109.463 61.9714C109.42 62.1596 109.429 62.3558 109.488 62.5395C109.587 62.8973 109.821 63.2027 110.141 63.3916L110.48 63.5336C110.727 63.6011 110.988 63.6011 111.235 63.5336L111.236 63.5301Z" fill="white"/>
<path d="M111.236 63.5301C111.369 63.5004 111.502 63.4745 111.637 63.4525C111.943 63.4209 112.251 63.4098 112.558 63.4193C112.748 63.4277 112.937 63.3856 113.106 63.2972C113.359 63.1858 113.576 63.0046 113.73 62.7748C113.885 62.545 113.971 62.2759 113.978 61.9991C113.977 61.6227 113.828 61.2621 113.562 60.995C113.291 60.7366 112.933 60.5883 112.558 60.5789C112.267 60.5693 111.976 60.5785 111.687 60.6066C111.281 60.6432 110.878 60.7049 110.48 60.7912C110.299 60.8326 110.133 60.9202 109.997 61.0454C109.843 61.1448 109.717 61.2819 109.631 61.4438C109.529 61.6015 109.471 61.7837 109.463 61.9714C109.42 62.1596 109.429 62.3558 109.488 62.5395C109.587 62.8973 109.821 63.2027 110.141 63.3916L110.48 63.5336C110.727 63.6011 110.988 63.6011 111.235 63.5336L111.236 63.5301Z" stroke="white"/>
<path d="M98.8629 62.8817C98.8597 62.9084 98.8661 62.7873 98.8717 62.7475C98.8979 62.6175 98.932 62.4911 98.9697 62.364C98.9801 62.329 98.9875 62.302 98.9926 62.2816C99.0014 62.2657 99.0119 62.2461 99.0244 62.222C99.0634 62.1446 99.1053 62.0672 99.15 61.9926C99.3628 61.678 99.6314 61.4051 99.9425 61.1874C100.899 60.6196 101.984 60.3021 103.096 60.2642C104.39 60.1495 105.693 60.3297 106.907 60.7911C107.256 60.9588 107.584 61.1641 107.888 61.4032C107.92 61.4323 107.991 61.5072 108.06 61.5803C108.169 61.6947 108.273 61.8044 108.215 61.7251C108.347 61.9019 108.462 62.0908 108.558 62.2894C108.556 62.2887 108.566 62.3133 108.579 62.3457C108.596 62.3912 108.62 62.4519 108.627 62.4784C108.638 62.5159 108.649 62.553 108.659 62.5902C108.68 62.66 108.701 62.7299 108.717 62.8022C108.719 62.8081 108.724 62.8386 108.73 62.8771C108.746 62.9724 108.771 63.1168 108.767 63.0579C108.773 63.1237 108.776 63.1896 108.779 63.2545C108.79 63.5625 108.78 63.8709 108.75 64.1777C108.75 64.1882 108.744 64.2401 108.739 64.281C108.736 64.3088 108.733 64.3316 108.733 64.3328C108.706 64.5033 108.668 64.6734 108.629 64.8409C108.571 65.0921 108.494 65.3387 108.4 65.5788C108.396 65.5846 108.378 65.6224 108.362 65.656C108.351 65.6785 108.342 65.6992 108.337 65.7072C108.254 65.8713 108.166 66.0332 108.067 66.1887C108.078 66.1711 107.962 66.3397 107.925 66.398C107.904 66.421 107.874 66.4557 107.843 66.4926C107.784 66.5602 107.72 66.6348 107.7 66.6559C107.605 66.7561 107.504 66.8498 107.402 66.94C107.353 66.9839 107.332 67.0044 107.326 67.0123C107.31 67.0231 107.285 67.0395 107.251 67.0635C106.208 67.7398 104.971 68.054 103.732 67.9576C103.671 67.9568 103.612 67.9591 103.554 67.9645C102.575 67.9494 101.611 67.7082 100.739 67.2588C100.711 67.2423 100.632 67.1864 100.551 67.1292C100.409 67.029 100.261 66.9245 100.372 67.0192C100.178 66.8546 99.9982 66.6755 99.8325 66.4834C99.8197 66.469 99.7936 66.4343 99.7744 66.4083C99.7159 66.324 99.6595 66.238 99.6052 66.1503C99.5491 66.058 99.4966 65.9636 99.4469 65.8663C99.4385 65.8505 99.4146 65.7987 99.3891 65.7436C99.3343 65.6251 99.2724 65.4913 99.3432 65.6668C98.9621 64.7898 98.7976 63.8346 98.8629 62.8817ZM98.8629 62.8817C98.8642 62.8713 98.8669 62.8385 98.8717 62.7695C98.8684 62.8069 98.8655 62.8443 98.8629 62.8817ZM103.816 70.7989C106.975 70.8175 109.895 69.4755 111.105 66.4145C112.198 63.6529 111.602 60.4389 109.061 58.7403C107.661 57.899 106.062 57.4437 104.429 57.4209C102.654 57.2951 100.874 57.6042 99.2452 58.3214C97.8913 58.9233 96.8309 60.0371 96.2961 61.4189C95.9005 62.7991 95.918 64.2651 96.3465 65.6355C96.716 67.1481 97.6037 68.4835 98.8553 69.4098C100.306 70.3487 102.004 70.8322 103.732 70.798C103.76 70.799 103.789 70.7993 103.816 70.7989ZM108.602 62.3853C108.599 62.379 108.597 62.373 108.594 62.3673C108.597 62.3733 108.6 62.3793 108.602 62.3853ZM108.758 62.9705C108.759 62.982 108.761 62.9936 108.762 63.0052C108.761 62.995 108.759 62.9834 108.758 62.9705Z" fill="white"/>
<path d="M98.8629 62.8817C98.8597 62.9084 98.8661 62.7873 98.8717 62.7475C98.8979 62.6175 98.932 62.4911 98.9697 62.364C98.9801 62.329 98.9875 62.302 98.9926 62.2816C99.0014 62.2657 99.0119 62.2461 99.0244 62.222C99.0634 62.1446 99.1053 62.0672 99.15 61.9926C99.3628 61.678 99.6314 61.4051 99.9425 61.1874C100.899 60.6196 101.984 60.3021 103.096 60.2642C104.39 60.1495 105.693 60.3297 106.907 60.7911C107.256 60.9588 107.584 61.1641 107.888 61.4032C107.92 61.4323 107.991 61.5072 108.06 61.5803C108.169 61.6947 108.273 61.8044 108.215 61.7251C108.347 61.9019 108.462 62.0908 108.558 62.2894C108.556 62.2887 108.566 62.3133 108.579 62.3457C108.596 62.3912 108.62 62.4519 108.627 62.4784C108.638 62.5159 108.649 62.553 108.659 62.5902C108.68 62.66 108.701 62.7299 108.717 62.8022C108.719 62.8081 108.724 62.8386 108.73 62.8771C108.746 62.9724 108.771 63.1168 108.767 63.0579C108.773 63.1237 108.776 63.1896 108.779 63.2545C108.79 63.5625 108.78 63.8709 108.75 64.1777C108.75 64.1882 108.744 64.2401 108.739 64.281C108.736 64.3088 108.733 64.3316 108.733 64.3328C108.706 64.5033 108.668 64.6734 108.629 64.8409C108.571 65.0921 108.494 65.3387 108.4 65.5788C108.396 65.5846 108.378 65.6224 108.362 65.656C108.351 65.6785 108.342 65.6992 108.337 65.7072C108.254 65.8713 108.166 66.0332 108.067 66.1887C108.078 66.1711 107.962 66.3397 107.925 66.398C107.904 66.421 107.874 66.4557 107.843 66.4926C107.784 66.5602 107.72 66.6348 107.7 66.6559C107.605 66.7561 107.504 66.8498 107.402 66.94C107.353 66.9839 107.332 67.0044 107.326 67.0123C107.31 67.0231 107.285 67.0395 107.251 67.0635C106.208 67.7398 104.971 68.054 103.732 67.9576C103.671 67.9568 103.612 67.9591 103.554 67.9645C102.575 67.9494 101.611 67.7082 100.739 67.2588C100.711 67.2423 100.632 67.1864 100.551 67.1292C100.409 67.029 100.261 66.9245 100.372 67.0192C100.178 66.8546 99.9982 66.6755 99.8325 66.4834C99.8197 66.469 99.7936 66.4343 99.7744 66.4083C99.7159 66.324 99.6595 66.238 99.6052 66.1503C99.5491 66.058 99.4966 65.9636 99.4469 65.8663C99.4385 65.8505 99.4146 65.7987 99.3891 65.7436C99.3343 65.6251 99.2724 65.4913 99.3432 65.6668C98.9621 64.7898 98.7976 63.8346 98.8629 62.8817ZM98.8629 62.8817C98.8642 62.8713 98.8669 62.8385 98.8717 62.7695C98.8684 62.8069 98.8655 62.8443 98.8629 62.8817ZM103.816 70.7989C106.975 70.8175 109.895 69.4755 111.105 66.4145C112.198 63.6529 111.602 60.4389 109.061 58.7403C107.661 57.899 106.062 57.4437 104.429 57.4209C102.654 57.2951 100.874 57.6042 99.2452 58.3214C97.8913 58.9233 96.8309 60.0371 96.2961 61.4189C95.9005 62.7991 95.918 64.2651 96.3465 65.6355C96.716 67.1481 97.6037 68.4835 98.8553 69.4098C100.306 70.3487 102.004 70.8322 103.732 70.798C103.76 70.799 103.789 70.7993 103.816 70.7989ZM108.602 62.3853C108.599 62.379 108.597 62.373 108.594 62.3673C108.597 62.3733 108.6 62.3793 108.602 62.3853ZM108.758 62.9705C108.759 62.982 108.761 62.9936 108.762 63.0052C108.761 62.995 108.759 62.9834 108.758 62.9705Z" stroke="white"/>
<path d="M85.8414 70.803C87.4097 70.7904 88.9483 70.3747 90.3095 69.5958C91.4767 68.8413 92.3687 67.7296 92.8524 66.4266C93.3795 65.0585 93.5463 63.5779 93.3367 62.1269C93.2017 61.4272 92.9232 60.7631 92.5188 60.1765C92.1144 59.5898 91.5928 59.0933 90.9869 58.7183C89.5583 57.8582 87.9209 57.4067 86.2533 57.4131C84.5003 57.3262 82.7514 57.6534 81.1483 58.3682C79.7979 58.9876 78.7376 60.1029 78.1871 61.4828C77.7246 62.8495 77.6982 64.3263 78.1119 65.7087C78.5081 67.2517 79.4392 68.6041 80.7393 69.5248C82.2563 70.4901 84.0449 70.9385 85.8379 70.803C85.8381 70.803 85.8382 70.803 85.8384 70.803C85.8394 70.803 85.8404 70.803 85.8414 70.803ZM85.8343 67.9611C85.7946 67.962 85.7551 67.9644 85.7158 67.9685C85.1697 67.9907 84.6227 67.9571 84.0832 67.8681C83.8246 67.8168 83.5692 67.7504 83.3184 67.6693C83.1038 67.6105 82.8985 67.5221 82.7084 67.4065C82.3148 67.2261 81.9684 66.9568 81.6965 66.6197C81.6543 66.5735 81.612 66.5262 81.5712 66.4781C81.6112 66.5234 81.5098 66.3855 81.455 66.3112C81.4378 66.2877 81.4252 66.2706 81.4231 66.2675C81.2871 66.0593 81.1664 65.8414 81.0621 65.6157C81.0945 65.6824 81.0111 65.4698 80.9807 65.3921C80.9746 65.3766 80.9706 65.3664 80.9701 65.365C80.9402 65.2748 80.9118 65.1839 80.8856 65.0923C80.807 64.8237 80.7464 64.5501 80.7044 64.2734C80.7019 64.2461 80.6985 64.2076 80.6938 64.1549C80.6796 63.9994 80.6683 63.8432 80.664 63.687C80.664 63.6465 80.6635 63.6061 80.6631 63.5656C80.6621 63.4846 80.6612 63.4034 80.664 63.322C80.664 63.2975 80.674 63.2119 80.6832 63.1332C80.6975 63.0108 80.7099 62.9052 80.6796 63.072C80.7242 62.6937 80.8537 62.3304 81.0584 62.0092C81.2632 61.688 81.5379 61.4173 81.862 61.2172C82.8143 60.636 83.9012 60.3118 85.0163 60.2763C86.3095 60.1361 87.6174 60.3047 88.8324 60.768C88.8555 60.7806 88.9322 60.818 88.9569 60.83C88.9612 60.8321 88.964 60.8335 88.9645 60.8337C89.1002 60.9012 89.2337 60.9758 89.3636 61.0524C89.4778 61.1199 89.5886 61.1929 89.6955 61.2713C89.7134 61.2876 89.7379 61.3098 89.7705 61.3393C89.8728 61.4317 89.9679 61.5289 90.0638 61.6276C90.0879 61.6525 90.1075 61.6724 90.1232 61.6881C90.1266 61.693 90.1305 61.6984 90.1348 61.7043C90.1989 61.7933 90.2584 61.8855 90.313 61.9806C90.3505 62.0464 90.3865 62.1127 90.4199 62.1805C90.4256 62.1964 90.4324 62.2149 90.4401 62.2362C90.4685 62.3193 90.4941 62.4031 90.5161 62.4883C90.5183 62.4971 90.5244 62.5314 90.5317 62.5725C90.5454 62.6502 90.5634 62.7519 90.5672 62.7488C90.5807 62.9557 90.5812 63.1632 90.5687 63.3703C90.5725 63.8623 90.5077 64.3525 90.3762 64.8267C90.3114 65.0982 90.228 65.365 90.1268 65.6251C90.118 65.6427 90.107 65.6647 90.0936 65.6916C90.0169 65.8464 89.9367 65.9984 89.8465 66.1454C89.8017 66.2164 89.7549 66.2874 89.7045 66.3584C89.6837 66.387 89.6672 66.4099 89.6552 66.4269C89.6146 66.4752 89.5727 66.5228 89.5305 66.5693C89.4595 66.6474 89.3835 66.7241 89.3054 66.798C89.2932 66.8097 89.2531 66.844 89.2095 66.8813C89.1524 66.9301 89.0892 66.9841 89.0752 66.9991C88.1161 67.6366 86.9872 67.972 85.8343 67.9611Z" fill="white"/>
<path d="M85.8414 70.803C87.4097 70.7904 88.9483 70.3747 90.3095 69.5958C91.4767 68.8413 92.3687 67.7296 92.8524 66.4266C93.3795 65.0585 93.5463 63.5779 93.3367 62.1269C93.2017 61.4272 92.9232 60.7631 92.5188 60.1765C92.1144 59.5898 91.5928 59.0933 90.9869 58.7183C89.5583 57.8582 87.9209 57.4067 86.2533 57.4131C84.5003 57.3262 82.7514 57.6534 81.1483 58.3682C79.7979 58.9876 78.7376 60.1029 78.1871 61.4828C77.7246 62.8495 77.6982 64.3263 78.1119 65.7087C78.5081 67.2517 79.4392 68.6041 80.7393 69.5248C82.2563 70.4901 84.0449 70.9385 85.8379 70.803C85.8381 70.803 85.8382 70.803 85.8384 70.803C85.8394 70.803 85.8404 70.803 85.8414 70.803ZM85.8343 67.9611C85.7946 67.962 85.7551 67.9644 85.7158 67.9685C85.1697 67.9907 84.6227 67.9571 84.0832 67.8681C83.8246 67.8168 83.5692 67.7504 83.3184 67.6693C83.1038 67.6105 82.8985 67.5221 82.7084 67.4065C82.3148 67.2261 81.9684 66.9568 81.6965 66.6197C81.6543 66.5735 81.612 66.5262 81.5712 66.4781C81.6112 66.5234 81.5098 66.3855 81.455 66.3112C81.4378 66.2877 81.4252 66.2706 81.4231 66.2675C81.2871 66.0593 81.1664 65.8414 81.0621 65.6157C81.0945 65.6824 81.0111 65.4698 80.9807 65.3921C80.9746 65.3766 80.9706 65.3664 80.9701 65.365C80.9402 65.2748 80.9118 65.1839 80.8856 65.0923C80.807 64.8237 80.7464 64.5501 80.7044 64.2734C80.7019 64.2461 80.6985 64.2076 80.6938 64.1549C80.6796 63.9994 80.6683 63.8432 80.664 63.687C80.664 63.6465 80.6635 63.6061 80.6631 63.5656C80.6621 63.4846 80.6612 63.4034 80.664 63.322C80.664 63.2975 80.674 63.2119 80.6832 63.1332C80.6975 63.0108 80.7099 62.9052 80.6796 63.072C80.7242 62.6937 80.8537 62.3304 81.0584 62.0092C81.2632 61.688 81.5379 61.4173 81.862 61.2172C82.8143 60.636 83.9012 60.3118 85.0163 60.2763C86.3095 60.1361 87.6174 60.3047 88.8324 60.768C88.8555 60.7806 88.9322 60.818 88.9569 60.83C88.9612 60.8321 88.964 60.8335 88.9645 60.8337C89.1002 60.9012 89.2337 60.9758 89.3636 61.0524C89.4778 61.1199 89.5886 61.1929 89.6955 61.2713C89.7134 61.2876 89.7379 61.3098 89.7705 61.3393C89.8728 61.4317 89.9679 61.5289 90.0638 61.6276C90.0879 61.6525 90.1075 61.6724 90.1232 61.6881C90.1266 61.693 90.1305 61.6984 90.1348 61.7043C90.1989 61.7933 90.2584 61.8855 90.313 61.9806C90.3505 62.0464 90.3865 62.1127 90.4199 62.1805C90.4256 62.1964 90.4324 62.2149 90.4401 62.2362C90.4685 62.3193 90.4941 62.4031 90.5161 62.4883C90.5183 62.4971 90.5244 62.5314 90.5317 62.5725C90.5454 62.6502 90.5634 62.7519 90.5672 62.7488C90.5807 62.9557 90.5812 63.1632 90.5687 63.3703C90.5725 63.8623 90.5077 64.3525 90.3762 64.8267C90.3114 65.0982 90.228 65.365 90.1268 65.6251C90.118 65.6427 90.107 65.6647 90.0936 65.6916C90.0169 65.8464 89.9367 65.9984 89.8465 66.1454C89.8017 66.2164 89.7549 66.2874 89.7045 66.3584C89.6837 66.387 89.6672 66.4099 89.6552 66.4269C89.6146 66.4752 89.5727 66.5228 89.5305 66.5693C89.4595 66.6474 89.3835 66.7241 89.3054 66.798C89.2932 66.8097 89.2531 66.844 89.2095 66.8813C89.1524 66.9301 89.0892 66.9841 89.0752 66.9991C88.1161 67.6366 86.9872 67.972 85.8343 67.9611Z" stroke="white"/>
<path d="M75.0301 61.9714C75.0505 61.6358 75.0619 61.2826 75.0736 60.9203C75.1169 59.5785 75.1642 58.1117 75.687 56.951C76.192 55.8293 77.2282 55.2255 78.2616 54.6233C78.8134 54.3018 79.3644 53.9807 79.8333 53.5815C80.7836 52.7719 81.4409 51.7011 82.097 50.6322C82.5535 49.8886 83.0093 49.146 83.5628 48.4928C84.6351 47.226 86.7001 47.5249 88.1224 47.8935C89.129 48.1545 90.0795 48.5703 91.0305 48.9864C91.8749 49.3558 92.7198 49.7254 93.6045 49.9869C95.4959 50.5443 97.4548 50.5027 99.4048 50.4612C99.6908 50.4552 99.9765 50.4491 100.262 50.4449C102.426 50.413 104.593 50.3895 106.758 50.4392C107.586 50.4356 108.413 50.4981 109.231 50.626C109.571 50.68 109.906 50.7636 110.232 50.876C110.354 50.9216 110.396 50.9351 110.408 50.9384C110.405 50.9395 110.417 50.9513 110.546 51.018C110.565 51.028 110.642 51.0806 110.705 51.1236C110.744 51.1508 110.778 51.1741 110.789 51.1808C110.987 51.3471 111.038 51.5094 111.119 51.7643C111.139 51.8277 111.161 51.8968 111.188 51.9731C111.491 52.8437 111.782 53.7185 112.04 54.6047C112.645 56.7088 113.135 58.8157 113.581 60.9581C113.954 62.7469 116.692 61.9899 116.32 60.2033C115.883 58.1063 115.404 56.047 114.818 53.9862C114.755 53.7666 114.694 53.5378 114.63 53.3035C114.305 52.0989 113.94 50.7499 113.267 49.7582C112.283 48.3075 110.551 47.9304 108.915 47.7302C106.741 47.5465 104.556 47.499 102.376 47.5881C101.71 47.5911 101.027 47.6211 100.339 47.6515C98.5297 47.7311 96.6766 47.8127 94.9615 47.4106C93.8626 47.1527 92.8324 46.7037 91.8021 46.2546C90.8465 45.8381 89.8909 45.4216 88.8801 45.1574C86.9628 44.6603 84.6905 44.492 82.8804 45.4479C81.4694 46.1919 80.5802 47.6449 79.7237 49.0446C79.3655 49.6299 79.013 50.2059 78.6304 50.7169C78.0656 51.4711 77.3309 51.9021 76.5609 52.3539C76.355 52.4747 76.1467 52.5969 75.9384 52.7272C74.8694 53.3503 73.9787 54.238 73.3521 55.3049C72.4302 56.9784 72.3314 59.0662 72.2401 60.9953C72.2245 61.3263 72.209 61.6527 72.1897 61.9714C72.0789 63.7971 74.9201 63.7908 75.0301 61.9714Z" fill="white"/>
<path d="M75.0301 61.9714C75.0505 61.6358 75.0619 61.2826 75.0736 60.9203C75.1169 59.5785 75.1642 58.1117 75.687 56.951C76.192 55.8293 77.2282 55.2255 78.2616 54.6233C78.8134 54.3018 79.3644 53.9807 79.8333 53.5815C80.7836 52.7719 81.4409 51.7011 82.097 50.6322C82.5535 49.8886 83.0093 49.146 83.5628 48.4928C84.6351 47.226 86.7001 47.5249 88.1224 47.8935C89.129 48.1545 90.0795 48.5703 91.0305 48.9864C91.8749 49.3558 92.7198 49.7254 93.6045 49.9869C95.4959 50.5443 97.4548 50.5027 99.4048 50.4612C99.6908 50.4552 99.9765 50.4491 100.262 50.4449C102.426 50.413 104.593 50.3895 106.758 50.4392C107.586 50.4356 108.413 50.4981 109.231 50.626C109.571 50.68 109.906 50.7636 110.232 50.876C110.354 50.9216 110.396 50.9351 110.408 50.9384C110.405 50.9395 110.417 50.9513 110.546 51.018C110.565 51.028 110.642 51.0806 110.705 51.1236C110.744 51.1508 110.778 51.1741 110.789 51.1808C110.987 51.3471 111.038 51.5094 111.119 51.7643C111.139 51.8277 111.161 51.8968 111.188 51.9731C111.491 52.8437 111.782 53.7185 112.04 54.6047C112.645 56.7088 113.135 58.8157 113.581 60.9581C113.954 62.7469 116.692 61.9899 116.32 60.2033C115.883 58.1063 115.404 56.047 114.818 53.9862C114.755 53.7666 114.694 53.5378 114.63 53.3035C114.305 52.0989 113.94 50.7499 113.267 49.7582C112.283 48.3075 110.551 47.9304 108.915 47.7302C106.741 47.5465 104.556 47.499 102.376 47.5881C101.71 47.5911 101.027 47.6211 100.339 47.6515C98.5297 47.7311 96.6766 47.8127 94.9615 47.4106C93.8626 47.1527 92.8324 46.7037 91.8021 46.2546C90.8465 45.8381 89.8909 45.4216 88.8801 45.1574C86.9628 44.6603 84.6905 44.492 82.8804 45.4479C81.4694 46.1919 80.5802 47.6449 79.7237 49.0446C79.3655 49.6299 79.013 50.2059 78.6304 50.7169C78.0656 51.4711 77.3309 51.9021 76.5609 52.3539C76.355 52.4747 76.1467 52.5969 75.9384 52.7272C74.8694 53.3503 73.9787 54.238 73.3521 55.3049C72.4302 56.9784 72.3314 59.0662 72.2401 60.9953C72.2245 61.3263 72.209 61.6527 72.1897 61.9714C72.0789 63.7971 74.9201 63.7908 75.0301 61.9714Z" stroke="white"/>
</svg>
