<svg width="347" height="347" viewBox="0 0 347 347" fill="none" xmlns="http://www.w3.org/2000/svg">
<g filter="url(#filter0_i_84_146)">
<path d="M346.5 346.5C300.997 346.5 255.939 337.538 213.9 320.124C171.861 302.711 133.663 277.188 101.487 245.013C69.312 212.837 43.789 174.639 26.3757 132.6C8.96248 90.5605 -3.978e-06 45.503 0 -3.05176e-05H138.6C138.6 27.3018 143.977 54.3363 154.425 79.5599C164.873 104.783 180.187 127.702 199.492 147.008C218.798 166.313 241.717 181.627 266.94 192.075C292.164 202.523 319.198 207.9 346.5 207.9V346.5Z" fill="#4EACE1" fill-opacity="0.62"/>
</g>
<defs>
<filter id="filter0_i_84_146" x="0" y="0" width="346.5" height="350.5" filterUnits="userSpaceOnUse" color-interpolation-filters="sRGB">
<feFlood flood-opacity="0" result="BackgroundImageFix"/>
<feBlend mode="normal" in="SourceGraphic" in2="BackgroundImageFix" result="shape"/>
<feColorMatrix in="SourceAlpha" type="matrix" values="0 0 0 0 0 0 0 0 0 0 0 0 0 0 0 0 0 0 127 0" result="hardAlpha"/>
<feOffset dy="4"/>
<feGaussianBlur stdDeviation="28.5"/>
<feComposite in2="hardAlpha" operator="arithmetic" k2="-1" k3="1"/>
<feColorMatrix type="matrix" values="0 0 0 0 0 0 0 0 0 0 0 0 0 0 0 0 0 0 0.25 0"/>
<feBlend mode="normal" in2="shape" result="effect1_innerShadow_84_146"/>
</filter>
</defs>
</svg>
