<svg width="192" height="193" viewBox="0 0 192 193" fill="none" xmlns="http://www.w3.org/2000/svg">
<path d="M160.464 80.8439C173.856 67.4519 173.856 45.7413 160.468 32.353L159.777 31.6638C146.385 18.2718 124.674 18.2718 111.282 31.6638L31.1627 111.783C17.7722 125.175 17.7728 146.888 31.1644 160.28L31.8499 160.965C45.2419 174.357 66.9544 174.357 80.3462 160.965L160.464 80.8439ZM165.894 86.2745L85.7767 166.396C69.3857 182.787 42.8102 182.787 26.4191 166.396L25.7336 165.71C9.34294 149.32 9.34219 122.745 25.7317 106.353L105.851 26.2332C122.242 9.84216 148.816 9.84216 165.203 26.2295L165.894 26.9187C182.285 43.3098 182.286 69.8832 165.894 86.2745Z" fill="white"/>
<path d="M65.7224 71.7936L120.335 126.406C121.835 127.906 124.266 127.906 125.766 126.406C127.265 124.907 127.265 122.475 125.766 120.976L71.1529 66.363C69.6533 64.8634 67.222 64.8634 65.7224 66.363C64.2227 67.8626 64.2227 70.2939 65.7224 71.7936ZM34.1008 101.749V169.493C34.1008 171.614 35.82 173.333 37.9408 173.333C40.0616 173.333 41.7808 171.614 41.7808 169.493V101.749C41.7808 99.6285 40.0616 97.9093 37.9408 97.9093C35.82 97.9093 34.1008 99.6285 34.1008 101.749ZM54.2609 79.4156V174.644C54.2609 176.765 55.98 178.484 58.1009 178.484C60.2217 178.484 61.9409 176.765 61.9409 174.644V79.4156C61.9409 77.2948 60.2217 75.5756 58.1009 75.5756C55.98 75.5756 54.2609 77.2948 54.2609 79.4156Z" fill="white"/>
<path d="M74.6128 80.2453V165.518C74.6128 167.639 76.332 169.358 78.4528 169.358C80.5736 169.358 82.2928 167.639 82.2928 165.518V80.2453C82.2928 78.1245 80.5736 76.4053 78.4528 76.4053C76.332 76.4053 74.6128 78.1245 74.6128 80.2453ZM94.5808 101.749V144.719C94.5808 146.84 96.3 148.559 98.4208 148.559C100.542 148.559 102.261 146.84 102.261 144.719V101.749C102.261 99.6284 100.542 97.9093 98.4208 97.9093C96.3 97.9093 94.5808 99.6284 94.5808 101.749Z" fill="white"/>
</svg>
