<svg width="200" height="210" viewBox="0 0 200 210" fill="none" xmlns="http://www.w3.org/2000/svg">
<path fill-rule="evenodd" clip-rule="evenodd" d="M114.158 44.5888V39.5H122.597V44.6681C125.247 45.1718 127.789 46.1805 130.078 47.653C133.583 49.9066 136.339 53.1457 138 56.9611L130.259 60.3132C129.263 58.024 127.609 56.0805 125.506 54.7283C124.595 54.1421 123.616 53.6783 122.597 53.3444V68.6804C130.564 70.0151 135.022 73.6922 137.107 78.111C138.205 80.4381 138.488 82.6671 138.51 84.279C138.521 85.0926 138.466 85.7776 138.404 86.2807C138.373 86.5333 138.339 86.7432 138.31 86.9042C138.296 86.9847 138.283 87.0533 138.271 87.1092C138.271 87.1123 138.27 87.1154 138.269 87.1185C138.261 87.1652 138.249 87.222 138.236 87.2881C138.207 87.4246 138.167 87.6015 138.113 87.8134C138.004 88.2362 137.838 88.8037 137.591 89.4699C137.098 90.7948 136.267 92.5592 134.893 94.3567C132.487 97.504 128.588 100.514 122.597 101.613V108.192H114.158V101.704C108.391 100.645 104.356 97.2641 101.765 93.9926C100.146 91.9483 99.0454 89.9042 98.3489 88.3827C97.9979 87.616 97.7421 86.9656 97.5695 86.4917C97.483 86.2543 97.4169 86.0599 97.3698 85.9158C97.3462 85.8437 97.3273 85.784 97.313 85.7378C97.3058 85.7146 97.2997 85.6948 97.2948 85.6785L97.2882 85.6565L97.2855 85.6475L97.2843 85.6435C97.2838 85.6417 97.2832 85.6398 101.331 84.4526C105.379 83.2654 105.379 83.2637 105.378 83.2621L105.377 83.259L105.374 83.2479C105.376 83.2547 105.382 83.2738 105.392 83.3043C105.412 83.3654 105.448 83.4717 105.501 83.6166C105.607 83.9074 105.779 84.3478 106.025 84.8859C106.523 85.974 107.295 87.3954 108.387 88.7744C109.794 90.5521 111.652 92.1825 114.158 93.0244V76.0582C107.074 74.5814 103.003 71.0318 100.962 66.9305C99.8279 64.6503 99.4587 62.4589 99.3635 60.8632C99.3155 60.0583 99.3356 59.3794 99.3711 58.8798C99.3889 58.6291 99.4108 58.4207 99.4306 58.261C99.4349 58.2268 99.439 58.1948 99.443 58.1651C99.4447 58.1467 99.4466 58.1275 99.4486 58.1076C99.4628 57.9648 99.4844 57.7828 99.5174 57.5671C99.5832 57.137 99.6952 56.565 99.8863 55.8978C100.267 54.5702 100.977 52.8084 102.309 51.0423C104.602 48.0006 108.364 45.4297 114.158 44.5888ZM114.158 53.1402C111.202 53.8107 109.779 55.1389 109.053 56.1021C108.475 56.8686 108.164 57.6392 108 58.2109C107.919 58.4934 107.878 58.7128 107.86 58.8366C107.854 58.8752 107.85 58.9036 107.848 58.9208L107.838 59.1028L107.805 59.2982C107.802 59.3244 107.795 59.3849 107.789 59.4751C107.775 59.665 107.764 59.9742 107.787 60.3632C107.834 61.1553 108.017 62.175 108.521 63.1883C109.138 64.4281 110.532 66.2593 114.158 67.3821V53.1402ZM122.597 77.2527V92.9716C125.477 92.1209 127.158 90.593 128.183 89.2522C128.943 88.2577 129.408 87.2721 129.678 86.5452C129.811 86.1854 129.893 85.9014 129.937 85.7293C129.958 85.6456 129.97 85.5898 129.975 85.5663C129.975 85.5658 129.976 85.5652 129.976 85.5647L129.989 85.4877L130.004 85.419C130.009 85.3934 130.018 85.3365 130.028 85.2525C130.051 85.0689 130.077 84.7698 130.072 84.3938C130.061 83.6267 129.924 82.6552 129.471 81.6957C128.878 80.4378 127.332 78.3391 122.597 77.2527ZM105.374 83.2471L105.374 83.2479C105.373 83.2445 105.373 83.2442 105.374 83.2471ZM80.0324 114.037C79.7836 113.974 79.5245 113.962 79.2709 114.002C79.0169 114.042 78.774 114.134 78.5569 114.271L78.549 114.276L60.219 125.763L72.6077 143.745L77.9779 140.678L119.742 152.227C126.076 148.107 149.656 132.538 161.371 124.284L161.558 124.152L161.758 124.041C162.125 123.838 162.435 123.547 162.662 123.195C162.888 122.842 163.023 122.439 163.054 122.022C163.086 121.604 163.013 121.186 162.842 120.804C162.671 120.421 162.407 120.088 162.075 119.832L161.946 119.733L161.825 119.625C161.101 118.974 160.184 118.575 159.212 118.489C158.241 118.403 157.268 118.634 156.439 119.147L156.358 119.197L156.275 119.244C154.41 120.286 150.626 122.899 147.112 125.406C145.399 126.629 143.814 127.78 142.657 128.626C142.079 129.049 141.609 129.394 141.284 129.634C141.195 129.7 141.117 129.758 141.05 129.807C140.995 129.847 140.948 129.882 140.91 129.91L140.783 130.004L140.782 130.005L140.782 130.005C138.911 131.392 136.268 131.004 134.878 129.138C133.488 127.273 133.877 124.636 135.747 123.249L138.264 126.627C135.747 123.249 135.747 123.249 135.747 123.249L135.748 123.249L135.885 123.148C135.973 123.082 136.103 122.986 136.269 122.864C136.602 122.618 137.081 122.266 137.669 121.837C138.843 120.978 140.455 119.807 142.201 118.56C145.569 116.157 149.704 113.279 152.072 111.944C154.436 110.505 157.2 109.859 159.96 110.104C162.7 110.347 165.29 111.455 167.354 113.265C168.733 114.358 169.829 115.766 170.547 117.372C171.288 119.029 171.605 120.843 171.469 122.651C171.333 124.46 170.749 126.207 169.768 127.734C168.834 129.19 167.568 130.403 166.075 131.276C153.898 139.845 129.583 155.885 123.933 159.55C123.073 160.119 122.1 160.498 121.081 160.66C120.053 160.823 119.002 160.762 118 160.481C117.996 160.48 117.991 160.478 117.987 160.477L79.1159 149.728L77.3292 150.749C77.6028 151.311 77.8063 151.906 77.934 152.52C78.1369 153.497 78.1445 154.504 77.9563 155.484C77.7681 156.463 77.3879 157.396 76.8374 158.229C76.287 159.062 75.5771 159.778 74.7486 160.336L74.7244 160.352L61.1609 169.223C60.3376 169.772 59.4145 170.155 58.4437 170.35C57.4621 170.548 56.4511 170.55 55.4689 170.356C54.4867 170.163 53.5524 169.777 52.7199 169.222C51.8875 168.667 51.1734 167.953 50.6186 167.121L29.7789 135.84C29.7778 135.838 29.7766 135.836 29.7754 135.834C29.2204 135.004 28.8353 134.072 28.6424 133.092C28.4491 132.111 28.4526 131.101 28.6527 130.121C28.8527 129.14 29.2454 128.209 29.808 127.381C30.3707 126.553 31.0921 125.844 31.9308 125.296L31.9489 125.284L45.1313 116.854L45.1335 116.853C46.7845 115.799 48.7792 115.419 50.7033 115.794C52.6097 116.165 54.3016 117.248 55.4342 118.82L74.0363 107.163C74.0392 107.161 74.0421 107.159 74.045 107.157C75.2319 106.408 76.5598 105.908 77.9472 105.688C79.338 105.468 80.7593 105.534 82.1237 105.882L82.1261 105.882C89.9122 107.873 113.503 114.338 122.334 117.437C130.484 120.288 135.518 129.27 131.021 136.506L131.013 136.519L131.005 136.531C128.604 140.333 125.356 142.282 121.935 142.93C118.713 143.54 115.649 142.94 113.461 142.323L113.312 142.281L111.511 141.627L96.0466 135.044C93.9033 134.132 92.9073 131.659 93.8219 129.521C94.7365 127.383 97.2154 126.389 99.3587 127.302L114.611 133.795L115.898 134.261C117.537 134.711 119.064 134.905 120.361 134.66C121.493 134.445 122.714 133.858 123.855 132.06C124.582 130.867 124.373 127.07 119.541 125.38L119.539 125.379L119.537 125.379C111.096 122.416 87.8322 116.032 80.0333 114.037M49.0183 124.368L37.2725 131.879L57.1797 161.761L69.313 153.825L49.0183 124.368Z" fill="#006B92"/>
</svg>
