<svg width="21" height="20" viewBox="0 0 21 20" fill="none" xmlns="http://www.w3.org/2000/svg">
<path d="M10.0645 0C4.52903 0 0 4.41296 0 9.80658C0 15.2002 4.52903 19.6132 10.0645 19.6132C15.6 19.6132 20.129 15.2002 20.129 9.80658C20.129 4.41296 15.6 0 10.0645 0ZM10.0645 2.45164C14.2413 2.45164 17.6129 5.73685 17.6129 9.80658C17.6129 13.8763 14.2413 17.1615 10.0645 17.1615C5.88774 17.1615 2.51613 13.8763 2.51613 9.80658C2.51613 5.73685 5.88774 2.45164 10.0645 2.45164ZM10.0645 4.90329C9.36 4.90329 8.80645 5.44265 8.80645 6.12911C8.80645 6.81557 9.36 7.35493 10.0645 7.35493C10.769 7.35493 11.3226 6.81557 11.3226 6.12911C11.3226 5.44265 10.769 4.90329 10.0645 4.90329ZM5.88774 7.35493C5.67941 7.42011 5.49213 7.5371 5.34439 7.69435C5.19665 7.85161 5.09355 8.04369 5.04528 8.25163C4.99701 8.45957 5.00523 8.67619 5.06913 8.88009C5.13304 9.08399 5.25042 9.26812 5.40968 9.41431L7.69935 11.6453C7.64903 11.8414 7.54839 12.0376 7.54839 12.2582C7.54839 13.6066 8.68064 14.7099 10.0645 14.7099C11.4484 14.7099 12.5806 13.6066 12.5806 12.2582C12.5806 10.9098 11.4484 9.80658 10.0645 9.80658C9.83806 9.80658 9.63677 9.90464 9.43548 9.95368L7.14581 7.72268C7.00814 7.57423 6.83527 7.46086 6.64229 7.39249C6.44931 7.32411 6.24209 7.3028 6.03871 7.33042C5.98843 7.32747 5.93802 7.32747 5.88774 7.33042V7.35493ZM13.8387 7.35493C13.1342 7.35493 12.5806 7.89429 12.5806 8.58075C12.5806 9.26721 13.1342 9.80658 13.8387 9.80658C14.5432 9.80658 15.0968 9.26721 15.0968 8.58075C15.0968 7.89429 14.5432 7.35493 13.8387 7.35493Z" fill="black"/>
</svg>
