<svg width="23" height="16" viewBox="0 0 23 16" fill="none" xmlns="http://www.w3.org/2000/svg">
<path d="M0 0V16H23V0H0Z" fill="#012169"/>
<path d="M0 0L23 16L0 0ZM23 0L0 16L23 0Z" fill="#2CAA4D"/>
<path d="M23 0L0 16L23 0ZM0 0L23 16L0 0Z" stroke="white" stroke-width="4.6"/>
<path d="M0 0L23 16L0 0ZM23 0L0 16L23 0Z" fill="#2CAA4D"/>
<path d="M23 0L0 16L23 0ZM0 0L23 16L0 0Z" stroke="#C8102E" stroke-width="3.06667"/>
<path d="M11.5 0V16V0ZM0 8H23H0Z" fill="#2CAA4D"/>
<path d="M0 8H23H0ZM11.5 0V16V0Z" stroke="white" stroke-width="7.66667"/>
<path d="M11.5 0V16V0ZM0 8H23H0Z" fill="#2CAA4D"/>
<path d="M0 8H23H0ZM11.5 0V16V0Z" stroke="#C8102E" stroke-width="4.6"/>
</svg>
