<svg width="39" height="38" viewBox="0 0 39 38" fill="none" xmlns="http://www.w3.org/2000/svg">
	<g clip-path="url(#clip0_226_542)">
		<path
			d="M23.447 5.25488H15.3619C7.77089 5.25488 1.61719 11.4086 1.61719 18.9996C1.61719 26.5905 7.77089 32.7442 15.3619 32.7442H23.447C31.038 32.7442 37.1917 26.5905 37.1917 18.9996C37.1917 11.4086 31.038 5.25488 23.447 5.25488Z"
			fill="url(#paint0_linear_226_542)" />
		<path
			d="M5.56641 23.4469V15.2148H8.81424C9.43591 15.2148 9.96653 15.326 10.406 15.5484C10.8481 15.7682 11.1845 16.0804 11.4149 16.485C11.6481 16.887 11.7646 17.36 11.7646 17.904C11.7646 18.4506 11.6467 18.9209 11.4109 19.3148C11.1751 19.706 10.8334 20.0062 10.3859 20.2152C9.94106 20.4242 9.40243 20.5287 8.77002 20.5287H6.59542V19.1299H8.48865C8.82095 19.1299 9.09698 19.0844 9.31665 18.9933C9.5364 18.9021 9.69988 18.7655 9.80709 18.5833C9.91697 18.401 9.97187 18.1746 9.97187 17.904C9.97187 17.6306 9.91697 17.4002 9.80709 17.2126C9.69988 17.025 9.53511 16.883 9.31269 16.7865C9.09294 16.6873 8.81554 16.6377 8.48057 16.6377H7.30689V23.4469H5.56641ZM10.0121 19.7007L12.0581 23.4469H10.1366L8.13493 19.7007H10.0121ZM14.3935 17.2728L15.5269 19.4314L16.6886 17.2728H18.4451L16.6565 20.3599L18.4934 23.4469H16.7448L15.5269 21.3126L14.3291 23.4469H12.5605L14.3935 20.3599L12.6248 17.2728H14.3935ZM19.2451 22.1607V20.4242L22.5572 15.2148H24.1328V17.5301H23.2325L21.4478 20.3599V20.4242H26.3356V22.1607H19.2451ZM23.2486 23.4469V21.6301L23.2968 20.8744V15.2148H25.387V23.4469H23.2486ZM27.442 23.4469V15.2148H32.8926V16.6498H29.1825V18.6114H32.5308V20.0463H29.1825V23.4469H27.442Z"
			fill="#F3F3F3" />
		<path
			d="M19.8086 0.808594H19.0001C8.9532 0.808594 0.808594 8.9532 0.808594 19.0001C0.808594 29.047 8.9532 37.1916 19.0001 37.1916H19.8086C29.8555 37.1916 38.0001 29.047 38.0001 19.0001C38.0001 8.9532 29.8555 0.808594 19.8086 0.808594Z"
			stroke="url(#paint1_linear_226_542)" stroke-width="2" />
	</g>
	<defs>
		<linearGradient id="paint0_linear_226_542" x1="5.93695" y1="8.66389" x2="35.2853"
			y2="34.1187" gradientUnits="userSpaceOnUse">
			<stop stop-color="#2A88F7" />
			<stop offset="0.442708" stop-color="#5DB0CD" />
			<stop offset="1" stop-color="#6E98EB" />
		</linearGradient>
		<linearGradient id="paint1_linear_226_542" x1="4.71254" y1="4.71257" x2="42.9156"
			y2="30.8615" gradientUnits="userSpaceOnUse">
			<stop stop-color="#2A88F7" />
			<stop offset="0.442708" stop-color="#5DB0CD" />
			<stop offset="1" stop-color="#6E98EB" />
		</linearGradient>
		<clipPath id="clip0_226_542">
			<rect width="38.8085" height="38" fill="white" />
		</clipPath>
	</defs>
</svg>