<svg width="46" height="46" viewBox="0 0 46 46" fill="none" xmlns="http://www.w3.org/2000/svg">
<path d="M39.485 0V39.414C39.6824 39.4797 39.9456 39.414 40.0773 39.414H45.4077C45.7368 39.414 46 39.1512 46 38.8228V0.656899C46 0.26276 45.7368 0.0656899 45.4077 0.0656899H39.4192L39.485 0ZM32.9042 3.2845L13.7539 12.9409C13.4249 13.0723 12.8984 13.138 12.5036 13.138H0.592275C0.197425 13.138 0 13.4007 0 13.7292V25.6191C0 26.0132 0.263233 26.2103 0.592275 26.2103H6.58083L13.3591 44.078C14.083 45.7202 16.2547 46.4428 17.8999 45.7202C19.5451 44.9976 20.269 42.8298 19.5451 41.1876L14.6094 29.4948C14.8069 28.5751 15.465 28.0496 16.4521 28.0496V27.8525L32.9042 36.0638V3.21881V3.2845Z" fill="#667B8B"/>
</svg>
