<svg width="15" height="18" viewBox="0 0 15 18" fill="none" xmlns="http://www.w3.org/2000/svg">
<path d="M6.42857 0V8.57H8.57143V0H6.42857ZM3.68571 3.0852L2.87143 3.74938C1.13571 5.12057 0 7.26307 0 9.64125C0 13.7763 3.36429 17.14 7.5 17.14C11.6357 17.14 15 13.7763 15 9.64125C15 7.26307 13.8643 5.12057 12.1286 3.74938L11.3143 3.0852L9.96429 4.75635L10.7786 5.42053C12.0214 6.40608 12.8571 7.92725 12.8571 9.64125C12.8571 12.6193 10.4786 14.9975 7.5 14.9975C4.52143 14.9975 2.14286 12.6193 2.14286 9.64125C2.14286 7.92725 2.91429 6.40608 4.15714 5.42053L5.03571 4.75635L3.68571 3.0852Z" fill="black"/>
</svg>
