<?xml version="1.0" encoding="utf-8"?>
<!-- Generator: Adobe Illustrator 27.0.0, SVG Export Plug-In . SVG Version: 6.00 Build 0)  -->
<svg version="1.1" id="Layer_1" xmlns="http://www.w3.org/2000/svg" xmlns:xlink="http://www.w3.org/1999/xlink" x="0px" y="0px"
	 viewBox="0 0 488 101" style="enable-background:new 0 0 488 101;" xml:space="preserve">
<style type="text/css">
	.st0{fill:#FFFFFF;}
	.st1{fill:url(#SVGID_1_);}
	.st2{fill:#F3F3F3;}
	.st3{fill:none;stroke:url(#SVGID_00000183206923569792674940000008686956530556177057_);stroke-width:7;}
</style>
<path class="st0" d="M32.2,69V32.6h14.3c2.8,0,5.1,0.5,7,1.6c1.9,1,3.4,2.5,4.4,4.4c1,1.8,1.5,4,1.5,6.4s-0.5,4.5-1.6,6.4
	c-1,1.8-2.6,3.3-4.5,4.3c-2,1-4.3,1.5-7.1,1.5h-9.1V51H45c1.5,0,2.7-0.3,3.7-0.8s1.7-1.2,2.2-2.1c0.5-0.9,0.7-2,0.7-3.2
	s-0.2-2.3-0.7-3.2s-1.2-1.6-2.2-2.1s-2.2-0.8-3.7-0.8h-5.2V69H32.2z M64.4,69V41.7h7.3v4.8H72c0.5-1.7,1.3-3,2.5-3.8
	c1.2-0.9,2.5-1.3,4-1.3c0.4,0,0.8,0,1.2,0.1c0.4,0,0.8,0.1,1.2,0.2v6.7c-0.4-0.1-0.8-0.2-1.5-0.3C78.8,48,78.2,48,77.7,48
	c-1.1,0-2.1,0.2-3,0.7s-1.6,1.1-2.1,2s-0.7,1.8-0.7,2.9V69H64.4z M96,69.5c-2.8,0-5.2-0.6-7.2-1.7s-3.6-2.8-4.7-4.9
	s-1.6-4.6-1.6-7.5c0-2.8,0.5-5.3,1.6-7.4c1.1-2.1,2.6-3.8,4.6-5s4.3-1.8,7-1.8c1.8,0,3.5,0.3,5,0.9c1.6,0.6,2.9,1.4,4.1,2.6
	c1.2,1.1,2.1,2.6,2.7,4.3c0.7,1.7,1,3.8,1,6.1v2.1h-23v-4.7h15.9c0-1.1-0.2-2.1-0.7-2.9c-0.5-0.8-1.1-1.5-2-2
	c-0.8-0.5-1.8-0.7-2.9-0.7s-2.2,0.3-3.1,0.8s-1.6,1.2-2.1,2.1c-0.5,0.9-0.8,1.9-0.8,2.9v4.5c0,1.3,0.2,2.5,0.7,3.5s1.2,1.7,2.1,2.3
	c0.9,0.5,2,0.8,3.3,0.8c0.8,0,1.6-0.1,2.3-0.4c0.7-0.2,1.3-0.6,1.8-1.1s0.9-1.1,1.1-1.7l7,0.5c-0.4,1.7-1.1,3.1-2.2,4.4
	c-1.1,1.2-2.5,2.2-4.2,2.9C100.2,69.2,98.3,69.5,96,69.5z M113.5,69V41.7h7.2v4.8h0.3c0.6-1.6,1.5-2.9,2.8-3.8
	c1.3-0.9,2.9-1.4,4.8-1.4c1.9,0,3.5,0.5,4.8,1.4s2.2,2.2,2.6,3.8h0.3c0.6-1.6,1.6-2.8,3-3.7c1.5-0.9,3.2-1.4,5.2-1.4
	c2.5,0,4.6,0.8,6.2,2.4c1.6,1.6,2.4,3.9,2.4,6.9V69h-7.5V52.1c0-1.5-0.4-2.7-1.2-3.4c-0.8-0.8-1.8-1.1-3-1.1c-1.4,0-2.4,0.4-3.2,1.3
	c-0.8,0.9-1.2,2-1.2,3.4V69h-7.3V52c0-1.3-0.4-2.4-1.2-3.2s-1.8-1.2-3-1.2c-0.8,0-1.6,0.2-2.3,0.6c-0.7,0.4-1.2,1-1.6,1.8
	c-0.4,0.7-0.6,1.6-0.6,2.6V69H113.5z M159.1,69V41.7h7.6V69H159.1z M162.9,38.2c-1.1,0-2.1-0.4-2.9-1.1c-0.8-0.8-1.2-1.7-1.2-2.7
	s0.4-1.9,1.2-2.7s1.8-1.1,2.9-1.1c1.1,0,2.1,0.4,2.9,1.1c0.8,0.7,1.2,1.6,1.2,2.7c0,1.1-0.4,2-1.2,2.7C165,37.8,164,38.2,162.9,38.2
	z M185.1,69.5c-2.8,0-5.2-0.6-7.2-1.7s-3.6-2.8-4.7-4.9c-1.1-2.1-1.6-4.6-1.6-7.5c0-2.8,0.5-5.3,1.6-7.4c1.1-2.1,2.6-3.8,4.6-5
	s4.3-1.8,7-1.8c1.8,0,3.5,0.3,5,0.9c1.6,0.6,2.9,1.4,4.1,2.6c1.2,1.1,2.1,2.6,2.7,4.3c0.7,1.7,1,3.8,1,6.1v2.1h-23v-4.7h15.9
	c0-1.1-0.2-2.1-0.7-2.9c-0.5-0.8-1.1-1.5-2-2c-0.8-0.5-1.8-0.7-2.9-0.7c-1.1,0-2.2,0.3-3.1,0.8c-0.9,0.5-1.6,1.2-2.1,2.1
	c-0.5,0.9-0.8,1.9-0.8,2.9v4.5c0,1.3,0.2,2.5,0.7,3.5s1.2,1.7,2.1,2.3c0.9,0.5,2,0.8,3.3,0.8c0.8,0,1.6-0.1,2.3-0.4
	c0.7-0.2,1.3-0.6,1.8-1.1s0.9-1.1,1.1-1.7l7,0.5c-0.4,1.7-1.1,3.1-2.2,4.4c-1.1,1.2-2.5,2.2-4.2,2.9
	C189.4,69.2,187.4,69.5,185.1,69.5z M238.2,42.7l5,9.5l5.1-9.5h7.8l-7.9,13.6l8.1,13.6h-7.7l-5.4-9.4l-5.3,9.4h-7.8l8.1-13.6
	l-7.8-13.6C230.4,42.7,238.2,42.7,238.2,42.7z M200.6,69.8V33.5H215c2.7,0,5.1,0.5,7,1.5c2,1,3.4,2.3,4.5,4.1c1,1.8,1.5,3.9,1.5,6.3
	c0,2.4-0.5,4.5-1.6,6.2c-1,1.7-2.6,3.1-4.5,4c-2,0.9-4.3,1.4-7.1,1.4h-9.6v-6.2h8.4c1.5,0,2.7-0.2,3.7-0.6c1-0.4,1.7-1,2.2-1.8
	s0.7-1.8,0.7-3s-0.2-2.2-0.7-3.1c-0.5-0.8-1.2-1.5-2.2-1.9s-2.2-0.7-3.7-0.7h-5.2v30.1H200.6z M220.3,53.3l9,16.5h-8.5L212,53.3
	H220.3z"/>
<linearGradient id="SVGID_1_" gradientUnits="userSpaceOnUse" x1="338.7899" y1="138.8515" x2="413.7789" y2="271.0125" gradientTransform="matrix(1 0 0 1 0 -146)">
	<stop  offset="0" style="stop-color:#2A88F7"/>
	<stop  offset="0.4427" style="stop-color:#5DB0CD"/>
	<stop  offset="1" style="stop-color:#6E98EB"/>
</linearGradient>
<path class="st1" d="M305.5,10h132c22.4,0,40.5,18.1,40.5,40.5l0,0c0,22.4-18.1,40.5-40.5,40.5h-132C283.1,91,265,72.9,265,50.5l0,0
	C265,28.1,283.1,10,305.5,10z"/>
<path class="st2" d="M296.1,63.3v-7.7l14.6-23h7v10.2h-4l-7.9,12.5v0.3h21.6v7.7H296.1z M313.7,69v-8l0.2-3.3v-25h9.2V69H313.7z"/>
<path class="st2" d="M342.8,69V32.6h24.8v7.1h-16v7.5H366v7.2h-14.5V69H342.8z M371.5,69V41.7h8.4v5h0.3c0.5-1.8,1.3-3.1,2.4-4
	s2.4-1.3,3.9-1.3c0.4,0,0.8,0,1.2,0.1c0.4,0,0.8,0.1,1.2,0.2v7.5c-0.4-0.1-1-0.3-1.6-0.3c-0.7-0.1-1.3-0.1-1.8-0.1
	c-1,0-2,0.2-2.8,0.7c-0.8,0.4-1.5,1.1-1.9,1.9c-0.5,0.8-0.7,1.8-0.7,2.8V69H371.5z M403.8,69.5c-2.9,0-5.3-0.6-7.4-1.7
	s-3.6-2.8-4.8-4.8c-1.1-2.1-1.7-4.6-1.7-7.5c0-2.8,0.6-5.3,1.7-7.4c1.1-2.1,2.7-3.8,4.7-4.9c2-1.2,4.4-1.8,7.2-1.8
	c1.9,0,3.7,0.3,5.3,0.9c1.6,0.6,3,1.5,4.2,2.7s2.1,2.6,2.7,4.4c0.7,1.7,1,3.7,1,5.9v2.2H393v-5h15.6c0-0.9-0.2-1.7-0.7-2.5
	c-0.4-0.7-1-1.3-1.8-1.7c-0.7-0.4-1.6-0.6-2.5-0.6c-1,0-1.8,0.2-2.6,0.7c-0.8,0.4-1.4,1-1.8,1.8c-0.4,0.7-0.7,1.6-0.7,2.5v5.1
	c0,1.1,0.2,2.1,0.7,2.9c0.4,0.8,1.1,1.5,1.9,1.9c0.8,0.5,1.8,0.7,2.9,0.7c0.8,0,1.5-0.1,2.1-0.3s1.2-0.5,1.6-0.9s0.8-0.9,1-1.5
	l8,0.2c-0.3,1.8-1.1,3.3-2.2,4.7c-1.1,1.3-2.6,2.3-4.4,3.1C408.3,69.2,406.2,69.5,403.8,69.5z M434,69.5c-2.9,0-5.3-0.6-7.4-1.7
	S423,65,421.8,63c-1.1-2.1-1.7-4.6-1.7-7.5c0-2.8,0.6-5.3,1.7-7.4c1.1-2.1,2.7-3.8,4.7-4.9c2-1.2,4.4-1.8,7.2-1.8
	c1.9,0,3.7,0.3,5.3,0.9c1.6,0.6,3,1.5,4.2,2.7s2.1,2.6,2.7,4.4c0.7,1.7,1,3.7,1,5.9v2.2h-23.7v-5h15.6c0-0.9-0.2-1.7-0.7-2.5
	c-0.4-0.7-1-1.3-1.8-1.7c-0.7-0.4-1.6-0.6-2.5-0.6c-1,0-1.8,0.2-2.6,0.7c-0.8,0.4-1.4,1-1.8,1.8c-0.5,0.7-0.7,1.6-0.7,2.5v5.1
	c0,1.1,0.2,2.1,0.7,2.9c0.4,0.8,1.1,1.5,1.9,1.9c0.8,0.5,1.8,0.7,2.9,0.7c0.8,0,1.5-0.1,2.1-0.3s1.2-0.5,1.6-0.9s0.8-0.9,1-1.5
	l8,0.2c-0.3,1.8-1.1,3.3-2.2,4.7c-1.1,1.3-2.6,2.3-4.4,3.1C438.4,69.2,436.3,69.5,434,69.5z"/>
<linearGradient id="SVGID_00000143606035682908865590000017193967411482070438_" gradientUnits="userSpaceOnUse" x1="217.2101" y1="109.7479" x2="278.627" y2="308.6306" gradientTransform="matrix(1 0 0 1 0 -146)">
	<stop  offset="0" style="stop-color:#2A88F7"/>
	<stop  offset="0.4427" style="stop-color:#5DB0CD"/>
	<stop  offset="1" style="stop-color:#6E98EB"/>
</linearGradient>
<path style="fill:none;stroke:url(#SVGID_00000143606035682908865590000017193967411482070438_);stroke-width:7;" d="M50.5,3.5h387
	c26,0,47,21,47,47l0,0c0,26-21,47-47,47h-387c-26,0-47-21-47-47l0,0C3.5,24.5,24.5,3.5,50.5,3.5z"/>
</svg>
