<svg width="47" height="47" viewBox="0 0 47 47" fill="none" xmlns="http://www.w3.org/2000/svg">
<path d="M20.1862 0L17.3107 6.84375C16.7356 7.01628 16.218 7.30384 15.7004 7.59139L8.85662 4.71586L4.71586 8.85662L7.59139 15.7004C7.30383 16.2755 7.07379 16.7356 6.84375 17.3107L0 20.1862V25.9372L6.84375 28.8128C7.07379 29.3879 7.30383 29.848 7.59139 30.4231L4.71586 37.2668L8.85662 41.4076L15.7004 38.532C16.218 38.7621 16.7356 39.0496 17.3107 39.2797L20.1862 46.1234H25.9372L28.8128 39.2797C29.3304 39.0496 29.9055 38.8196 30.4231 38.532L37.2668 41.4076L41.4076 37.2668L38.532 30.4231C38.7621 29.9055 39.0496 29.3304 39.2797 28.8128L46.1234 25.9372V20.1862L39.2797 17.3107C39.1072 16.7931 38.8196 16.218 38.532 15.7004L41.4076 8.85662L37.2668 4.71586L30.4231 7.59139C29.9055 7.36135 29.3304 7.07379 28.8128 6.84375L25.9372 0L20.1862 0ZM23.0617 14.3776C27.8351 14.3776 31.6883 18.2308 31.6883 23.0042C31.6883 27.7776 27.8351 31.6308 23.0617 31.6308C18.2883 31.6308 14.4351 27.7776 14.4351 23.0042C14.4351 18.2308 18.2883 14.3776 23.0617 14.3776Z" fill="#667B8B"/>
</svg>
