<svg width="46" height="53" viewBox="0 0 46 53" fill="none" xmlns="http://www.w3.org/2000/svg">
<path d="M0.592275 0C0.197425 0 0 0.265332 0 0.596996V52.403C0 52.7347 0.263233 53 0.592275 53H45.4077C45.7368 53 46 52.7347 46 52.403V0.596996C46 0.198999 45.7368 0 45.4077 0L0.592275 0ZM6.58083 6.63329H39.485V19.8999H6.58083V6.63329ZM6.58083 26.5332H13.1617V33.1665H6.58083V26.5332ZM19.7425 26.5332H26.3233V33.1665H19.7425V26.5332ZM32.9042 26.5332H39.485V46.433H32.9042V26.5332ZM6.58083 39.7998H13.1617V46.433H6.58083V39.7998ZM19.7425 39.7998H26.3233V46.433H19.7425V39.7998Z" fill="#667B8B"/>
</svg>
