<?xml version="1.0" encoding="utf-8"?>
<!-- Generator: Adobe Illustrator 27.0.0, SVG Export Plug-In . SVG Version: 6.00 Build 0)  -->
<svg version="1.1" id="Layer_1" xmlns="http://www.w3.org/2000/svg" xmlns:xlink="http://www.w3.org/1999/xlink" x="0px" y="0px"
	 viewBox="0 0 508.5 108.8" style="enable-background:new 0 0 508.5 108.8;" xml:space="preserve">
<style type="text/css">
	.st0{display:none;fill:#FFFFFF;}
	.st1{fill:#393939;}
	.st2{fill:url(#SVGID_1_);}
	.st3{fill:#F3F3F3;}
	.st4{fill:none;stroke:url(#SVGID_00000132780997889049729720000002125078415351104433_);stroke-width:7;}
</style>
<path shape-rendering="crispEdges" class="st0" d="M53.5-6.2h400c33.1,0,60,26.9,60,60v1c0,33.1-26.9,60-60,60h-400
	c-33.1,0-60-26.9-60-60v-1C-6.5,20.7,20.4-6.2,53.5-6.2z"/>
<path class="st1" d="M42.7,72.8V36.3H57c2.8,0,5.1,0.5,7,1.6c1.9,1,3.4,2.5,4.4,4.4c1,1.8,1.5,4,1.5,6.4s-0.5,4.5-1.6,6.4
	c-1,1.8-2.6,3.3-4.5,4.3c-2,1-4.3,1.5-7.1,1.5h-9.1v-6.2h7.9c1.5,0,2.7-0.3,3.7-0.8s1.7-1.2,2.2-2.1s0.7-2,0.7-3.2s-0.2-2.3-0.7-3.2
	c-0.5-0.9-1.2-1.6-2.2-2.1s-2.2-0.8-3.7-0.8h-5.2v30.2H42.7z M74.9,72.8V45.4h7.3v4.8h0.3c0.5-1.7,1.3-3,2.5-3.8
	c1.2-0.9,2.5-1.3,4-1.3c0.4,0,0.8,0,1.2,0.1c0.4,0,0.8,0.1,1.2,0.2v6.7c-0.4-0.1-0.8-0.2-1.5-0.3c-0.6-0.1-1.2-0.1-1.7-0.1
	c-1.1,0-2.1,0.2-3,0.7s-1.6,1.1-2.1,2s-0.7,1.8-0.7,2.9v15.4H74.9z M106.5,73.2c-2.8,0-5.2-0.6-7.2-1.7s-3.6-2.8-4.7-4.9
	c-1.1-2.1-1.6-4.6-1.6-7.5c0-2.8,0.5-5.3,1.6-7.4s2.6-3.8,4.6-5s4.3-1.8,7-1.8c1.8,0,3.5,0.3,5,0.9c1.6,0.6,2.9,1.4,4.1,2.6
	c1.2,1.1,2.1,2.6,2.7,4.3c0.7,1.7,1,3.8,1,6.1v2.1H96v-4.7h15.9c0-1.1-0.2-2.1-0.7-2.9s-1.1-1.5-2-2c-0.8-0.5-1.8-0.7-2.9-0.7
	c-1.1,0-2.2,0.3-3.1,0.8c-0.9,0.5-1.6,1.2-2.1,2.1s-0.8,1.9-0.8,2.9V61c0,1.3,0.2,2.5,0.7,3.5s1.2,1.7,2.1,2.3
	c0.9,0.5,2,0.8,3.3,0.8c0.8,0,1.6-0.1,2.3-0.4c0.7-0.2,1.3-0.6,1.8-1.1s0.9-1.1,1.1-1.7l7,0.5c-0.4,1.7-1.1,3.1-2.2,4.4
	c-1.1,1.2-2.5,2.2-4.2,2.9C110.7,72.9,108.8,73.2,106.5,73.2z M124,72.8V45.4h7.2v4.8h0.3c0.6-1.6,1.5-2.9,2.8-3.8s2.9-1.4,4.8-1.4
	c1.9,0,3.5,0.5,4.8,1.4s2.2,2.2,2.6,3.8h0.3c0.6-1.6,1.6-2.8,3-3.7c1.5-0.9,3.2-1.4,5.2-1.4c2.5,0,4.6,0.8,6.2,2.4
	c1.6,1.6,2.4,3.9,2.4,6.9v18.3h-7.5V55.9c0-1.5-0.4-2.7-1.2-3.4c-0.8-0.8-1.8-1.1-3-1.1c-1.4,0-2.4,0.4-3.2,1.3s-1.2,2-1.2,3.4v16.6
	h-7.3v-17c0-1.3-0.4-2.4-1.2-3.2c-0.8-0.8-1.8-1.2-3-1.2c-0.8,0-1.6,0.2-2.3,0.6s-1.2,1-1.6,1.8c-0.4,0.7-0.6,1.6-0.6,2.6v16.4H124z
	 M169.6,72.8V45.4h7.6v27.3H169.6z M173.4,41.9c-1.1,0-2.1-0.4-2.9-1.1c-0.8-0.8-1.2-1.7-1.2-2.7s0.4-1.9,1.2-2.7
	c0.8-0.8,1.8-1.1,2.9-1.1c1.1,0,2.1,0.4,2.9,1.1c0.8,0.7,1.2,1.6,1.2,2.7s-0.4,2-1.2,2.7C175.5,41.6,174.5,41.9,173.4,41.9z
	 M195.6,73.2c-2.8,0-5.2-0.6-7.2-1.7s-3.6-2.8-4.7-4.9c-1.1-2.1-1.6-4.6-1.6-7.5c0-2.8,0.5-5.3,1.6-7.4s2.6-3.8,4.6-5s4.3-1.8,7-1.8
	c1.8,0,3.5,0.3,5,0.9c1.6,0.6,2.9,1.4,4.1,2.6c1.2,1.1,2.1,2.6,2.7,4.3c0.7,1.7,1,3.8,1,6.1v2.1h-23v-4.7H201c0-1.1-0.2-2.1-0.7-2.9
	s-1.1-1.5-2-2c-0.8-0.5-1.8-0.7-2.9-0.7c-1.1,0-2.2,0.3-3.1,0.8c-0.9,0.5-1.6,1.2-2.1,2.1s-0.8,1.9-0.8,2.9V61
	c0,1.3,0.2,2.5,0.7,3.5s1.2,1.7,2.1,2.3c0.9,0.5,2,0.8,3.3,0.8c0.8,0,1.6-0.1,2.3-0.4c0.7-0.2,1.3-0.6,1.8-1.1s0.9-1.1,1.1-1.7
	l7,0.5c-0.4,1.7-1.1,3.1-2.2,4.4c-1.1,1.2-2.5,2.2-4.2,2.9C199.9,72.9,197.9,73.2,195.6,73.2z M213.2,72.8V36.3h14.3
	c2.7,0,5.1,0.5,7,1.5c2,1,3.4,2.3,4.5,4.1c1,1.8,1.5,3.9,1.5,6.3s-0.5,4.5-1.6,6.2c-1,1.7-2.6,3.1-4.5,4c-2,0.9-4.3,1.4-7.1,1.4
	h-9.6v-6.2h8.4c1.5,0,2.7-0.2,3.7-0.6s1.7-1,2.2-1.8s0.7-1.8,0.7-3s-0.2-2.2-0.7-3.1c-0.5-0.8-1.2-1.5-2.2-1.9s-2.2-0.7-3.7-0.7
	h-5.2v30.2H213.2z M232.9,56.2l9,16.5h-8.5l-8.8-16.5H232.9z M252.2,45.4l5,9.5l5.1-9.5h7.8L262.2,59l8.1,13.6h-7.7l-5.4-9.4
	l-5.3,9.4h-7.8l8.1-13.6l-7.8-13.6H252.2z"/>
<linearGradient id="SVGID_1_" gradientUnits="userSpaceOnUse" x1="354.2899" y1="34.6015" x2="429.2789" y2="166.7625" gradientTransform="matrix(1 0 0 1 0 -38)">
	<stop  offset="0" style="stop-color:#2A88F7"/>
	<stop  offset="0.4427" style="stop-color:#5DB0CD"/>
	<stop  offset="1" style="stop-color:#6E98EB"/>
</linearGradient>
<path class="st2" d="M321,13.8h132c22.4,0,40.5,18.1,40.5,40.5l0,0c0,22.4-18.1,40.5-40.5,40.5H321c-22.4,0-40.5-18.1-40.5-40.5l0,0
	C280.5,31.8,298.6,13.8,321,13.8z"/>
<path class="st3" d="M311.6,67.1v-7.7l14.6-23h7v10.2h-4l-7.9,12.5v0.3h21.6v7.7H311.6z M329.2,72.8v-8l0.2-3.3v-25h9.2v36.3H329.2z
	"/>
<path class="st3" d="M358.3,72.8V36.3h24.8v7.1h-16v7.5h14.4v7.2H367v14.6H358.3z M387,72.8V45.4h8.4v5h0.3c0.5-1.8,1.3-3.1,2.4-4
	s2.4-1.3,3.9-1.3c0.4,0,0.8,0,1.2,0.1c0.4,0,0.8,0.1,1.2,0.2v7.5c-0.4-0.1-1-0.3-1.6-0.3c-0.7-0.1-1.3-0.1-1.8-0.1
	c-1,0-2,0.2-2.8,0.7c-0.8,0.4-1.5,1.1-1.9,1.9c-0.5,0.8-0.7,1.8-0.7,2.8v14.8H387z M419.3,73.2c-2.9,0-5.3-0.6-7.4-1.7
	s-3.6-2.8-4.8-4.8c-1.1-2.1-1.7-4.6-1.7-7.5c0-2.8,0.6-5.3,1.7-7.4s2.7-3.8,4.7-4.9c2-1.2,4.4-1.8,7.2-1.8c1.9,0,3.7,0.3,5.3,0.9
	c1.6,0.6,3,1.5,4.2,2.7s2.1,2.6,2.7,4.4c0.7,1.7,1,3.7,1,5.9v2.2h-23.7v-5h15.6c0-0.9-0.2-1.7-0.7-2.5c-0.4-0.7-1-1.3-1.8-1.7
	c-0.7-0.4-1.6-0.6-2.5-0.6c-1,0-1.8,0.2-2.6,0.7c-0.8,0.4-1.4,1-1.8,1.8c-0.4,0.7-0.7,1.6-0.7,2.5v5.1c0,1.1,0.2,2.1,0.7,2.9
	c0.4,0.8,1.1,1.5,1.9,1.9c0.8,0.5,1.8,0.7,2.9,0.7c0.8,0,1.5-0.1,2.1-0.3c0.6-0.2,1.2-0.5,1.6-0.9c0.5-0.4,0.8-0.9,1-1.5l8,0.2
	c-0.3,1.8-1.1,3.3-2.2,4.7c-1.1,1.3-2.6,2.3-4.4,3.1C423.8,72.9,421.7,73.2,419.3,73.2z M449.5,73.2c-2.9,0-5.3-0.6-7.4-1.7
	s-3.6-2.8-4.8-4.8c-1.1-2.1-1.7-4.6-1.7-7.5c0-2.8,0.6-5.3,1.7-7.4s2.7-3.8,4.7-4.9c2-1.2,4.4-1.8,7.2-1.8c1.9,0,3.7,0.3,5.3,0.9
	c1.6,0.6,3,1.5,4.2,2.7s2.1,2.6,2.7,4.4c0.7,1.7,1,3.7,1,5.9v2.2h-23.7v-5h15.6c0-0.9-0.2-1.7-0.7-2.5c-0.4-0.7-1-1.3-1.8-1.7
	c-0.7-0.4-1.6-0.6-2.5-0.6c-1,0-1.8,0.2-2.6,0.7c-0.8,0.4-1.4,1-1.8,1.8c-0.5,0.7-0.7,1.6-0.7,2.5v5.1c0,1.1,0.2,2.1,0.7,2.9
	c0.4,0.8,1.1,1.5,1.9,1.9c0.8,0.5,1.8,0.7,2.9,0.7c0.8,0,1.5-0.1,2.1-0.3c0.6-0.2,1.2-0.5,1.6-0.9s0.8-0.9,1-1.5l8,0.2
	c-0.3,1.8-1.1,3.3-2.2,4.7c-1.1,1.3-2.6,2.3-4.4,3.1C453.9,72.9,451.8,73.2,449.5,73.2z"/>
<linearGradient id="SVGID_00000055666639042985233280000012018078118402336957_" gradientUnits="userSpaceOnUse" x1="227.2448" y1="5.1383" x2="287.4358" y2="204.845" gradientTransform="matrix(1 0 0 1 0 -38)">
	<stop  offset="0" style="stop-color:#2A88F7"/>
	<stop  offset="0.4427" style="stop-color:#5DB0CD"/>
	<stop  offset="1" style="stop-color:#6E98EB"/>
</linearGradient>
<path style="fill:none;stroke:url(#SVGID_00000055666639042985233280000012018078118402336957_);stroke-width:7;" d="M54,7.2h399
	c26,0,47,21,47,47l0,0c0,26-21,47-47,47H54c-26,0-47-21-47-47l0,0C7,28.2,28,7.2,54,7.2z"/>
</svg>
