<svg width="500" height="102" viewBox="0 0 500 102" fill="none" xmlns="http://www.w3.org/2000/svg">
<path d="M39.1605 69.5V33.1364H53.5071C56.2652 33.1364 58.6148 33.6631 60.5561 34.7166C62.4974 35.7583 63.977 37.2083 64.995 39.0668C66.0249 40.9134 66.5398 43.044 66.5398 45.4588C66.5398 47.8736 66.0189 50.0043 64.9773 51.8509C63.9356 53.6974 62.4264 55.1357 60.4496 56.1655C58.4846 57.1953 56.1054 57.7102 53.3118 57.7102H44.1676V51.549H52.0689C53.5485 51.549 54.7678 51.2945 55.7266 50.7855C56.6972 50.2647 57.4193 49.5485 57.8928 48.6371C58.3781 47.7138 58.6207 46.6544 58.6207 45.4588C58.6207 44.2514 58.3781 43.1979 57.8928 42.2983C57.4193 41.3868 56.6972 40.6825 55.7266 40.1854C54.7559 39.6764 53.5249 39.4219 52.0334 39.4219H46.8487V69.5H39.1605ZM71.3915 69.5V42.2273H78.7246V46.9858H79.0087C79.5059 45.2931 80.3404 44.0147 81.5123 43.1506C82.6841 42.2746 84.0336 41.8366 85.5605 41.8366C85.9393 41.8366 86.3477 41.8603 86.7857 41.9077C87.2237 41.955 87.6084 42.0201 87.9398 42.103V48.8146C87.5847 48.7081 87.0935 48.6134 86.4661 48.5305C85.8387 48.4477 85.2646 48.4062 84.7438 48.4062C83.6311 48.4062 82.6368 48.6489 81.7608 49.1342C80.8967 49.6077 80.2102 50.2706 79.7012 51.1229C79.204 51.9751 78.9554 52.9576 78.9554 54.0703V69.5H71.3915ZM103.01 70.0327C100.205 70.0327 97.7898 69.4645 95.7656 68.3281C93.7533 67.1799 92.2027 65.5582 91.1136 63.4631C90.0246 61.3561 89.4801 58.8643 89.4801 55.9879C89.4801 53.1825 90.0246 50.7204 91.1136 48.6016C92.2027 46.4827 93.7356 44.8314 95.7124 43.6477C97.701 42.464 100.033 41.8722 102.708 41.8722C104.507 41.8722 106.182 42.1622 107.733 42.7422C109.295 43.3104 110.657 44.1686 111.817 45.3168C112.989 46.465 113.9 47.9091 114.551 49.6491C115.202 51.3774 115.528 53.4015 115.528 55.7216V57.799H92.4986V53.1115H108.408C108.408 52.0225 108.171 51.0578 107.697 50.2173C107.224 49.3769 106.567 48.7199 105.727 48.2464C104.898 47.7611 103.933 47.5185 102.832 47.5185C101.684 47.5185 100.666 47.7848 99.7784 48.3175C98.9025 48.8383 98.2159 49.5426 97.7188 50.4304C97.2216 51.3063 96.9671 52.2829 96.9553 53.3601V57.8168C96.9553 59.1662 97.2038 60.3321 97.701 61.3146C98.21 62.2971 98.9261 63.0547 99.8494 63.5874C100.773 64.12 101.868 64.3864 103.134 64.3864C103.975 64.3864 104.744 64.268 105.442 64.0312C106.141 63.7945 106.739 63.4394 107.236 62.9659C107.733 62.4924 108.112 61.9124 108.372 61.2259L115.368 61.6875C115.013 63.3684 114.285 64.8362 113.184 66.0909C112.095 67.3338 110.686 68.3045 108.958 69.0028C107.242 69.6894 105.259 70.0327 103.01 70.0327ZM120.464 69.5V42.2273H127.673V47.0391H127.992C128.56 45.4411 129.507 44.1804 130.833 43.2571C132.159 42.3338 133.745 41.8722 135.592 41.8722C137.462 41.8722 139.054 42.3397 140.368 43.2749C141.682 44.1982 142.558 45.4529 142.996 47.0391H143.28C143.836 45.4766 144.842 44.2277 146.298 43.2926C147.766 42.3456 149.5 41.8722 151.501 41.8722C154.046 41.8722 156.111 42.683 157.697 44.3047C159.295 45.9145 160.094 48.1991 160.094 51.1584V69.5H152.548V52.6499C152.548 51.1347 152.146 49.9983 151.341 49.2408C150.536 48.4832 149.53 48.1044 148.322 48.1044C146.949 48.1044 145.878 48.5424 145.109 49.4183C144.339 50.2824 143.955 51.4247 143.955 52.8452V69.5H136.621V52.4901C136.621 51.1525 136.237 50.0871 135.467 49.294C134.71 48.5009 133.71 48.1044 132.467 48.1044C131.626 48.1044 130.869 48.3175 130.194 48.7436C129.531 49.1579 129.004 49.7438 128.614 50.5014C128.223 51.2472 128.028 52.1231 128.028 53.1293V69.5H120.464ZM166.069 69.5V42.2273H173.633V69.5H166.069ZM169.869 38.7116C168.744 38.7116 167.78 38.3388 166.975 37.593C166.182 36.8355 165.785 35.9299 165.785 34.8764C165.785 33.8348 166.182 32.9411 166.975 32.1953C167.78 31.4377 168.744 31.0589 169.869 31.0589C170.993 31.0589 171.952 31.4377 172.745 32.1953C173.55 32.9411 173.953 33.8348 173.953 34.8764C173.953 35.9299 173.55 36.8355 172.745 37.593C171.952 38.3388 170.993 38.7116 169.869 38.7116ZM192.121 70.0327C189.316 70.0327 186.901 69.4645 184.877 68.3281C182.865 67.1799 181.314 65.5582 180.225 63.4631C179.136 61.3561 178.591 58.8643 178.591 55.9879C178.591 53.1825 179.136 50.7204 180.225 48.6016C181.314 46.4827 182.847 44.8314 184.824 43.6477C186.812 42.464 189.144 41.8722 191.819 41.8722C193.619 41.8722 195.294 42.1622 196.844 42.7422C198.407 43.3104 199.768 44.1686 200.928 45.3168C202.1 46.465 203.011 47.9091 203.662 49.6491C204.314 51.3774 204.639 53.4015 204.639 55.7216V57.799H181.61V53.1115H197.519C197.519 52.0225 197.282 51.0578 196.809 50.2173C196.335 49.3769 195.678 48.7199 194.838 48.2464C194.009 47.7611 193.045 47.5185 191.944 47.5185C190.796 47.5185 189.778 47.7848 188.89 48.3175C188.014 48.8383 187.327 49.5426 186.83 50.4304C186.333 51.3063 186.078 52.2829 186.067 53.3601V57.8168C186.067 59.1662 186.315 60.3321 186.812 61.3146C187.321 62.2971 188.037 63.0547 188.961 63.5874C189.884 64.12 190.979 64.3864 192.246 64.3864C193.086 64.3864 193.855 64.268 194.554 64.0312C195.252 63.7945 195.85 63.4394 196.347 62.9659C196.844 62.4924 197.223 61.9124 197.483 61.2259L204.479 61.6875C204.124 63.3684 203.396 64.8362 202.295 66.0909C201.206 67.3338 199.798 68.3045 198.069 69.0028C196.353 69.6894 194.37 70.0327 192.121 70.0327ZM209.717 69.5V33.1364H224.064C226.81 33.1364 229.154 33.6276 231.095 34.6101C233.048 35.5807 234.534 36.9598 235.552 38.7472C236.581 40.5227 237.096 42.612 237.096 45.0149C237.096 47.4297 236.576 49.5071 235.534 51.2472C234.492 52.9754 232.983 54.3011 231.006 55.2244C229.041 56.1477 226.662 56.6094 223.868 56.6094H214.263V50.4304H222.626C224.093 50.4304 225.313 50.2292 226.283 49.8267C227.254 49.4242 227.976 48.8205 228.449 48.0156C228.935 47.2107 229.177 46.2105 229.177 45.0149C229.177 43.8075 228.935 42.7895 228.449 41.9609C227.976 41.1323 227.248 40.505 226.265 40.0788C225.295 39.6409 224.07 39.4219 222.59 39.4219H217.405V69.5H209.717ZM229.355 52.9517L238.393 69.5H229.905L221.063 52.9517H229.355ZM248.709 42.2273L253.716 51.7621L258.847 42.2273H266.606L258.705 55.8636L266.819 69.5H259.096L253.716 60.0717L248.425 69.5H240.612L248.709 55.8636L240.896 42.2273H248.709Z" fill="#393939"/>
<rect x="277" y="10.5" width="213" height="81" rx="40.5" fill="url(#paint0_linear_84_153)"/>
<path d="M308.06 63.8182V56.1477L322.69 33.1364H329.651V43.3636H325.673L317.79 55.8636V56.1477H339.381V63.8182H308.06ZM325.744 69.5V61.4744L325.957 58.1364V33.1364H335.19V69.5H325.744Z" fill="#F3F3F3"/>
<path d="M354.752 69.5V33.1364H379.575V40.2741H363.541V47.7315H377.994V54.8871H363.541V69.5H354.752ZM383.463 69.5V42.2273H391.897V47.1989H392.181C392.678 45.3996 393.489 44.062 394.614 43.1861C395.738 42.2983 397.046 41.8544 398.538 41.8544C398.94 41.8544 399.354 41.884 399.781 41.9432C400.207 41.9905 400.603 42.0675 400.97 42.174V49.7202C400.556 49.5781 400.011 49.4657 399.337 49.3828C398.674 49.3 398.082 49.2585 397.561 49.2585C396.531 49.2585 395.602 49.4893 394.773 49.951C393.957 50.4008 393.312 51.0341 392.838 51.8509C392.376 52.6558 392.146 53.6027 392.146 54.6918V69.5H383.463ZM415.841 70.0149C412.988 70.0149 410.526 69.4527 408.454 68.3281C406.395 67.1918 404.808 65.576 403.696 63.4808C402.595 61.3738 402.044 58.8703 402.044 55.9702C402.044 53.1529 402.601 50.6908 403.713 48.5838C404.826 46.465 406.395 44.8196 408.419 43.6477C410.443 42.464 412.828 41.8722 415.574 41.8722C417.516 41.8722 419.291 42.174 420.901 42.7777C422.511 43.3814 423.902 44.2751 425.074 45.4588C426.245 46.6425 427.157 48.1044 427.808 49.8445C428.459 51.5727 428.784 53.5554 428.784 55.7926V57.9588H405.081V52.9162H420.706C420.694 51.9929 420.475 51.1702 420.049 50.4482C419.623 49.7261 419.037 49.1638 418.291 48.7614C417.557 48.3471 416.711 48.1399 415.752 48.1399C414.781 48.1399 413.911 48.3589 413.142 48.7969C412.372 49.223 411.763 49.8089 411.313 50.5547C410.863 51.2886 410.626 52.1231 410.603 53.0582V58.1896C410.603 59.3023 410.822 60.2789 411.26 61.1193C411.698 61.9479 412.319 62.593 413.124 63.0547C413.929 63.5163 414.888 63.7472 416 63.7472C416.77 63.7472 417.468 63.6406 418.096 63.4276C418.723 63.2145 419.261 62.9008 419.711 62.4865C420.161 62.0722 420.498 61.5632 420.723 60.9595L428.696 61.1903C428.364 62.9777 427.636 64.5343 426.512 65.8601C425.399 67.174 423.937 68.1979 422.126 68.9318C420.315 69.6539 418.22 70.0149 415.841 70.0149ZM445.968 70.0149C443.115 70.0149 440.653 69.4527 438.581 68.3281C436.521 67.1918 434.935 65.576 433.823 63.4808C432.722 61.3738 432.171 58.8703 432.171 55.9702C432.171 53.1529 432.728 50.6908 433.84 48.5838C434.953 46.465 436.521 44.8196 438.546 43.6477C440.57 42.464 442.955 41.8722 445.701 41.8722C447.642 41.8722 449.418 42.174 451.028 42.7777C452.638 43.3814 454.029 44.2751 455.2 45.4588C456.372 46.6425 457.284 48.1044 457.935 49.8445C458.586 51.5727 458.911 53.5554 458.911 55.7926V57.9588H435.208V52.9162H450.833C450.821 51.9929 450.602 51.1702 450.176 50.4482C449.749 49.7261 449.164 49.1638 448.418 48.7614C447.684 48.3471 446.838 48.1399 445.879 48.1399C444.908 48.1399 444.038 48.3589 443.269 48.7969C442.499 49.223 441.89 49.8089 441.44 50.5547C440.99 51.2886 440.753 52.1231 440.73 53.0582V58.1896C440.73 59.3023 440.949 60.2789 441.387 61.1193C441.825 61.9479 442.446 62.593 443.251 63.0547C444.056 63.5163 445.015 63.7472 446.127 63.7472C446.897 63.7472 447.595 63.6406 448.222 63.4276C448.85 63.2145 449.388 62.9008 449.838 62.4865C450.288 62.0722 450.625 61.5632 450.85 60.9595L458.823 61.1903C458.491 62.9777 457.763 64.5343 456.639 65.8601C455.526 67.174 454.064 68.1979 452.253 68.9318C450.442 69.6539 448.347 70.0149 445.968 70.0149Z" fill="#F3F3F3"/>
<rect x="3.5" y="4" width="493" height="94" rx="47" stroke="url(#paint1_linear_84_153)" stroke-width="7"/>
<defs>
<linearGradient id="paint0_linear_84_153" x1="302.864" y1="20.545" x2="377.853" y2="152.706" gradientUnits="userSpaceOnUse">
<stop stop-color="#2A88F7"/>
<stop offset="0.442708" stop-color="#5DB0CD"/>
<stop offset="1" stop-color="#6E98EB"/>
</linearGradient>
<linearGradient id="paint1_linear_84_153" x1="60.7143" y1="13.0253" x2="120.905" y2="212.732" gradientUnits="userSpaceOnUse">
<stop stop-color="#2A88F7"/>
<stop offset="0.442708" stop-color="#5DB0CD"/>
<stop offset="1" stop-color="#6E98EB"/>
</linearGradient>
</defs>
</svg>
