<svg width="377" height="377" viewBox="0 0 377 377" fill="none" xmlns="http://www.w3.org/2000/svg">
<g filter="url(#filter0_i_84_147)">
<path d="M0 377C4.32242e-06 327.557 9.73848 278.599 28.6594 232.92C47.5803 187.24 75.3131 145.735 110.274 110.774C145.236 75.8129 186.741 48.0801 232.42 29.1592C278.099 10.2384 327.058 0.499952 376.5 0.5L376.5 151.1C346.835 151.1 317.459 156.943 290.052 168.296C262.645 179.648 237.741 196.288 216.765 217.264C195.788 238.241 179.148 263.144 167.796 290.552C156.443 317.959 150.6 347.334 150.6 377H0Z" fill="#5DB0CD"/>
</g>
<defs>
<filter id="filter0_i_84_147" x="0" y="0.5" width="376.5" height="380.5" filterUnits="userSpaceOnUse" color-interpolation-filters="sRGB">
<feFlood flood-opacity="0" result="BackgroundImageFix"/>
<feBlend mode="normal" in="SourceGraphic" in2="BackgroundImageFix" result="shape"/>
<feColorMatrix in="SourceAlpha" type="matrix" values="0 0 0 0 0 0 0 0 0 0 0 0 0 0 0 0 0 0 127 0" result="hardAlpha"/>
<feOffset dy="4"/>
<feGaussianBlur stdDeviation="28.5"/>
<feComposite in2="hardAlpha" operator="arithmetic" k2="-1" k3="1"/>
<feColorMatrix type="matrix" values="0 0 0 0 0 0 0 0 0 0 0 0 0 0 0 0 0 0 0.25 0"/>
<feBlend mode="normal" in2="shape" result="effect1_innerShadow_84_147"/>
</filter>
</defs>
</svg>
